<svg width="296" height="285" viewBox="0 0 296 285" fill="none" xmlns="http://www.w3.org/2000/svg">
<path d="M248.035 120.716L260.278 117.74L261.673 123.477C262.03 124.946 262.01 126.136 261.615 127.048C261.23 127.956 260.554 128.528 259.586 128.763C258.933 128.922 258.337 128.907 257.797 128.717C257.268 128.524 256.813 128.203 256.432 127.752C256.065 127.31 255.81 126.792 255.665 126.197L256.371 126.359C256.539 127.047 256.561 127.696 256.437 128.306C256.326 128.914 256.069 129.433 255.668 129.864C255.269 130.307 254.714 130.615 254.003 130.788C252.953 131.043 252.039 130.839 251.26 130.176C250.482 129.513 249.9 128.389 249.514 126.803L248.035 120.716ZM250.371 122.557L251.264 126.23C251.471 127.081 251.77 127.7 252.16 128.086C252.551 128.473 253.055 128.591 253.673 128.441C254.279 128.294 254.667 127.959 254.836 127.436C255.017 126.91 255.004 126.222 254.797 125.371L253.862 121.523L255.629 121.093L256.453 124.486C256.646 125.279 256.933 125.852 257.315 126.203C257.7 126.567 258.172 126.68 258.732 126.544C259.303 126.405 259.677 126.086 259.852 125.587C260.029 125.099 260.022 124.459 259.829 123.666L259.047 120.448L250.371 122.557Z" fill="#030406"/>
<path d="M251.424 139.075C251.244 137.356 251.587 135.957 252.451 134.877C253.317 133.81 254.663 133.18 256.489 132.99L263.561 132.251L263.804 134.578L256.822 135.308C255.533 135.442 254.625 135.815 254.097 136.425C253.571 137.047 253.361 137.865 253.467 138.879C253.573 139.894 253.947 140.645 254.589 141.133C255.231 141.621 256.197 141.798 257.486 141.663L264.468 140.934L264.707 143.225L257.636 143.964C255.81 144.155 254.362 143.811 253.293 142.933C252.225 142.068 251.602 140.781 251.424 139.075Z" fill="#030406"/>
<path d="M251.99 151.874C252.014 150.89 252.176 149.952 252.474 149.059C252.784 148.166 253.168 147.462 253.625 146.945L255.422 147.8C255.014 148.294 254.669 148.91 254.386 149.647C254.104 150.384 253.953 151.142 253.933 151.922C253.917 152.582 253.976 153.118 254.109 153.529C254.243 153.941 254.428 154.245 254.663 154.443C254.91 154.641 255.189 154.744 255.501 154.752C255.885 154.762 256.194 154.631 256.429 154.361C256.676 154.091 256.871 153.736 257.014 153.295C257.169 152.867 257.313 152.385 257.446 151.848C257.579 151.323 257.731 150.792 257.9 150.257C258.081 149.733 258.303 149.252 258.566 148.815C258.841 148.389 259.198 148.044 259.636 147.779C260.075 147.514 260.63 147.39 261.302 147.406C261.986 147.423 262.605 147.619 263.16 147.993C263.727 148.379 264.169 148.948 264.486 149.7C264.815 150.465 264.965 151.423 264.936 152.575C264.918 153.33 264.803 154.078 264.592 154.817C264.382 155.556 264.09 156.197 263.716 156.739L261.917 155.956C262.267 155.401 262.528 154.825 262.699 154.229C262.881 153.634 262.98 153.06 262.993 152.508C263.01 151.86 262.945 151.331 262.799 150.919C262.653 150.519 262.456 150.22 262.209 150.022C261.962 149.836 261.676 149.738 261.352 149.73C260.968 149.721 260.653 149.845 260.407 150.103C260.172 150.373 259.983 150.723 259.84 151.151C259.697 151.592 259.553 152.08 259.408 152.617C259.274 153.154 259.123 153.684 258.954 154.208C258.784 154.744 258.568 155.225 258.306 155.65C258.043 156.088 257.692 156.433 257.254 156.686C256.815 156.952 256.266 157.076 255.606 157.059C254.934 157.043 254.315 156.841 253.748 156.455C253.193 156.081 252.751 155.512 252.422 154.747C252.105 153.983 251.961 153.025 251.99 151.874Z" fill="#030406"/>
<path d="M251.72 159.759L264.237 161.203L263.968 163.527L251.451 162.083L251.72 159.759Z" fill="#030406"/>
<path d="M251.023 166.221L263.323 168.954L262.906 170.834L251.721 176.443L251.928 175.512L261.399 177.616L260.895 179.883L248.595 177.15L249.013 175.27L260.198 169.66L259.991 170.592L250.52 168.487L251.023 166.221Z" fill="#030406"/>
<path d="M253.845 184.683L251.715 190.574L249.904 189.919L252.034 184.028L253.845 184.683ZM248.706 183.016L246.288 189.703L244.443 189.036L247.656 180.149L259.505 184.433L256.378 193.083L254.533 192.416L256.865 185.966L248.706 183.016Z" fill="#030406"/>
<path d="M241.653 194.463C242.089 193.581 242.631 192.798 243.277 192.114C243.935 191.435 244.58 190.958 245.212 190.682L246.482 192.214C245.903 192.49 245.331 192.903 244.764 193.453C244.197 194.002 243.741 194.626 243.395 195.326C243.102 195.917 242.929 196.427 242.877 196.857C242.825 197.287 242.864 197.641 242.994 197.919C243.135 198.203 243.345 198.414 243.625 198.553C243.969 198.723 244.304 198.735 244.631 198.589C244.968 198.448 245.295 198.208 245.61 197.869C245.931 197.545 246.265 197.168 246.612 196.738C246.954 196.318 247.315 195.901 247.694 195.486C248.079 195.087 248.483 194.745 248.905 194.459C249.334 194.189 249.803 194.026 250.312 193.97C250.822 193.915 251.378 194.036 251.98 194.334C252.593 194.638 253.072 195.076 253.418 195.649C253.769 196.238 253.93 196.94 253.901 197.756C253.878 198.588 253.61 199.52 253.099 200.552C252.764 201.23 252.345 201.859 251.843 202.441C251.34 203.022 250.805 203.481 250.238 203.816L248.936 202.348C249.488 201.991 249.966 201.579 250.372 201.11C250.789 200.647 251.12 200.168 251.365 199.674C251.652 199.093 251.817 198.585 251.858 198.15C251.894 197.726 251.842 197.372 251.701 197.088C251.555 196.815 251.337 196.607 251.046 196.463C250.702 196.293 250.364 196.272 250.032 196.403C249.705 196.549 249.387 196.786 249.077 197.115C248.761 197.454 248.425 197.836 248.067 198.262C247.72 198.692 247.359 199.11 246.985 199.514C246.606 199.928 246.207 200.273 245.79 200.549C245.367 200.835 244.903 201 244.399 201.045C243.889 201.101 243.339 200.982 242.747 200.689C242.145 200.391 241.668 199.948 241.317 199.359C240.972 198.786 240.811 198.083 240.834 197.251C240.869 196.425 241.141 195.495 241.653 194.463Z" fill="#030406"/>
<path d="M49.1371 158.976L36.5435 159.376L36.3685 153.871C36.325 152.504 36.5507 151.296 37.0457 150.247C37.5406 149.199 38.2467 148.372 39.1639 147.767C40.0812 147.161 41.1755 146.839 42.4468 146.798C43.7062 146.758 44.8188 147.011 45.7846 147.556C46.7384 148.102 47.4956 148.883 48.0561 149.897C48.6166 150.912 48.9186 152.103 48.9621 153.47L49.1371 158.976ZM47.0838 156.7L46.9865 153.641C46.9564 152.694 46.7506 151.884 46.369 151.212C45.9871 150.528 45.4664 150.01 44.8069 149.659C44.147 149.295 43.3853 149.127 42.5217 149.155C41.6462 149.183 40.8967 149.399 40.2732 149.803C39.6373 150.195 39.1505 150.745 38.8128 151.452C38.4748 152.147 38.3208 152.968 38.3509 153.916L38.4481 156.974L47.0838 156.7Z" fill="#030406"/>
<path d="M41.7977 141.917L42.3994 135.682L44.3164 135.867L43.7148 142.102L41.7977 141.917ZM47.19 142.256L47.8729 135.179L49.8259 135.367L48.9182 144.774L36.3764 143.564L37.2599 134.408L39.2128 134.596L38.5541 141.423L47.19 142.256Z" fill="#030406"/>
<path d="M51.5469 127.659C51.3421 128.597 50.999 129.437 50.5176 130.179C50.027 130.907 49.4351 131.509 48.7418 131.984C48.0393 132.445 47.2654 132.755 46.4199 132.914C45.5745 133.074 44.6946 133.053 43.7801 132.854C42.8656 132.654 42.0574 132.306 41.3552 131.808C40.6531 131.311 40.086 130.702 39.6538 129.981C39.2099 129.258 38.9225 128.465 38.7918 127.601C38.6493 126.734 38.6817 125.826 38.889 124.877C39.1092 123.869 39.4859 122.987 40.0194 122.231C40.5411 121.473 41.2047 120.881 42.0101 120.455L43.0768 122.235C42.4989 122.576 42.0325 122.996 41.6778 123.496C41.3113 123.993 41.0576 124.564 40.9168 125.209C40.7761 125.854 40.7523 126.469 40.8456 127.054C40.9414 127.628 41.1393 128.156 41.4391 128.639C41.7416 129.111 42.1322 129.515 42.6112 129.853C43.0927 130.18 43.65 130.412 44.2831 130.55C44.9161 130.688 45.5195 130.709 46.0932 130.614C46.6694 130.506 47.1931 130.301 47.6645 129.999C48.1384 129.684 48.5385 129.287 48.8647 128.805C49.1935 128.312 49.4282 127.743 49.569 127.098C49.7098 126.453 49.7231 125.83 49.6089 125.228C49.483 124.623 49.2225 124.044 48.8274 123.491L50.5568 122.321C51.0996 123.041 51.456 123.856 51.626 124.765C51.796 125.674 51.7696 126.639 51.5469 127.659Z" fill="#030406"/>
<path d="M50.9061 117.909L48.2504 117.105L43.9849 108.591L44.8604 106.114L48.5303 113.233L49.4393 114.928L50.9061 117.909ZM53.0108 120.868L41.1306 116.67L41.9101 114.464L53.7903 118.661L53.0108 120.868ZM55.9371 112.585L48.916 115.221L47.8194 113.192L56.8486 110.006L55.9371 112.585Z" fill="#030406"/>
<path d="M59.0914 105.975C58.6579 106.859 58.1191 107.644 57.4749 108.33C56.8199 109.011 56.1769 109.491 55.5457 109.769L54.2703 108.241C54.8478 107.963 55.4189 107.548 55.9837 106.997C56.5484 106.445 57.0025 105.819 57.3461 105.119C57.6368 104.526 57.8074 104.015 57.8578 103.586C57.9082 103.156 57.868 102.802 57.7371 102.524C57.5955 102.24 57.3846 102.03 57.1045 101.893C56.7597 101.724 56.4242 101.713 56.098 101.86C55.7609 102.002 55.4354 102.243 55.1213 102.584C54.8017 102.908 54.4692 103.286 54.1236 103.718C53.7833 104.139 53.4242 104.558 53.0463 104.974C52.6629 105.374 52.2603 105.718 51.8385 106.006C51.4112 106.277 50.9428 106.442 50.4334 106.499C49.924 106.557 49.3677 106.437 48.7644 106.141C48.1503 105.84 47.6694 105.404 47.3216 104.832C46.9683 104.244 46.8047 103.543 46.8308 102.727C46.8514 101.895 47.1154 100.962 47.6228 99.9274C47.9558 99.2486 48.3723 98.6176 48.8724 98.0342C49.3725 97.4509 49.9057 96.9907 50.472 96.6537L51.7791 98.117C51.229 98.4754 50.7518 98.8895 50.3475 99.3594C49.9324 99.8241 49.6033 100.304 49.3601 100.8C49.0747 101.382 48.9122 101.89 48.8725 102.325C48.8381 102.749 48.8918 103.103 49.0334 103.386C49.1804 103.659 49.3993 103.867 49.6902 104.009C50.0349 104.178 50.3732 104.197 50.7049 104.066C51.0312 103.919 51.3487 103.68 51.6575 103.35C51.9716 103.01 52.3068 102.626 52.6631 102.2C53.0087 101.768 53.3678 101.349 53.7404 100.944C54.1184 100.528 54.5156 100.181 54.9321 99.9046C55.3539 99.6169 55.8169 99.4498 56.321 99.403C56.8304 99.3455 57.3813 99.4621 57.9739 99.7529C58.5772 100.049 59.0555 100.491 59.4087 101.078C59.7565 101.65 59.9201 102.352 59.8995 103.184C59.8682 104.011 59.5988 104.941 59.0914 105.975Z" fill="#030406"/>
<path d="M92.4661 57.5923L97.8444 54.3811L98.8318 56.0348L93.4535 59.2459L92.4661 57.5923ZM95.3889 62.1364L101.494 58.4916L102.499 60.1762L94.3856 65.0206L87.9263 54.2022L95.8238 49.4869L96.8296 51.1715L90.9413 54.6872L95.3889 62.1364Z" fill="#030406"/>
<path d="M104.138 59.244L99.0924 47.6983L104.14 45.4927C105.393 44.9449 106.598 44.7063 107.755 44.7769C108.913 44.8475 109.942 45.1963 110.845 45.8233C111.748 46.4503 112.454 47.3466 112.963 48.5122C113.467 49.6667 113.646 50.7937 113.497 51.893C113.344 52.9813 112.901 53.974 112.167 54.8711C111.432 55.7682 110.439 56.4906 109.185 57.0384L104.138 59.244ZM105.489 56.4927L108.293 55.2673C109.162 54.8877 109.838 54.396 110.32 53.7923C110.814 53.1837 111.101 52.508 111.183 51.7653C111.275 51.0177 111.148 50.2481 110.802 49.4564C110.451 48.6537 109.973 48.0378 109.366 47.6088C108.766 47.164 108.075 46.916 107.293 46.8648C106.522 46.8089 105.702 46.9707 104.833 47.3503L102.029 48.5756L105.489 56.4927Z" fill="#030406"/>
<path d="M123.08 52.2211C121.414 52.6809 119.977 52.5732 118.77 51.8981C117.575 51.2198 116.733 49.9957 116.244 48.2259L114.352 41.3722L116.608 40.7496L118.476 47.5165C118.821 48.7658 119.337 49.6004 120.026 50.0203C120.726 50.437 121.568 50.5097 122.551 50.2383C123.534 49.9669 124.214 49.4743 124.589 48.7606C124.965 48.047 124.98 47.0655 124.635 45.8162L122.767 39.0493L124.988 38.4362L126.88 45.2899C127.369 47.0597 127.268 48.544 126.578 49.7428C125.9 50.9384 124.734 51.7645 123.08 52.2211Z" fill="#030406"/>
<path d="M137.444 49.2633C136.493 49.3959 135.586 49.3648 134.723 49.1701C133.87 48.9619 133.101 48.6148 132.415 48.1288C131.74 47.6293 131.181 47.0105 130.739 46.2725C130.297 45.5345 130.011 44.702 129.882 43.775C129.752 42.8479 129.799 41.969 130.023 41.1382C130.246 40.3074 130.621 39.5645 131.148 38.9095C131.673 38.2426 132.318 37.6983 133.083 37.2767C133.846 36.8431 134.71 36.5592 135.672 36.425C136.694 36.2825 137.652 36.3307 138.546 36.5696C139.438 36.7966 140.223 37.2142 140.901 37.8223L139.6 39.4395C139.081 39.0152 138.525 38.7231 137.933 38.5633C137.34 38.3916 136.716 38.3513 136.063 38.4424C135.409 38.5335 134.824 38.7242 134.307 39.0143C133.802 39.3028 133.374 39.6713 133.025 40.1199C132.688 40.5668 132.443 41.0734 132.292 41.6397C132.153 42.2043 132.128 42.8076 132.217 43.4494C132.307 44.0911 132.496 44.6645 132.784 45.1695C133.084 45.6729 133.458 46.0933 133.905 46.4309C134.364 46.7667 134.875 47.0043 135.44 47.1437C136.017 47.2814 136.632 47.3047 137.285 47.2136C137.939 47.1224 138.529 46.9191 139.054 46.6035C139.578 46.276 140.031 45.8312 140.413 45.2691L142.109 46.4865C141.621 47.2452 140.98 47.8616 140.186 48.3358C139.392 48.81 138.478 49.1192 137.444 49.2633Z" fill="#030406"/>
<path d="M141.793 48.3298L147.3 35.658L149.604 35.6284L155.454 48.1543L153.006 48.1858L147.982 36.8913L148.918 36.8793L144.205 48.2988L141.793 48.3298ZM144.365 45.3805L144.971 43.5365L151.775 43.4492L152.428 45.2769L144.365 45.3805Z" fill="#030406"/>
<path d="M159.639 48.6183L160.778 38.0594L156.626 37.6118L156.838 35.6432L167.468 36.7893L167.256 38.7579L163.104 38.3103L161.966 48.8691L159.639 48.6183Z" fill="#030406"/>
<path d="M167.787 49.6816L170.201 37.3151L172.498 37.7634L170.083 50.13L167.787 49.6816Z" fill="#030406"/>
<path d="M179.815 52.7384C178.874 52.4516 178.054 52.0326 177.357 51.4813C176.659 50.93 176.101 50.2897 175.684 49.5603C175.27 48.8195 175.016 48.027 174.922 47.1829C174.831 46.3274 174.922 45.4519 175.195 44.5566C175.468 43.6612 175.879 42.8895 176.428 42.2413C176.98 41.5816 177.633 41.0655 178.386 40.6929C179.143 40.3088 179.964 40.0824 180.851 40.0139C181.737 39.9453 182.646 40.0526 183.575 40.336C184.517 40.6228 185.33 41.0401 186.016 41.5879C186.714 42.1391 187.27 42.7852 187.684 43.5261C188.101 44.2554 188.355 45.0479 188.446 45.9034C188.54 46.7475 188.451 47.6172 188.178 48.5126C187.905 49.4079 187.492 50.1854 186.94 50.8451C186.388 51.5048 185.735 52.0209 184.982 52.3935C184.229 52.7661 183.409 52.9867 182.522 53.0553C181.647 53.1274 180.745 53.0218 179.815 52.7384ZM180.396 50.7703C181.004 50.9557 181.598 51.0238 182.178 50.9745C182.757 50.9253 183.294 50.769 183.788 50.5056C184.286 50.2308 184.715 49.8723 185.076 49.4302C185.451 48.9801 185.733 48.4451 185.922 47.8253C186.111 47.2054 186.173 46.6097 186.109 46.0382C186.06 45.4587 185.904 44.9218 185.64 44.4276C185.38 43.9218 185.024 43.487 184.57 43.123C184.117 42.7589 183.586 42.4842 182.977 42.2989C182.369 42.1135 181.775 42.0454 181.195 42.0946C180.627 42.1473 180.089 42.3094 179.579 42.5807C179.085 42.8441 178.65 43.2008 178.275 43.6509C177.914 44.0931 177.64 44.624 177.451 45.2439C177.265 45.8523 177.197 46.4462 177.247 47.0257C177.307 47.6087 177.468 48.1531 177.727 48.6588C177.991 49.153 178.349 49.5822 178.803 49.9462C179.256 50.3102 179.787 50.5849 180.396 50.7703Z" fill="#030406"/>
<path d="M187.73 55.1038L193.032 43.6736L194.78 44.4841L197.865 56.6104L197 56.209L201.083 47.4077L203.189 48.3848L197.887 59.815L196.14 59.0045L193.054 46.8782L193.919 47.2796L189.837 56.0809L187.73 55.1038Z" fill="#030406"/>
<path d="M199.079 60.2903L210.642 52.7281L212.584 53.9691L210.59 67.6489L208.527 66.3303L210.535 54.1333L211.323 54.6374L201.111 61.5894L199.079 60.2903ZM202.848 59.2392L204.368 58.0316L210.101 61.6964L209.643 63.5826L202.848 59.2392Z" fill="#030406"/>
<path d="M212.056 68.8732L220.07 59.1496L221.875 60.6377L215.121 68.8334L220.206 73.0231L218.946 74.5511L212.056 68.8732Z" fill="#030406"/>
<rect x="67.6833" y="75.7163" width="5.33604" height="5.33604" transform="rotate(0.854585 67.6833 75.7163)" fill="#C71818"/>
<rect x="238.985" y="88.0464" width="5.33604" height="5.33604" transform="rotate(8.02824 238.985 88.0464)" fill="#C71818"/>
</svg>
