<svg width="16" height="14" viewBox="0 0 16 14" fill="none" xmlns="http://www.w3.org/2000/svg">
<path d="M14.824 0.00125524C14.5279 0.0110855 14.2464 0.161577 14.0392 0.420787C13.7435 0.782926 11.6845 3.37498 9.57239 6.03169C7.7906 8.27317 6.44921 9.95389 5.82651 10.7337L1.83771 7.01021V7.01035C1.59659 6.78425 1.29187 6.68508 0.990789 6.73467C0.689716 6.78411 0.417214 6.9784 0.233334 7.27448C0.0494568 7.57055 -0.0306816 7.94412 0.0106265 8.31276C0.0519345 8.6814 0.211263 9.01463 0.453558 9.23898L5.24846 13.7137V13.7139C5.46809 13.9189 5.74085 14.0193 6.01643 13.9969C6.29189 13.9744 6.55142 13.8304 6.74687 13.5914C7.04252 13.2293 9.10154 10.6372 11.2136 7.98014C13.3256 5.32316 15.4907 2.60127 15.6517 2.40402V2.40416C15.874 2.14105 15.9997 1.7789 16 1.40044C16.0005 1.02196 15.8756 0.659417 15.654 0.395581C15.4323 0.131893 15.1329 -0.0106649 14.824 0.000622761L14.824 0.00125524Z" fill="#C71717"/>
</svg>
