<svg width="63" height="38" viewBox="0 0 63 38" fill="none" xmlns="http://www.w3.org/2000/svg">
<path fill-rule="evenodd" clip-rule="evenodd" d="M27.8964 10.1872C22.8354 16.7544 20.3649 23.3821 22.3534 24.8886C23.7994 26.0332 27.1732 24.2862 30.7887 20.7919C28.0172 23.1416 25.6072 24.226 24.4623 23.3821C22.6548 21.9365 24.8837 16.0316 29.4631 10.127C33.9816 4.16224 39.1637 0.54719 40.9712 1.93294C41.1518 2.05334 41.2722 2.23431 41.393 2.41492C41.3321 1.81253 41.0913 1.39075 40.7297 1.08938C38.6814 -0.477335 32.9571 3.62006 27.8964 10.1872Z" fill="#858585"/>
<path fill-rule="evenodd" clip-rule="evenodd" d="M31.4511 18.623C39.766 18.6832 46.5137 16.695 46.5137 14.1644C46.5739 12.2966 43.1398 10.7299 38.139 9.88672C41.6935 10.6697 44.0433 11.9956 44.0433 13.3814C43.9831 15.6709 37.9577 17.4784 30.4868 17.4182C23.0159 17.358 16.9304 15.4297 16.9909 13.1402C16.9909 12.899 17.0511 12.7184 17.1113 12.4776C16.6899 12.899 16.4487 13.3814 16.4487 13.8633C16.4487 16.3937 23.1363 18.5022 31.4511 18.623Z" fill="#858585"/>
<path fill-rule="evenodd" clip-rule="evenodd" d="M35.1862 10.007C29.764 3.74047 23.7992 -0.0548376 21.8709 1.63193C20.4852 2.77686 21.5696 6.45211 24.221 10.7298C22.4737 7.53649 21.8709 4.88576 22.9557 3.98164C24.703 2.47549 30.0654 5.90957 34.9457 11.5733C39.7659 17.2371 42.2963 23.0212 40.6091 24.527C40.4285 24.6481 40.2476 24.7685 40.0067 24.8288C40.6091 24.889 41.0911 24.7685 41.4531 24.4672C43.3806 22.7801 40.5489 16.3333 35.1862 10.007ZM2.0487 33.384C2.1089 33.2034 2.1089 33.1432 2.1691 33.1432C2.22931 33.1432 2.22931 33.2034 2.28951 33.384C2.40992 33.6256 3.31368 35.9749 3.67526 36.8783C3.85587 37.4205 4.03683 37.4814 4.15724 37.5416H4.39841C4.39841 37.5416 4.45861 37.5416 4.45861 37.6018C4.45861 37.6018 4.39841 37.662 4.3382 37.662C4.2178 37.662 3.79602 37.662 3.43444 37.6018H3.25348V37.5416C3.31368 37.5416 3.37424 37.4814 3.31368 37.4205L2.77149 35.9749C2.77149 35.9147 2.77149 35.9147 2.71129 35.9147H1.44595L1.38575 35.9749L1.08437 36.9995C1.02417 37.1199 0.963967 37.3005 0.963967 37.4205C0.963967 37.4814 1.08437 37.5416 1.20514 37.5416H1.26534C1.32554 37.5416 1.32554 37.6018 1.32554 37.6018C1.32554 37.6018 1.26534 37.662 1.20514 37.662C1.08473 37.662 0.84356 37.6018 0.783356 37.6018C0.723152 37.6018 0.42178 37.662 0.120407 37.662C0.0602037 37.662 0 37.6018 0 37.6018L0.0602037 37.5416H0.240815C0.481984 37.5416 0.602391 37.3001 0.722798 36.9995L2.0487 33.384ZM2.65109 35.7345V35.6736L2.1089 34.1068C2.1089 34.0466 2.0487 34.0466 2.0487 34.1068L1.50651 35.6736C1.50651 35.7345 1.50651 35.7345 1.56671 35.7345H2.65109ZM9.64002 34.9508V33.6858C9.64002 33.5045 9.57982 33.384 9.39921 33.3242H9.15804V33.264H10.5438C10.9656 33.264 11.3268 33.264 11.6282 33.5048C11.8088 33.6259 12.0499 33.8664 12.0499 34.2885C12.0499 34.7107 11.869 35.1317 11.3268 35.6137C11.8088 36.2763 12.2306 36.7583 12.5319 37.1202C12.8333 37.4818 13.1347 37.542 13.2551 37.542H13.4959L13.5561 37.6022C13.5561 37.6022 13.4959 37.6624 13.3755 37.6624H12.9537C12.6523 37.6624 12.5319 37.6022 12.3513 37.542C12.1101 37.4209 11.9295 37.1202 11.568 36.6981C11.3268 36.3369 11.0258 35.9753 10.9656 35.7947H10.122V37.2403C10.1822 37.3607 10.1822 37.542 10.3632 37.542H10.6043C10.6645 37.542 10.6645 37.6022 10.6645 37.6022C10.6645 37.6022 10.6645 37.6624 10.6043 37.6624C10.2428 37.6624 9.88119 37.6022 9.88119 37.6022C9.88119 37.6022 9.51962 37.6624 9.339 37.6624C9.2788 37.6624 9.2186 37.6022 9.2186 37.6022C9.2186 37.6022 9.2186 37.542 9.2788 37.542H9.45941C9.57982 37.542 9.57982 37.3607 9.64002 37.2403V34.9508ZM10.122 35.4327V35.4929C10.2424 35.5531 10.4836 35.6133 10.785 35.6133C10.9054 35.6133 11.0863 35.6134 11.2067 35.4929C11.3877 35.3725 11.5683 35.011 11.5683 34.5888C11.5683 33.866 11.1469 33.4442 10.5441 33.4442H10.1826C10.1224 33.5045 10.1224 33.5045 10.1224 33.5654V35.4327H10.122ZM20.124 33.1432C21.3893 33.1432 22.4135 33.9864 22.4135 35.3725C22.4135 36.6375 21.4495 37.7223 20.0638 37.7223C18.4974 37.7223 17.8348 36.4573 17.8348 35.4327C17.8344 34.4688 18.497 33.1432 20.124 33.1432ZM20.2444 37.4814C20.7264 37.4814 21.8107 37.1797 21.8107 35.4929C21.8107 34.1068 20.9672 33.384 20.0634 33.384C19.0994 33.384 18.3766 33.9864 18.3766 35.2521C18.3766 36.6379 19.1596 37.4814 20.2444 37.4814ZM27.7758 37.5416C27.7156 37.5416 27.7156 37.4814 27.7156 37.3603V36.7579C27.7156 36.6375 27.7758 36.6375 27.7758 36.6375C27.836 36.6375 27.8361 36.6375 27.8361 36.6977V36.9392C27.9565 37.3603 28.318 37.4814 28.6796 37.4814C29.282 37.4814 29.5232 37.1199 29.5232 36.7579C29.5232 36.3369 29.3422 36.0953 28.8602 35.6736L28.6191 35.4929C28.0167 34.9508 27.8357 34.5888 27.8357 34.228C27.8357 33.5654 28.3177 33.1436 29.0408 33.1436C29.282 33.1436 29.4626 33.2038 29.583 33.2038C29.7034 33.264 29.764 33.264 29.8242 33.264V33.9266C29.8242 33.9868 29.8242 34.047 29.764 34.047V33.9868C29.764 33.9266 29.7038 33.746 29.6432 33.6858C29.6432 33.6256 29.4626 33.384 28.9204 33.384C28.5588 33.384 28.1973 33.6256 28.1973 34.0466C28.1973 34.3484 28.3779 34.5888 28.9204 35.011L29.101 35.1314C29.764 35.6736 29.9442 36.0355 29.9442 36.5175C29.9442 36.7583 29.8238 37.1801 29.4626 37.4818C29.2214 37.6624 28.8599 37.7226 28.5588 37.7226C28.318 37.7223 28.0167 37.662 27.7758 37.5416ZM35.2464 35.3725C35.2464 35.2521 35.3073 35.0708 35.5481 35.0708C35.7287 35.0708 35.8499 35.1919 35.8499 35.3725C35.8499 35.5532 35.7287 35.6736 35.5481 35.6736C35.3073 35.6736 35.2464 35.4929 35.2464 35.3725ZM41.8139 36.8783C41.8139 37.3001 41.8741 37.4814 42.0554 37.5416H42.3565L42.4167 37.6018C42.4167 37.6018 42.3565 37.662 42.2963 37.662C41.935 37.662 41.6939 37.6018 41.6939 37.6018C41.6337 37.6018 41.3929 37.662 41.0915 37.662C41.0313 37.662 41.0313 37.662 41.0313 37.6018C41.0313 37.6018 41.0313 37.5416 41.0915 37.5416H41.2721C41.4534 37.4814 41.4534 37.3001 41.4534 36.8181V33.4442C41.4534 33.2034 41.5136 33.1432 41.5738 33.1432L41.7544 33.3238C41.8146 33.4442 42.7187 34.4082 43.6225 35.3725C44.1647 35.9749 44.8273 36.6977 45.0079 36.8783L44.9477 33.9262C44.9477 33.5045 44.8875 33.384 44.7069 33.384C44.5858 33.3238 44.4654 33.3238 44.4052 33.3238C44.4052 33.3238 44.345 33.3238 44.345 33.2636H45.6701C45.6701 33.3238 45.6701 33.3238 45.6099 33.3238H45.4895C45.3089 33.384 45.248 33.5044 45.248 33.866V37.2399C45.248 37.6617 45.248 37.6617 45.1878 37.6617C45.1878 37.6617 45.0674 37.6015 44.7667 37.3001C44.7065 37.2399 43.8626 36.3967 43.2602 35.7341C42.5976 35.0106 41.935 34.2878 41.7537 34.0463L41.8139 36.8783ZM51.5149 34.9508V33.6858C51.5149 33.5045 51.4547 33.384 51.2733 33.3242H51.0927C51.0325 33.3242 51.0325 33.3242 51.0325 33.264H53.1414C53.2016 33.264 53.322 33.264 53.3822 33.2038H53.4424V33.5048C53.4424 33.5657 53.3822 33.8664 53.3822 33.9266V33.9868C53.322 33.9868 53.322 33.9266 53.322 33.9266C53.322 33.8664 53.322 33.746 53.2618 33.6858C53.2618 33.6256 53.2016 33.5045 52.84 33.5045H52.057V35.1923H52.9604C53.1418 35.1923 53.202 35.1314 53.2622 35.1314C53.3224 35.0712 53.3224 35.011 53.3224 35.011C53.3826 35.011 53.3826 35.011 53.3826 35.0712C53.3826 35.1314 53.3224 35.1923 53.3224 35.3729V35.7947C53.3224 35.7947 53.3224 35.8549 53.2622 35.8549H53.202V35.6133C53.202 35.5531 53.1418 35.4327 52.9002 35.4327H52.057V35.9749C52.057 36.1555 51.9968 36.8181 52.057 36.9392C52.057 37.3603 52.1172 37.4205 52.7196 37.4205C52.84 37.4205 53.0812 37.4205 53.2618 37.3603C53.4424 37.3001 53.5026 37.1797 53.5026 36.9392L53.5628 36.8783C53.6238 36.8783 53.6238 36.8783 53.6238 36.9392C53.6238 36.9995 53.5628 37.3603 53.5628 37.4814C53.5026 37.662 53.4424 37.662 53.2016 37.662C52.3577 37.662 51.9366 37.6018 51.7553 37.6018H51.5747C51.4543 37.662 51.273 37.662 51.2131 37.662C51.1533 37.662 51.0927 37.6018 51.0927 37.6018L51.1529 37.5416H51.3335C51.4547 37.5416 51.5149 37.3603 51.5149 37.2399V34.9508ZM60.6725 35.9749C60.6725 36.5171 60.6725 36.9995 60.7327 37.2399C60.7327 37.3603 60.7929 37.5416 60.9743 37.5416H61.2151C61.2753 37.5416 61.2753 37.6018 61.2753 37.6018C61.2753 37.6018 61.2151 37.662 61.1549 37.662C60.8539 37.662 60.4923 37.6018 60.4321 37.6018C60.4321 37.6018 60.0705 37.662 59.8899 37.662C59.8297 37.662 59.7695 37.6018 59.7695 37.6018C59.7695 37.6018 59.7695 37.5416 59.8297 37.5416H60.0103C60.1307 37.5416 60.1307 37.3603 60.1909 37.2399V33.5041H59.3477C58.9861 33.5041 58.8657 33.565 58.7453 33.6854C58.6851 33.8058 58.6851 33.8058 58.6249 33.866C58.6249 33.9262 58.6249 33.9262 58.564 33.9262V33.866C58.564 33.8058 58.6851 33.3238 58.6851 33.2636L58.7453 33.1432C58.8055 33.1432 58.8657 33.2034 58.9861 33.2636H62.059C62.1192 33.2034 62.1794 33.2034 62.2396 33.2034V33.9262C62.2396 33.9864 62.2396 33.9864 62.1794 33.9864L62.1192 33.866V33.8058C62.1192 33.6252 61.9988 33.5041 61.3964 33.5041H60.6729L60.6725 35.9749Z" fill="#858585"/>
</svg>
