<svg width="47" height="35" viewBox="0 0 47 35" fill="none" xmlns="http://www.w3.org/2000/svg">
<path d="M45.464 34.5093V34.5992H45.5493C45.5655 34.5992 45.5816 34.5947 45.5954 34.588C45.607 34.5812 45.6139 34.5677 45.6139 34.5542C45.6139 34.5408 45.607 34.5273 45.5954 34.5205C45.5816 34.5115 45.5655 34.5093 45.5493 34.5093H45.464ZM45.5516 34.4463C45.5885 34.4441 45.6254 34.4553 45.6554 34.4756C45.6807 34.4958 45.6923 34.525 45.6923 34.5542C45.6923 34.5812 45.683 34.6059 45.6623 34.6239C45.6392 34.6442 45.6093 34.6554 45.5793 34.6577L45.6946 34.7858H45.607L45.5009 34.6577H45.4663V34.7858H45.3926V34.4463H45.5516ZM45.5286 34.9027C45.5678 34.9027 45.607 34.8959 45.6416 34.8802C45.6761 34.8667 45.7061 34.8442 45.7338 34.8195C45.7614 34.7948 45.7822 34.7633 45.796 34.7296C45.826 34.6577 45.826 34.579 45.796 34.507C45.7822 34.4733 45.7591 34.4441 45.7338 34.4171C45.7061 34.3924 45.6761 34.3699 45.6416 34.3564C45.6047 34.3429 45.5678 34.3339 45.5286 34.3362C45.4894 34.3362 45.4502 34.3429 45.4133 34.3564C45.3787 34.3699 45.3465 34.3924 45.3188 34.4171C45.2358 34.5003 45.2104 34.6239 45.2565 34.7318C45.2704 34.7656 45.2911 34.797 45.3188 34.8218C45.3465 34.8487 45.3787 34.869 45.4133 34.8825C45.4479 34.8982 45.4871 34.9049 45.5286 34.9027ZM45.5286 34.253C45.63 34.253 45.7269 34.2912 45.8006 34.3609C45.8352 34.3946 45.8629 34.4328 45.8813 34.4778C45.9205 34.5677 45.9205 34.6711 45.8813 34.7633C45.8629 34.806 45.8352 34.8465 45.8006 34.8802C45.766 34.9139 45.7245 34.9409 45.6784 34.9589C45.6323 34.9791 45.5793 34.9881 45.5286 34.9881C45.4756 34.9881 45.4248 34.9791 45.3764 34.9589C45.3303 34.9409 45.2888 34.9139 45.2542 34.8802C45.2197 34.8465 45.192 34.8038 45.1735 34.7588C45.1343 34.6689 45.1343 34.5655 45.1735 34.4733C45.192 34.4306 45.2197 34.3901 45.2542 34.3564C45.2888 34.3227 45.3303 34.2957 45.3764 34.2777C45.4248 34.2575 45.4756 34.2485 45.5286 34.2485M10.2272 32.9401C10.2272 32.2927 10.6629 31.7577 11.3753 31.7577C12.0554 31.7577 12.5142 32.268 12.5142 32.9401C12.5142 33.6123 12.0554 34.1226 11.3753 34.1226C10.6629 34.1226 10.2272 33.5898 10.2272 32.9401ZM13.2888 32.9401V31.0945H12.4658V31.5441C12.2053 31.2114 11.8087 31.0023 11.2715 31.0023C10.211 31.0023 9.37874 31.8139 9.37874 32.9401C9.37874 34.0664 10.211 34.878 11.2715 34.878C11.8087 34.878 12.2053 34.6689 12.4658 34.3362V34.7835H13.2888V32.9401ZM41.0928 32.9401C41.0928 32.2927 41.5286 31.7577 42.241 31.7577C42.9234 31.7577 43.3799 32.268 43.3799 32.9401C43.3799 33.6123 42.9211 34.1226 42.241 34.1226C41.5286 34.1226 41.0928 33.5898 41.0928 32.9401ZM44.1568 32.9401V29.613H43.3338V31.5441C43.0732 31.2114 42.6767 31.0023 42.1395 31.0023C41.079 31.0023 40.2467 31.8139 40.2467 32.9401C40.2467 34.0664 41.079 34.878 42.1395 34.878C42.6767 34.878 43.0732 34.6689 43.3338 34.3362V34.7835H44.1568V32.9401ZM23.5021 31.7217C24.0323 31.7217 24.3735 32.0454 24.4589 32.6164H22.4946C22.5845 32.0836 22.9165 31.7217 23.5021 31.7217ZM23.5182 31.0023C22.4093 31.0023 21.6323 31.7891 21.6323 32.9401C21.6323 34.1136 22.4393 34.878 23.5712 34.878C24.1407 34.878 24.664 34.7386 25.1228 34.3609L24.7194 33.7674C24.4012 34.0147 23.9978 34.1541 23.6174 34.1541C23.0871 34.1541 22.6052 33.9136 22.4854 33.2504H25.2957C25.3027 33.1515 25.3119 33.0503 25.3119 32.9424C25.3073 31.7891 24.5764 31.0023 23.5182 31.0023ZM33.4525 32.9379C33.4525 32.2905 33.8882 31.7554 34.6006 31.7554C35.2808 31.7554 35.7395 32.2657 35.7395 32.9379C35.7395 33.6101 35.2808 34.1204 34.6006 34.1204C33.8882 34.1204 33.4525 33.5876 33.4525 32.9379ZM36.5165 32.9379V31.0945H35.6934V31.5441C35.4306 31.2114 35.0364 31.0023 34.4992 31.0023C33.4387 31.0023 32.6064 31.8139 32.6064 32.9401C32.6064 34.0664 33.4387 34.878 34.4992 34.878C35.0364 34.878 35.4329 34.6689 35.6934 34.3362V34.7835H36.5165V32.9379ZM28.8047 32.9379C28.8047 34.0574 29.6047 34.8757 30.8243 34.8757C31.3937 34.8757 31.7741 34.7521 32.1845 34.4351L31.7903 33.7877C31.4813 34.0035 31.1563 34.1204 30.7989 34.1204C30.1418 34.1136 29.66 33.6505 29.66 32.9379C29.66 32.2253 30.1418 31.7644 30.7989 31.7554C31.1563 31.7554 31.4813 31.8723 31.7903 32.0881L32.1845 31.4407C31.7741 31.1237 31.3937 31.0001 30.8243 31.0001C29.6047 31.0023 28.8047 31.8184 28.8047 32.9379ZM39.4122 31.0023C38.9372 31.0023 38.6283 31.2181 38.4139 31.5441V31.0945H37.5978V34.7835H38.4208V32.7153C38.4208 32.1039 38.6905 31.7667 39.2277 31.7667C39.4029 31.7644 39.5782 31.7959 39.7418 31.8588L39.9954 31.1035C39.8179 31.0316 39.5805 31.0023 39.4122 31.0023ZM17.358 31.389C16.9614 31.135 16.4174 31.0023 15.8156 31.0023C14.8565 31.0023 14.241 31.4497 14.241 32.1826C14.241 32.785 14.6998 33.156 15.5459 33.2706L15.9355 33.3246C16.3874 33.3875 16.5995 33.5022 16.5995 33.7112C16.5995 33.9967 16.2998 34.1586 15.7372 34.1586C15.1678 34.1586 14.7551 33.981 14.4785 33.7719L14.0911 34.3969C14.543 34.7206 15.1125 34.8757 15.7303 34.8757C16.8231 34.8757 17.4571 34.3744 17.4571 33.6708C17.4571 33.0233 16.9591 32.6839 16.1361 32.567L15.7488 32.513C15.3914 32.4681 15.1078 32.3984 15.1078 32.1511C15.1078 31.8813 15.3776 31.7195 15.8272 31.7195C16.3113 31.7195 16.777 31.8971 17.0076 32.0364L17.358 31.389ZM27.9747 31.0023C27.4998 31.0023 27.1908 31.2181 26.9787 31.5441V31.0945H26.1626V34.7835H26.9857V32.7153C26.9857 32.1039 27.2554 31.7667 27.7926 31.7667C27.9678 31.7644 28.143 31.7959 28.3067 31.8588L28.5603 31.1035C28.3782 31.0316 28.1407 31.0023 27.9747 31.0023ZM20.9522 31.0945H19.6058V29.975H18.7759V31.0945H18.0081V31.8274H18.7759V33.5112C18.7759 34.3677 19.1171 34.878 20.09 34.878C20.4473 34.878 20.8577 34.7701 21.1205 34.5925L20.8831 33.9046C20.6364 34.0439 20.3689 34.1136 20.1545 34.1136C19.7442 34.1136 19.6081 33.8663 19.6081 33.4954V31.8274H20.9545L20.9522 31.0945ZM8.65252 34.7858V32.4703C8.65252 31.5981 8.08306 31.0113 7.16318 31.0046C6.67903 30.9978 6.18105 31.144 5.83292 31.661C5.5724 31.2519 5.15972 31.0046 4.58335 31.0046C4.1799 31.0046 3.78336 31.1215 3.47442 31.5531V31.0945H2.65137V34.7835H3.48134V32.7378C3.48134 32.0971 3.8456 31.7577 4.40814 31.7577C4.95454 31.7577 5.23119 32.1039 5.23119 32.7311V34.7835H6.06347V32.7378C6.06347 32.0971 6.44387 31.7577 6.99027 31.7577C7.55281 31.7577 7.82024 32.1039 7.82024 32.7311V34.7835L8.65252 34.7858Z" fill="#858585"/>
<path d="M45.9322 22.5117V21.9722H45.7893L45.6233 22.3431L45.4573 21.9722H45.3121V22.5117H45.4135V22.1048L45.5703 22.4555H45.6763L45.8331 22.1048V22.5117H45.9322ZM45.0193 22.5117V22.0643H45.2037V21.9744H44.7334V22.0643H44.9178V22.5117H45.0193Z" fill="#858585"/>
<path d="M17.8765 13.9016C17.8765 9.46844 20.0045 5.52087 23.3197 2.97608C20.8114 1.04726 17.7082 -0.000331291 14.5128 0.0041648C6.64194 0.0041648 0.262695 6.22676 0.262695 13.9016C0.262695 21.5764 6.64194 27.799 14.5128 27.799C17.7082 27.8035 20.8114 26.7559 23.3197 24.8271C20.0045 22.2823 17.8765 18.3325 17.8765 13.9016Z" fill="#858585"/>
<path d="M46.3769 13.9013C46.3769 21.5762 39.9976 27.7988 32.1267 27.7988C28.9313 27.8033 25.8282 26.7557 23.3198 24.8269C26.6351 22.2821 28.763 18.3345 28.763 13.9013C28.763 9.4682 26.6351 5.52063 23.3198 2.97584C25.8282 1.04701 28.9337 -0.000575432 32.129 0.00392066C39.9976 0.00392066 46.3769 6.22652 46.3769 13.9013Z" fill="#858585"/>
</svg>
