<svg width="81" height="56" viewBox="0 0 81 56" fill="none" xmlns="http://www.w3.org/2000/svg">
<g clip-path="url(#clip0_891_2173)">
<path d="M17.6963 34.1228L18.1229 34.6793V38.2323H19.2321V34.1228H17.6963Z" fill="#858585"/>
<path d="M57.8418 34.1655L58.2684 34.722V38.275H59.335V34.1655H57.8418Z" fill="#858585"/>
<path d="M24.2661 34.1655L24.7354 34.7648V38.3178H25.802V34.1655H24.2661Z" fill="#858585"/>
<path d="M20.0425 35.2358L20.2558 34.1228H23.6688L23.8395 35.193L23.2422 34.5937H22.4316V38.2751H21.365V34.5509H20.7251L20.0425 35.2358Z" fill="#858585"/>
<mask id="mask0_891_2173" style="mask-type:luminance" maskUnits="userSpaceOnUse" x="0" y="0" width="81" height="56">
<path d="M80.4957 0.690186H0.673828V55.1839H80.4957V0.690186Z" fill="white"/>
</mask>
<g mask="url(#mask0_891_2173)">
<path d="M29.5992 35.2786L29.5139 34.294C28.874 34.2084 28.3194 33.9515 27.6794 34.2512C27.0821 34.508 26.4422 35.621 27.2955 36.2203C27.7221 36.5628 29.5566 37.2905 28.1914 37.8898C27.6368 37.9754 27.1248 37.847 26.8262 37.2049V37.8042C27.2528 38.061 27.6794 38.2751 28.1914 38.2751C29.3859 38.3607 29.9405 37.2905 29.5566 36.5628C29.13 36.0491 28.6607 35.8779 28.1061 35.4926C27.6794 35.2358 27.7648 34.508 28.1061 34.4224C28.4047 34.294 28.8313 34.4224 29.0873 34.6365L29.5992 35.2786Z" fill="#858585"/>
</g>
<mask id="mask1_891_2173" style="mask-type:luminance" maskUnits="userSpaceOnUse" x="0" y="0" width="81" height="56">
<path d="M80.4957 0.690186H0.673828V55.1839H80.4957V0.690186Z" fill="white"/>
</mask>
<g mask="url(#mask1_891_2173)">
<path d="M30.2817 34.0798L30.7937 34.6791V38.2321H31.9029V36.3486H33.4388V38.2321H34.6333V34.1226H33.4388V35.7065H31.9029V34.0798H30.2817Z" fill="#858585"/>
</g>
<mask id="mask2_891_2173" style="mask-type:luminance" maskUnits="userSpaceOnUse" x="0" y="0" width="81" height="56">
<path d="M80.4957 0.690186H0.673828V55.1839H80.4957V0.690186Z" fill="white"/>
</mask>
<g mask="url(#mask2_891_2173)">
<path d="M42.9526 38.2751L43.7206 34.8933L43.3793 34.2084H44.6591L45.5977 36.1348L46.707 34.1228H47.6882L48.3708 38.2751H47.2616L46.7496 35.2358L45.3417 37.9327L43.9339 35.2786L43.2939 38.2751H42.9526Z" fill="#858585"/>
</g>
<mask id="mask3_891_2173" style="mask-type:luminance" maskUnits="userSpaceOnUse" x="0" y="0" width="81" height="56">
<path d="M80.4957 0.690186H0.673828V55.1839H80.4957V0.690186Z" fill="white"/>
</mask>
<g mask="url(#mask3_891_2173)">
<path d="M48.9678 34.1228L49.3944 34.5937V38.2751H52.2101V37.4618L51.6982 37.8042H50.461V36.1776H51.8262V35.6639H50.461V34.5937H51.9542V34.1228H48.9678Z" fill="#858585"/>
</g>
<mask id="mask4_891_2173" style="mask-type:luminance" maskUnits="userSpaceOnUse" x="0" y="0" width="81" height="56">
<path d="M80.4957 0.690186H0.673828V55.1839H80.4957V0.690186Z" fill="white"/>
</mask>
<g mask="url(#mask4_891_2173)">
<path d="M63.8998 35.4069L63.8144 34.4224C61.9373 33.609 60.1454 34.6792 60.5294 36.8196C60.6574 37.5045 61.6813 38.3178 62.5772 38.275C63.1318 38.3178 63.4305 38.1466 63.8571 38.0182V37.2905C63.2598 37.7613 62.6625 38.1038 61.8519 37.2477C60.9987 36.1775 61.5533 34.508 63.1318 34.6364C63.4305 34.8076 63.6011 35.1073 63.8998 35.4069Z" fill="#858585"/>
</g>
<mask id="mask5_891_2173" style="mask-type:luminance" maskUnits="userSpaceOnUse" x="0" y="0" width="81" height="56">
<path d="M80.4957 0.690186H0.673828V55.1839H80.4957V0.690186Z" fill="white"/>
</mask>
<g mask="url(#mask5_891_2173)">
<path d="M69.105 34.1228L69.5316 34.8933V38.2751H70.0009V35.4926L72.39 38.2751H72.9873V34.1228H72.4753V36.8197L70.2142 34.1228H69.105Z" fill="#858585"/>
</g>
<mask id="mask6_891_2173" style="mask-type:luminance" maskUnits="userSpaceOnUse" x="0" y="0" width="81" height="56">
<path d="M80.4957 0.690186H0.673828V55.1839H80.4957V0.690186Z" fill="white"/>
</mask>
<g mask="url(#mask6_891_2173)">
<path d="M10.7849 33.4807C12.0648 33.6947 11.9795 35.193 10.8702 35.5783C12.4061 36.0492 12.4061 37.8471 10.6996 38.2751H8.18249V34.1228L7.75586 33.4807H10.7849ZM9.20639 33.8232V35.5355C10.0596 35.5355 10.5289 35.407 10.5716 34.6793C10.6569 34.08 10.145 33.6948 9.20639 33.8232ZM9.20639 35.9635V37.7614C10.2303 37.7614 10.7422 37.7614 10.7849 36.8197C10.8702 35.9635 10.2303 35.8351 9.20639 35.9635Z" fill="#858585"/>
</g>
<mask id="mask7_891_2173" style="mask-type:luminance" maskUnits="userSpaceOnUse" x="0" y="0" width="81" height="56">
<path d="M80.4957 0.690186H0.673828V55.1839H80.4957V0.690186Z" fill="white"/>
</mask>
<g mask="url(#mask7_891_2173)">
<path d="M15.1792 34.1655C16.7577 34.1655 16.6724 36.0062 15.3072 36.3059L17.3123 38.275H15.8618L14.07 36.5627V38.275H13.0461V34.722L12.6621 34.1655H15.1792ZM14.1126 34.3368V35.8778C14.8379 35.8778 15.2645 35.7494 15.3072 35.1073C15.3925 34.508 14.9659 34.294 14.1126 34.3368Z" fill="#858585"/>
</g>
<mask id="mask8_891_2173" style="mask-type:luminance" maskUnits="userSpaceOnUse" x="0" y="0" width="81" height="56">
<path d="M80.4957 0.690186H0.673828V55.1839H80.4957V0.690186Z" fill="white"/>
</mask>
<g mask="url(#mask8_891_2173)">
<path d="M55.3247 34.1655C56.8179 34.1655 56.7325 35.8778 55.4526 36.1775L57.6284 38.275H56.1352L54.2581 36.3915V38.275H53.3195V34.6792L52.9355 34.1655H55.3247ZM54.3008 34.508V36.0491C54.9834 36.0491 55.41 35.9634 55.4526 35.3213C55.4953 34.722 55.0687 34.3796 54.3008 34.508Z" fill="#858585"/>
</g>
<mask id="mask9_891_2173" style="mask-type:luminance" maskUnits="userSpaceOnUse" x="0" y="0" width="81" height="56">
<path d="M80.4957 0.690186H0.673828V55.1839H80.4957V0.690186Z" fill="white"/>
</mask>
<g mask="url(#mask9_891_2173)">
<path d="M37.5771 38.2751L39.5396 33.866L39.0703 33.2239H40.5209L42.654 38.2751H41.4595L40.7342 36.5629H38.985L38.2598 38.2751H37.5771ZM40.6062 36.2204L39.9236 34.2513L39.1557 36.2204H40.6062Z" fill="#858585"/>
</g>
<mask id="mask10_891_2173" style="mask-type:luminance" maskUnits="userSpaceOnUse" x="0" y="0" width="81" height="56">
<path d="M80.4957 0.690186H0.673828V55.1839H80.4957V0.690186Z" fill="white"/>
</mask>
<g mask="url(#mask10_891_2173)">
<path d="M64.4971 38.275L66.1182 34.6792L65.7343 34.1655H66.9288L68.6353 38.275H67.6541L67.0995 36.9052H65.6063L65.0517 38.275H64.4971ZM67.0568 36.5627L66.4595 34.9789L65.8196 36.5627H67.0568Z" fill="#858585"/>
</g>
<mask id="mask11_891_2173" style="mask-type:luminance" maskUnits="userSpaceOnUse" x="0" y="0" width="81" height="56">
<path d="M80.4957 0.690186H0.673828V55.1839H80.4957V0.690186Z" fill="white"/>
</mask>
<g mask="url(#mask11_891_2173)">
<path d="M24.3091 41.6568L24.5224 40.501H28.618L28.746 41.614L28.1914 41.0147H27.0395V45.2526H26.0156V40.9719H24.949L24.3091 41.6568Z" fill="#858585"/>
</g>
<mask id="mask12_891_2173" style="mask-type:luminance" maskUnits="userSpaceOnUse" x="0" y="0" width="81" height="56">
<path d="M80.4957 0.690186H0.673828V55.1839H80.4957V0.690186Z" fill="white"/>
</mask>
<g mask="url(#mask12_891_2173)">
<path d="M46.6644 42.4701L46.6217 41.4855C44.7446 40.6294 42.9527 41.7423 43.294 43.8827C43.4647 44.5676 44.4886 45.381 45.3845 45.2954C45.9391 45.3382 46.1951 45.2097 46.6217 45.0813V44.3536C46.0671 44.8245 45.4698 45.1669 44.6592 44.268C43.806 43.2406 44.3179 41.5283 45.9391 41.6995C46.2804 41.8708 46.4511 42.2132 46.6644 42.4701Z" fill="#858585"/>
</g>
<mask id="mask13_891_2173" style="mask-type:luminance" maskUnits="userSpaceOnUse" x="0" y="0" width="81" height="56">
<path d="M80.4957 0.690186H0.673828V55.1839H80.4957V0.690186Z" fill="white"/>
</mask>
<g mask="url(#mask13_891_2173)">
<path d="M50.973 42.5129L50.9303 41.4855C49.0531 40.6294 47.2613 41.7424 47.6026 43.8399C47.7733 44.5249 48.7545 45.3382 49.6931 45.2526C50.2904 45.2954 50.5037 45.167 50.9303 45.0385V44.3108C50.333 44.7817 49.7784 45.1242 48.9678 44.2252C48.0719 43.1978 48.6265 41.4855 50.2477 41.6568C50.5463 41.9136 50.717 42.2561 50.973 42.5129Z" fill="#858585"/>
</g>
<mask id="mask14_891_2173" style="mask-type:luminance" maskUnits="userSpaceOnUse" x="0" y="0" width="81" height="56">
<path d="M80.4957 0.690186H0.673828V55.1839H80.4957V0.690186Z" fill="white"/>
</mask>
<g mask="url(#mask14_891_2173)">
<path d="M36.7238 41.2715C37.961 41.4427 37.8757 42.6841 36.8091 42.9838C38.3023 43.369 38.2597 45.0385 36.6812 45.2098H34.2494V41.7852L33.8228 41.2715H36.7238ZM35.2733 41.5711V43.0266C36.0839 43.0266 36.5532 42.941 36.5958 42.3417C36.6385 41.7424 36.1692 41.4427 35.2733 41.5711ZM35.2733 43.3262V44.8673C36.2545 44.8673 36.7665 44.8673 36.7665 44.0968C36.8518 43.369 36.2119 43.2406 35.2733 43.3262Z" fill="#858585"/>
</g>
<mask id="mask15_891_2173" style="mask-type:luminance" maskUnits="userSpaceOnUse" x="0" y="0" width="81" height="56">
<path d="M80.4957 0.690186H0.673828V55.1839H80.4957V0.690186Z" fill="white"/>
</mask>
<g mask="url(#mask15_891_2173)">
<path d="M38.4731 45.2098L40.009 41.7424L39.625 41.2288H40.9049L42.5261 45.2527L41.5022 45.2098L41.0756 44.2253H39.4117L38.9424 45.2098H38.4731ZM40.9476 43.7544L40.3076 42.0421L39.625 43.7544H40.9476Z" fill="#858585"/>
</g>
<mask id="mask16_891_2173" style="mask-type:luminance" maskUnits="userSpaceOnUse" x="0" y="0" width="81" height="56">
<path d="M80.4957 0.690186H0.673828V55.1839H80.4957V0.690186Z" fill="white"/>
</mask>
<g mask="url(#mask16_891_2173)">
<path d="M31.0925 41.186C32.3297 41.186 33.3536 42.085 33.3536 43.198C33.3536 44.311 32.3297 45.2099 31.0925 45.2099C29.8553 45.2099 28.874 44.311 28.874 43.198C28.874 42.085 29.8553 41.186 31.0925 41.186ZM29.9406 43.2408C29.9406 44.2254 30.4525 44.9531 31.0925 44.9531C31.7324 44.9531 32.2444 44.1826 32.2444 43.2408C32.2444 42.299 31.7324 41.5713 31.0925 41.5713C30.4952 41.5713 29.9406 42.3418 29.9406 43.2408Z" fill="#858585"/>
</g>
<mask id="mask17_891_2173" style="mask-type:luminance" maskUnits="userSpaceOnUse" x="0" y="0" width="81" height="56">
<path d="M80.4957 0.690186H0.673828V55.1839H80.4957V0.690186Z" fill="white"/>
</mask>
<g mask="url(#mask17_891_2173)">
<path d="M54.2582 41.186C55.4954 41.186 56.4766 42.085 56.4766 43.198C56.4766 44.311 55.4954 45.2099 54.2582 45.2099C53.021 45.2099 51.9971 44.311 51.9971 43.198C51.9971 42.085 53.021 41.186 54.2582 41.186ZM53.1063 43.2408C53.1063 44.2254 53.6182 44.9531 54.2582 44.9531C54.8555 44.9531 55.4101 44.1826 55.4101 43.2408C55.4101 42.299 54.8981 41.5713 54.2582 41.5713C53.5756 41.5713 53.1063 42.3418 53.1063 43.2408Z" fill="#858585"/>
</g>
<mask id="mask18_891_2173" style="mask-type:luminance" maskUnits="userSpaceOnUse" x="0" y="0" width="81" height="56">
<path d="M80.4957 0.690186H0.673828V55.1839H80.4957V0.690186Z" fill="white"/>
</mask>
<g mask="url(#mask18_891_2173)">
<path d="M33.6521 30.4841C27.9779 30.4841 22.7304 24.8335 21.3652 18.4552C26.3994 18.1555 32.5855 20.0819 35.4866 22.9928C35.2733 17.9843 37.3637 12.719 40.3501 9.67969C44.0191 13.0187 45.3417 19.397 45.2563 22.9072C49.4373 19.7394 53.9168 18.5408 59.335 18.7548C57.8845 25.2616 52.8076 30.6553 46.8775 30.6125L51.3571 28.1725L45.6403 29.9276L53.9595 22.7359L44.0618 29.3711L46.4935 24.3198L42.6966 29.2426L43.5072 24.0201L41.0327 29.1142L40.5208 13.9604L39.6675 28.9858L37.2784 23.9345L38.2596 29.1142L34.3773 24.5338L36.6811 29.4139L26.6554 22.6075L35.1879 29.7563L29.6418 27.8728L33.6521 30.4841Z" fill="#858585"/>
</g>
</g>
<defs>
<clipPath id="clip0_891_2173">
<rect width="79.8218" height="54.4938" fill="white" transform="translate(0.673828 0.690186)"/>
</clipPath>
</defs>
</svg>
