<svg width="76" height="23" viewBox="0 0 76 23" fill="none" xmlns="http://www.w3.org/2000/svg">
<path d="M6.851 6.45886H0.787598V0.910645H19.5921V6.45886H13.5287V22.5685H6.851V6.45886Z" fill="#858585"/>
<path d="M20.6421 0.910645H38.9116V6.45886H27.3198V9.1537H38.9116V14.3056H27.3198V17.0005H38.9116V22.5487H20.6421V0.910645Z" fill="#858585"/>
<path d="M40.0215 0.910645H50.9792C58.1919 0.910645 60.748 6.26071 60.748 11.7098C60.748 18.3479 57.2209 22.5685 49.6714 22.5685H40.0215V0.910645ZM46.6992 17.0203H49.3147C53.4759 17.0203 54.0902 13.6517 54.0902 11.6108C54.0902 10.2435 53.6542 6.45886 48.8392 6.45886H46.719V17.0203H46.6992Z" fill="#858585"/>
<path d="M70.3382 14.2262L68.2972 10.8577L66.3157 14.2262H61.4214L66.0581 7.39004L61.5799 0.851074H66.4742L68.2774 4.08093L70.14 0.851074H75.0343L70.5561 7.39004L75.1928 14.2262H70.3382Z" fill="#858585"/>
</svg>
