<svg width="85" height="29" viewBox="0 0 85 29" fill="none" xmlns="http://www.w3.org/2000/svg">
<path d="M13.6303 12.8702L19.3356 1.81721C19.3979 1.60213 19.3601 1.36851 19.2319 1.18557C19.1672 1.09781 19.0866 1.02364 18.9938 0.966785C18.8973 0.916105 18.7911 0.885204 18.6825 0.879024H16.4738C16.3236 0.865427 16.1722 0.906217 16.0502 0.996451C15.9281 1.09039 15.8475 1.22883 15.8267 1.38334L9.94189 12.8913L17.4542 27.6427C17.4835 27.7885 17.569 27.9171 17.6923 28.0011C17.8132 28.0876 17.9609 28.1247 18.1086 28.1062H20.3222C20.4162 28.1074 20.509 28.0889 20.5956 28.0543C20.6799 28.016 20.7556 27.9616 20.8191 27.8948C20.9375 27.7626 21.0046 27.592 21.0059 27.414C20.9778 27.3089 13.6303 12.8702 13.6303 12.8702Z" fill="#858585"/>
<path d="M3.4084 12.959L0.59325 18.75C0.575688 18.8447 0.575688 18.9427 0.59325 19.0374C0.612878 19.1366 0.648003 19.2312 0.696558 19.3169C0.751311 19.3969 0.819494 19.4646 0.898009 19.5164C0.979622 19.5637 1.0695 19.5908 1.16144 19.5964H3.02926C3.15736 19.6111 3.28649 19.575 3.3929 19.4939C3.50137 19.4037 3.56956 19.2684 3.58196 19.1219L6.5376 12.9184L3.81027 7.26041C3.79064 7.13417 3.73278 7.01921 3.64601 6.93355C3.54373 6.85465 3.41873 6.82084 3.29373 6.83775H1.37839C1.29884 6.83662 1.22033 6.8524 1.14698 6.88509C1.0757 6.92115 1.01061 6.973 0.957928 7.03724C0.857719 7.15784 0.800899 7.31338 0.799866 7.47568C0.799866 7.56585 3.4084 12.959 3.4084 12.959Z" fill="#858585"/>
<path d="M9.9419 5.69894L8.00904 1.34924C7.94571 1.04905 7.69782 0.848505 7.42919 0.879645H5.4461C5.36202 0.880891 5.27794 0.900821 5.2004 0.938189C5.12615 0.978049 5.05953 1.03286 5.00275 1.09887C4.89136 1.23963 4.8313 1.42398 4.83567 1.61331C4.83567 1.67933 6.81985 6.06889 8.32136 9.38721L9.9419 5.69894Z" fill="#858585"/>
<path d="M8.28611 17.0469L4.84933 23.8593C4.83082 23.9584 4.83082 24.0598 4.84933 24.159C4.86892 24.2593 4.9092 24.3539 4.96472 24.4373C5.02242 24.5196 5.09753 24.5872 5.18354 24.6368C5.27063 24.6807 5.36534 24.7032 5.46113 24.7044H7.43698C7.57306 24.7168 7.70805 24.6762 7.81582 24.5917C7.92359 24.5083 7.99544 24.3844 8.01504 24.2458L9.9419 20.3438L8.28611 17.0469Z" fill="#858585"/>
<path d="M29.644 13.2277L32.9209 22.1505H31.6081C31.4502 22.1651 31.2912 22.1227 31.1603 22.0295C31.0224 21.946 30.9125 21.8214 30.8423 21.6714L28.6994 15.6357L26.3683 22.153H24.4581L27.7338 13.2302L24.4102 4.28076H25.6049C26.4467 4.28076 26.5355 4.82407 26.5355 4.82407L28.6737 10.8198L30.9838 4.28076H32.9151L29.644 13.2277Z" fill="#858585"/>
<path d="M45.687 6.05224V22.1528H43.9849V5.13135H44.8315C45.0632 5.13135 45.2849 5.22713 45.4486 5.39677C45.5277 5.48332 45.5901 5.58487 45.6324 5.69681C45.6692 5.81221 45.687 5.93222 45.687 6.05224Z" fill="#858585"/>
<path d="M56.7513 8.84807C56.7373 7.83442 57.1234 6.85432 57.8277 6.11723C58.518 5.33963 59.9664 5.13135 61.0158 5.13135C62.0653 5.13135 63.4669 5.3431 64.184 6.11723C64.8848 6.85664 65.2709 7.83442 65.2616 8.84807V18.4465C65.2686 19.459 64.8825 20.4368 64.184 21.1774C63.4938 21.9422 62.0383 22.1528 61.0158 22.1528C59.9933 22.1528 58.58 21.9422 57.8558 21.1774C57.1491 20.4414 56.7607 19.4613 56.7712 18.4465L56.7513 8.84807ZM58.4911 18.4465C58.4782 18.9858 58.6841 19.5065 59.0643 19.893C59.4504 20.2956 60.4437 20.3234 60.9971 20.3234C61.5505 20.3234 62.5426 20.3234 62.9217 19.893C63.3019 19.5065 63.5125 18.9858 63.5066 18.4465V8.84807C63.5172 8.30422 63.3089 7.77888 62.9263 7.38777C62.5473 6.99318 61.547 6.95731 61.0018 6.95731C60.4566 6.95731 59.4551 6.95731 59.069 7.38777C58.6888 7.77772 58.4817 8.3019 58.4911 8.84344V18.4465Z" fill="#858585"/>
<path d="M82.8603 17.4044V4.28076H84.8364V22.1303H83.463C83.2651 22.1473 83.0673 22.1049 82.8979 22.0093C82.722 21.921 82.5823 21.7806 82.5008 21.6099L77.4468 9.1156V22.1533H75.4746V4.30255H76.8959C77.1041 4.28439 77.3136 4.32917 77.4921 4.43083C77.6615 4.54701 77.7895 4.70918 77.8581 4.89435L82.8603 17.4044Z" fill="#858585"/>
</svg>
