<svg width="69" height="22" viewBox="0 0 69 22" fill="none" xmlns="http://www.w3.org/2000/svg">
<path d="M1.07521 1.40259L1.14187 20.4907H9.60821V13.7924L13.2081 13.8118V20.4907H21.7411V1.40259H13.2081V8.23636L9.60821 8.25572V1.40259L1.07521 1.40259Z" fill="#858585"/>
<path d="M26.8732 4.55737C25.6732 4.55737 24.8087 5.29404 24.8087 6.30072C24.8087 7.19124 25.1408 7.63538 26.2741 8.25485C27.474 8.89375 27.7418 9.06884 28.6751 9.669C29.3417 9.16563 29.6077 8.99221 30.341 8.62436C30.8076 8.35339 31.2078 8.17913 31.4078 8.06301C31.7411 7.86941 32.0074 7.65578 32.2073 7.42347C32.4073 7.11372 32.5415 6.70726 32.5415 6.30072C32.5415 5.27468 31.7416 4.55737 30.6083 4.55737C29.875 4.55737 29.4751 4.77156 28.6751 5.50721C28.0085 4.7522 27.6064 4.55737 26.8732 4.55737ZM24.4077 10.1142V20.4914H32.8732V10.1142H24.4077Z" fill="#858585"/>
<path d="M50.0068 1.38332H56.8066C64.6062 1.40268 67.4728 3.06757 67.4728 7.55889C67.4728 11.2371 64.3396 13.7151 59.6731 13.7151H58.6065V20.4714L50.0068 20.4908V1.38332ZM58.5399 5.85528C57.8732 5.25515 57.4732 5.06156 56.8066 5.06156C55.8066 5.06156 55.0067 5.75849 55.0067 6.66837C55.0067 7.61697 55.34 7.94608 57.0732 8.85596C57.5399 9.10762 57.8065 9.24314 57.8732 9.28186C58.0065 9.37865 58.2732 9.55289 58.5399 9.76584C59.2065 9.28186 59.4065 9.14634 60.8064 8.44942C61.8064 7.90736 62.1397 7.48146 62.1397 6.72645C62.1397 5.77786 61.3397 5.06157 60.3398 5.06157C59.7398 5.06157 59.4732 5.19708 58.5399 5.85528Z" fill="#858585"/>
<path d="M35.1407 1.38332H41.9404C49.6734 1.40268 52.6066 3.06757 52.6066 7.55889C52.6066 11.2371 49.4067 13.7151 44.8069 13.7151H43.6736V20.4714L35.1406 20.4908L35.1407 1.38332ZM43.607 5.91336C43.0071 5.23579 42.6071 5.0422 41.9404 5.0422C40.9405 5.0422 40.0738 5.77784 40.0738 6.62965C40.0738 7.34593 40.4072 7.90735 41.1405 8.29453L42.6737 9.14634L43.607 9.76583C44.4737 9.10762 44.8737 8.89467 45.6069 8.5462C46.8736 7.96543 47.2069 7.55889 47.2069 6.66836C47.2069 5.73912 46.4069 5.02284 45.3403 5.02284C44.7403 5.02284 44.2737 5.25515 43.607 5.91336Z" fill="#858585"/>
</svg>
