<svg width="106" height="20" viewBox="0 0 106 20" fill="none" xmlns="http://www.w3.org/2000/svg">
<path fill-rule="evenodd" clip-rule="evenodd" d="M105.059 14.0696L105.269 13.52H105.473V14.2681H105.34V13.6595H105.336L105.102 14.2681H105.012L104.777 13.6595H104.774V14.2681H104.641V13.52H104.845L105.059 14.0696ZM104.511 13.6291H104.28V14.2681H104.147V13.6291H103.917V13.52H104.51L104.511 13.6291ZM40.7244 4.09897H43.5498V5.06403C43.8532 4.79937 44.832 3.86174 46.6411 3.86174C48.7691 3.86174 50.4602 5.4336 50.4602 7.90018V14.3027H47.4744V8.69236C47.4744 7.3184 46.8056 6.50237 45.5914 6.50237C44.4141 6.50237 43.7066 7.27131 43.7066 8.69236V14.3027H40.7238L40.7244 4.09897ZM72.0848 9.20082C72.0848 7.7893 73.1398 6.63112 74.6044 6.63112C76.0701 6.63112 77.124 7.7893 77.124 9.20082C77.124 10.6111 76.0701 11.7705 74.6044 11.7705C73.1398 11.7705 72.0848 10.6117 72.0848 9.20082ZM69.1407 9.20082C69.1407 12.1443 71.4994 14.5345 74.5847 14.5345C77.6724 14.5345 80.0299 12.1437 80.0299 9.20082C80.0299 6.25798 77.6724 3.86174 74.5847 3.86174C71.4994 3.86174 69.1407 6.25798 69.1407 9.20082ZM31.1144 9.20142C31.1144 7.7905 32.1689 6.63172 33.6329 6.63172C35.0986 6.63172 36.1525 7.7899 36.1525 9.20142C36.1525 10.6117 35.0986 11.7717 33.6329 11.7717C32.1689 11.7723 31.1144 10.6123 31.1144 9.20142ZM28.1692 9.20201C28.1692 12.1455 30.5279 14.5357 33.6144 14.5357C36.7009 14.5357 39.059 12.1449 39.059 9.20201C39.059 6.25917 36.7009 3.86233 33.6144 3.86233C30.5279 3.86233 28.1692 6.25917 28.1692 9.20201ZM94.4997 4.09897H97.5242V14.3033H94.4997V4.09897ZM94.4997 0.371094H97.5242V2.96702H94.4997V0.371094ZM99.8561 0.371094H102.881V14.3033H99.8561V0.371094ZM89.6763 9.19545C89.6763 10.6344 88.5711 11.752 87.128 11.752C85.667 11.752 84.569 10.638 84.569 9.20261C84.569 7.74937 85.6807 6.64781 87.1304 6.64781C88.5878 6.64781 89.6763 7.7595 89.6763 9.19545ZM84.6459 14.3033L84.6775 13.5182C84.8885 13.678 85.822 14.5369 87.7801 14.5369C90.3528 14.5369 92.7383 12.2325 92.7383 9.20261C92.7383 6.16737 90.4982 3.86293 87.8135 3.86293C85.7612 3.86293 84.8206 4.80354 84.6769 4.90845V0.37169H81.777V14.3039L84.6459 14.3033Z" fill="#858585"/>
<path fill-rule="evenodd" clip-rule="evenodd" d="M10.5819 14.3033L15.3392 8.34902L11.1297 4.09897H15.3088L17.1746 6.02312L20.6092 1.602H24.1123L19.0814 7.93832L21.0401 9.90539L25.5626 4.09897H29.0747L22.9548 11.8313L30.7253 19.6447H26.4883L21.0813 14.1423L18.2082 17.8654H14.6973L19.1846 12.2474L17.2235 10.263L14.0803 14.3033H10.5819ZM0.712646 0.371094H9.8881V2.96762H3.83372V5.85562H9.61569V8.37525H3.83372V11.7032H9.8881V14.3033H0.712646V0.371094ZM52.8475 0.371094H57.7801L60.109 10.5408H60.2133L62.6012 0.371094H67.3943V14.3033H64.4592V3.78424H64.3257L61.7399 14.3033H58.4429L55.9162 3.78424H55.7838V14.3033H52.8475V0.371094Z" fill="#858585"/>
</svg>
