<svg width="106" height="22" viewBox="0 0 106 22" fill="none" xmlns="http://www.w3.org/2000/svg">
<path d="M0.546875 21.0336H9.65767C15.46 21.0336 19.6081 17.2112 19.6081 11.1815C19.6081 3.72537 14.5146 0.737793 7.87227 0.737793H0.546875V21.0336Z" fill="#858585"/>
<path d="M13.4216 15.4669C15.8406 12.7985 16.5236 9.73782 16.7941 7.22316C16.9538 5.73775 17.0177 4.56063 17.0431 3.8416C16.7894 3.58163 16.5208 3.33909 16.2361 3.11391C15.6602 3.15644 14.8674 3.22792 14.1318 3.34582C11.5051 3.76719 7.01745 4.70946 4.54204 8.13161C1.99429 11.6543 2.85951 16.1656 4.0028 17.7843C4.0028 17.7843 3.17422 19.8458 2.85669 21.0393H4.68389C5.039 19.84 5.50026 18.7808 5.50026 18.7808C7.81314 19.0456 10.7977 18.3604 13.4216 15.4669Z" fill="#ECECEC"/>
<path d="M6.59879 8.66991C3.64779 12.3837 5.0033 15.7001 5.02299 15.6615C6.87439 12.0162 10.3832 7.59177 14.116 5.04007C14.116 5.04007 9.20388 5.39108 6.59879 8.66991Z" fill="#858585"/>
<path d="M6.53891 16.6492C6.51922 16.6878 9.82269 16.8806 12.5506 13.2489C14.762 10.3047 15.0076 5.89948 15.0076 5.89948C13.5761 6.97474 9.26024 11.3838 6.53891 16.6492Z" fill="#858585"/>
<path d="M30.3341 12.7909C30.3341 13.9872 30.3341 14.9725 30.2734 15.4967C30.2249 15.8581 30.1636 16.132 29.921 16.1826C29.8118 16.2063 29.665 16.2312 29.5558 16.2312C29.483 16.2312 29.4587 16.2693 29.4587 16.3067C29.4587 16.3816 29.5194 16.4066 29.6528 16.4066C30.018 16.4066 30.7835 16.3685 30.8448 16.3685C30.9661 16.3685 32.4984 16.5183 33.5436 16.5183C35.6104 16.5183 36.7047 15.6459 37.2276 15.0848C37.9088 14.3503 38.5409 13.1409 38.5409 11.5696C38.5409 10.0862 37.9689 9.0522 37.3616 8.40382C35.9149 6.87116 33.6898 6.98288 32.4857 6.98288C31.7566 6.98288 30.9904 7.02093 30.8448 7.02093C30.7835 7.02093 30.018 6.98288 29.4708 6.98288C29.3368 6.98288 29.2761 7.00783 29.2761 7.08271C29.2761 7.13264 29.3247 7.15699 29.3732 7.15699C29.4824 7.15699 29.6898 7.16884 29.7869 7.19443C30.1885 7.28179 30.2855 7.48151 30.3098 7.90524C30.3341 8.304 30.3341 8.65282 30.3341 10.5973V12.7909ZM31.3556 10.3976C31.3556 9.43787 31.3556 8.16671 31.3677 7.74298C31.3677 7.60631 31.4041 7.54388 31.5139 7.49396C31.611 7.44403 32.0611 7.40662 32.3037 7.40662C33.7505 7.40662 35.1366 7.5807 36.2794 8.81506C36.7775 9.35112 37.4466 10.3733 37.4466 11.9565C37.4466 13.1035 37.1063 14.2998 36.4742 14.9357C35.7565 15.6709 34.7114 16.0946 33.5806 16.0946C32.1454 16.0946 31.6716 15.8325 31.5139 15.596C31.4162 15.4593 31.392 14.9607 31.3799 14.6493C31.3677 14.4115 31.3556 13.2658 31.3556 11.9434V10.3976Z" fill="#858585" stroke="#858585" stroke-width="0.550189"/>
<path d="M46.9662 12.7908C46.9662 13.9871 46.9661 14.9725 46.9055 15.4967C46.8564 15.858 46.7957 16.132 46.5524 16.1825C46.4432 16.2062 46.2977 16.2312 46.1879 16.2312C46.1151 16.2312 46.0908 16.2693 46.0908 16.3067C46.0908 16.3816 46.1515 16.4066 46.2849 16.4066C46.6501 16.4066 47.4163 16.3685 47.4769 16.3685C47.83 16.3685 48.644 16.4434 50.4802 16.4434C50.954 16.4434 51.0523 16.4434 51.1366 16.1195C51.1979 15.858 51.2949 15.0106 51.2949 14.9101C51.2949 14.8234 51.2949 14.7235 51.2221 14.7235C51.1615 14.7235 51.1366 14.7734 51.1129 14.9101C51.0274 15.4218 50.8818 15.6708 50.5658 15.8081C50.2491 15.9448 49.7147 15.9448 49.3987 15.9448C48.2073 15.9448 48.0247 15.7825 47.9883 14.9226C47.9768 14.6617 47.9883 13.2158 47.9883 12.7908V11.695C47.9883 11.6445 48.0132 11.607 48.0732 11.607C48.2801 11.607 49.4836 11.6326 49.8124 11.6694C50.2861 11.7194 50.3959 11.9309 50.4451 12.1056C50.4936 12.2673 50.4936 12.3921 50.4936 12.5169C50.4936 12.5787 50.5173 12.6286 50.5785 12.6286C50.6634 12.6286 50.6634 12.4919 50.6634 12.3921C50.6634 12.3047 50.6877 11.8442 50.7126 11.5952C50.749 11.1839 50.8096 10.9717 50.8096 10.8968C50.8096 10.8226 50.786 10.797 50.749 10.797C50.7004 10.797 50.6519 10.8594 50.567 10.9593C50.4578 11.0835 50.2873 11.109 49.995 11.134C49.7153 11.1583 48.22 11.1583 48.0617 11.1583C48.001 11.1583 47.9883 11.1209 47.9883 11.0342V7.59318C47.9883 7.50582 48.0132 7.46837 48.0617 7.46837C48.1958 7.46837 49.5206 7.48146 49.7274 7.50642C50.3844 7.58068 50.5057 7.73048 50.5906 7.92955C50.6513 8.07932 50.6634 8.2921 50.6634 8.37884C50.6634 8.47869 50.6877 8.54045 50.7611 8.54045C50.8096 8.54045 50.8345 8.46619 50.846 8.40379C50.8703 8.25402 50.8946 7.7055 50.9073 7.58069C50.9437 7.23185 51.0044 7.08209 51.0044 6.99534C51.0044 6.93294 50.9922 6.88302 50.9558 6.88302C50.8952 6.88302 50.8466 6.93293 50.786 6.94541C50.6883 6.96975 50.4942 6.99532 50.2631 7.0078C49.9834 7.02028 47.5643 7.02029 47.4787 7.02029C47.4181 7.02029 46.6519 6.98285 46.1048 6.98285C45.9707 6.98285 45.9106 7.0078 45.9106 7.08268C45.9106 7.13261 45.9592 7.1576 46.0077 7.1576C46.1169 7.1576 46.3237 7.16946 46.4208 7.19504C46.8224 7.28241 46.9194 7.48209 46.9437 7.90582C46.968 8.30458 46.968 8.6534 46.968 10.5979V12.7908" fill="#858585"/>
<path d="M46.9662 12.7908C46.9662 13.9871 46.9661 14.9725 46.9055 15.4967C46.8564 15.858 46.7957 16.132 46.5524 16.1825C46.4432 16.2062 46.2977 16.2312 46.1879 16.2312C46.1151 16.2312 46.0908 16.2693 46.0908 16.3067C46.0908 16.3816 46.1515 16.4066 46.2849 16.4066C46.6501 16.4066 47.4163 16.3685 47.4769 16.3685C47.83 16.3685 48.644 16.4434 50.4802 16.4434C50.954 16.4434 51.0523 16.4434 51.1366 16.1195C51.1979 15.858 51.2949 15.0106 51.2949 14.9101C51.2949 14.8234 51.2949 14.7235 51.2221 14.7235C51.1615 14.7235 51.1366 14.7734 51.1129 14.9101C51.0274 15.4218 50.8818 15.6708 50.5658 15.8081C50.2491 15.9448 49.7147 15.9448 49.3987 15.9448C48.2073 15.9448 48.0247 15.7825 47.9883 14.9226C47.9768 14.6617 47.9883 13.2158 47.9883 12.7908V11.695C47.9883 11.6445 48.0132 11.607 48.0732 11.607C48.2801 11.607 49.4836 11.6326 49.8124 11.6694C50.2861 11.7194 50.3959 11.9309 50.4451 12.1056C50.4936 12.2673 50.4936 12.3921 50.4936 12.5169C50.4936 12.5787 50.5173 12.6286 50.5785 12.6286C50.6634 12.6286 50.6634 12.4919 50.6634 12.3921C50.6634 12.3047 50.6877 11.8442 50.7126 11.5952C50.749 11.1839 50.8096 10.9717 50.8096 10.8968C50.8096 10.8226 50.786 10.797 50.749 10.797C50.7004 10.797 50.6519 10.8594 50.567 10.9593C50.4578 11.0835 50.2873 11.109 49.995 11.134C49.7153 11.1583 48.22 11.1583 48.0617 11.1583C48.001 11.1583 47.9883 11.1209 47.9883 11.0342V7.59318C47.9883 7.50582 48.0132 7.46837 48.0617 7.46837C48.1958 7.46837 49.5206 7.48146 49.7274 7.50642C50.3844 7.58068 50.5057 7.73048 50.5906 7.92955C50.6513 8.07932 50.6634 8.2921 50.6634 8.37884C50.6634 8.47869 50.6877 8.54045 50.7611 8.54045C50.8096 8.54045 50.8345 8.46619 50.846 8.40379C50.8703 8.25402 50.8946 7.7055 50.9073 7.58069C50.9437 7.23185 51.0044 7.08209 51.0044 6.99534C51.0044 6.93294 50.9922 6.88302 50.9558 6.88302C50.8952 6.88302 50.8466 6.93293 50.786 6.94541C50.6883 6.96975 50.4942 6.99532 50.2631 7.0078C49.9834 7.02028 47.5643 7.02029 47.4787 7.02029C47.4181 7.02029 46.6519 6.98285 46.1048 6.98285C45.9707 6.98285 45.9106 7.0078 45.9106 7.08268C45.9106 7.13261 45.9592 7.1576 46.0077 7.1576C46.1169 7.1576 46.3237 7.16946 46.4208 7.19504C46.8224 7.28241 46.9194 7.48209 46.9437 7.90582C46.968 8.30458 46.968 8.6534 46.968 10.5979V12.7908" stroke="#858585" stroke-width="0.550189"/>
<path d="M62.0961 7.51896L63.6254 7.54391C64.79 7.56887 65.0697 7.85532 65.1176 8.22913L65.1297 8.3664C65.1425 8.54113 65.1674 8.57794 65.2292 8.57794C65.279 8.57794 65.3166 8.52805 65.3166 8.41572C65.3166 8.27843 65.3542 7.41849 65.3542 7.04468C65.3542 6.97042 65.3542 6.89492 65.2923 6.89492C65.1922 6.89492 64.8634 7.02034 64.0864 7.02034H59.5307C59.3845 7.02034 58.9229 6.9954 58.5699 6.95796C58.2417 6.93237 58.1204 6.8088 58.0354 6.8088C57.9863 6.8088 57.9378 6.97042 57.9135 7.04468C57.8899 7.14453 57.646 8.21664 57.646 8.34145C57.646 8.41571 57.6709 8.45377 57.7073 8.45377C57.7558 8.45377 57.7922 8.42883 57.8286 8.32961C57.865 8.24224 57.902 8.15424 58.036 7.94331C58.2308 7.64377 58.5219 7.55639 59.276 7.54391L61.0758 7.51957V12.7915C61.0758 13.9878 61.0758 14.9732 61.0145 15.4974C60.966 15.8587 60.9047 16.132 60.6621 16.1826C60.5529 16.2069 60.4067 16.2319 60.2975 16.2319C60.2247 16.2319 60.2004 16.27 60.2004 16.3074C60.2004 16.3823 60.2611 16.4072 60.3952 16.4072C60.7597 16.4072 61.5259 16.3692 61.5865 16.3692C61.6472 16.3692 62.414 16.4072 63.0824 16.4072C63.2159 16.4072 63.2766 16.3692 63.2766 16.3074C63.2766 16.2706 63.2529 16.2319 63.1795 16.2319C63.0703 16.2319 62.8028 16.2069 62.6323 16.1826C62.2678 16.132 62.1944 15.8587 62.158 15.4974C62.0973 14.9738 62.0973 13.9884 62.0973 12.7915V7.51896" fill="#858585"/>
<path d="M62.0961 7.51896L63.6254 7.54391C64.79 7.56887 65.0697 7.85532 65.1176 8.22913L65.1297 8.3664C65.1425 8.54113 65.1674 8.57794 65.2292 8.57794C65.279 8.57794 65.3166 8.52805 65.3166 8.41572C65.3166 8.27843 65.3542 7.41849 65.3542 7.04468C65.3542 6.97042 65.3542 6.89492 65.2923 6.89492C65.1922 6.89492 64.8634 7.02034 64.0864 7.02034H59.5307C59.3845 7.02034 58.9229 6.9954 58.5699 6.95796C58.2417 6.93237 58.1204 6.8088 58.0354 6.8088C57.9863 6.8088 57.9378 6.97042 57.9135 7.04468C57.8899 7.14453 57.646 8.21664 57.646 8.34145C57.646 8.41571 57.6709 8.45377 57.7073 8.45377C57.7558 8.45377 57.7922 8.42883 57.8286 8.32961C57.865 8.24224 57.902 8.15424 58.036 7.94331C58.2308 7.64377 58.5219 7.55639 59.276 7.54391L61.0758 7.51957V12.7915C61.0758 13.9878 61.0758 14.9732 61.0145 15.4974C60.966 15.8587 60.9047 16.132 60.6621 16.1826C60.5529 16.2069 60.4067 16.2319 60.2975 16.2319C60.2247 16.2319 60.2004 16.27 60.2004 16.3074C60.2004 16.3823 60.2611 16.4072 60.3952 16.4072C60.7597 16.4072 61.5259 16.3692 61.5865 16.3692C61.6472 16.3692 62.414 16.4072 63.0824 16.4072C63.2159 16.4072 63.2766 16.3692 63.2766 16.3074C63.2766 16.2706 63.2529 16.2319 63.1795 16.2319C63.0703 16.2319 62.8028 16.2069 62.6323 16.1826C62.2678 16.132 62.1944 15.8587 62.158 15.4974C62.0973 14.9738 62.0973 13.9884 62.0973 12.7915V7.51896" stroke="#858585" stroke-width="0.550189"/>
<path d="M73.0484 12.791C73.0484 13.9873 73.0484 14.9727 72.9877 15.4969C72.9386 15.8582 72.8786 16.1322 72.6347 16.1827C72.5255 16.2064 72.3799 16.2314 72.2695 16.2314C72.1973 16.2314 72.1725 16.2694 72.1725 16.3069C72.1725 16.3818 72.2331 16.4067 72.3666 16.4067C72.7318 16.4067 73.4979 16.3686 73.51 16.3686C73.5701 16.3686 74.3362 16.4067 75.0047 16.4067C75.1388 16.4067 75.1988 16.3687 75.1988 16.3069C75.1988 16.2701 75.1752 16.2314 75.1018 16.2314C74.9926 16.2314 74.7245 16.2064 74.554 16.1827C74.1894 16.1322 74.1166 15.8582 74.0802 15.4969C74.0196 14.9733 74.0196 13.9879 74.0196 12.791V12.4921C74.0196 12.4303 74.0432 12.3922 74.1051 12.3922L75.6004 12.4178C75.6732 12.4178 75.7096 12.4422 75.7581 12.4921C76.0014 12.8166 76.5728 13.6516 77.0836 14.3374C77.7763 15.2722 78.2022 15.8832 78.7251 16.1696C79.0417 16.3437 79.345 16.4061 80.0256 16.4061H80.8895C81.1078 16.4061 81.1812 16.3811 81.1812 16.3063C81.1812 16.2694 81.1315 16.2307 81.0714 16.2307C80.998 16.2307 80.8276 16.2307 80.5971 16.1933C80.2932 16.1434 79.7703 16.0067 79.1139 15.2959C78.4084 14.5234 77.5822 13.4138 76.5849 12.1052C77.6787 11.0705 78.056 10.1482 78.056 9.22584C78.056 8.3659 77.5203 7.75496 77.2164 7.53093C76.5722 7.05728 75.7575 6.98177 74.992 6.98177C74.6153 6.98177 73.6908 7.01986 73.5574 7.01986C73.4967 7.01986 72.7305 6.98177 72.1834 6.98177C72.0493 6.98177 71.9893 7.00675 71.9893 7.08164C71.9893 7.13156 72.0378 7.15587 72.0863 7.15587C72.1955 7.15587 72.4024 7.16773 72.4994 7.19331C72.901 7.28068 72.9981 7.4804 73.0229 7.90412C73.0466 8.30289 73.0466 8.65171 73.0466 10.5962V12.791H73.0484ZM74.0214 7.60646C74.0214 7.5322 74.0584 7.48224 74.1185 7.45666C74.2398 7.41921 74.568 7.38177 74.9331 7.38177C76.2337 7.38177 77.0363 8.31659 77.0363 9.87483C77.0363 10.8221 76.7202 11.4942 76.295 11.7938C76.0153 11.9941 75.675 12.0303 75.3826 12.0303C74.8482 12.0303 74.2889 11.9429 74.1063 11.8312C74.0451 11.7932 74.0208 11.7439 74.0208 11.6815V7.60646" fill="#858585"/>
<path d="M74.0214 7.60646C74.0214 7.5322 74.0584 7.48224 74.1185 7.45666C74.2398 7.41921 74.568 7.38178 74.9331 7.38178C76.2337 7.38178 77.0363 8.31659 77.0363 9.87483C77.0363 10.8221 76.7202 11.4942 76.295 11.7938C76.0153 11.9941 75.675 12.0303 75.3826 12.0303C74.8482 12.0303 74.2889 11.9429 74.1063 11.8312C74.0451 11.7932 74.0208 11.7439 74.0208 11.6815V7.60646M73.0484 12.791C73.0484 13.9873 73.0484 14.9727 72.9877 15.4969C72.9386 15.8582 72.8786 16.1322 72.6347 16.1827C72.5255 16.2064 72.3799 16.2314 72.2695 16.2314C72.1973 16.2314 72.1725 16.2694 72.1725 16.3069C72.1725 16.3818 72.2331 16.4067 72.3666 16.4067C72.7318 16.4067 73.4979 16.3686 73.51 16.3686C73.5701 16.3686 74.3362 16.4067 75.0047 16.4067C75.1388 16.4067 75.1988 16.3687 75.1988 16.3069C75.1988 16.2701 75.1752 16.2314 75.1018 16.2314C74.9926 16.2314 74.7245 16.2064 74.554 16.1827C74.1894 16.1322 74.1166 15.8582 74.0802 15.4969C74.0196 14.9733 74.0196 13.9879 74.0196 12.791V12.4921C74.0196 12.4303 74.0432 12.3922 74.1051 12.3922L75.6004 12.4178C75.6732 12.4178 75.7096 12.4422 75.7581 12.4921C76.0014 12.8166 76.5728 13.6516 77.0836 14.3374C77.7763 15.2722 78.2022 15.8832 78.7251 16.1696C79.0417 16.3437 79.345 16.4061 80.0256 16.4061H80.8895C81.1078 16.4061 81.1812 16.3811 81.1812 16.3063C81.1812 16.2694 81.1315 16.2307 81.0714 16.2307C80.998 16.2307 80.8276 16.2307 80.5971 16.1933C80.2932 16.1434 79.7703 16.0067 79.1139 15.2959C78.4084 14.5234 77.5822 13.4138 76.5849 12.1052C77.6787 11.0705 78.056 10.1482 78.056 9.22584C78.056 8.3659 77.5203 7.75496 77.2164 7.53093C76.5722 7.05728 75.7575 6.98177 74.992 6.98177C74.6153 6.98177 73.6908 7.01986 73.5574 7.01986C73.4967 7.01986 72.7305 6.98177 72.1834 6.98177C72.0493 6.98177 71.9893 7.00675 71.9893 7.08164C71.9893 7.13156 72.0378 7.15587 72.0863 7.15587C72.1955 7.15587 72.4024 7.16773 72.4994 7.19331C72.901 7.28068 72.9981 7.4804 73.0229 7.90412C73.0466 8.30289 73.0466 8.65171 73.0466 10.5962V12.791H73.0484Z" stroke="#858585" stroke-width="0.550189"/>
<path d="M88.3776 10.5974C88.3776 8.65347 88.3776 8.30402 88.4025 7.90526C88.4267 7.46905 88.5244 7.25688 88.8526 7.1951C88.9982 7.17013 89.071 7.15765 89.1565 7.15765C89.205 7.15765 89.2536 7.1333 89.2536 7.08338C89.2536 7.0085 89.1923 6.98351 89.0588 6.98351C88.6943 6.98351 87.9293 7.0216 87.8681 7.0216C87.8068 7.0216 87.0419 6.98351 86.6397 6.98351C86.5062 6.98351 86.4456 7.0085 86.4456 7.08338C86.4456 7.1333 86.4941 7.15765 86.542 7.15765C86.6269 7.15765 86.7847 7.17011 86.9187 7.20755C87.1874 7.26995 87.3082 7.48214 87.3324 7.90587C87.3561 8.30463 87.3561 8.65408 87.3561 10.598V12.7915C87.3561 13.9878 87.3561 14.9732 87.2954 15.4974C87.2475 15.8587 87.1868 16.1326 86.943 16.1832C86.8332 16.2069 86.687 16.2319 86.5784 16.2319C86.5056 16.2319 86.4807 16.27 86.4807 16.3074C86.4807 16.3823 86.5414 16.4072 86.6748 16.4072C87.0412 16.4072 87.8062 16.3692 87.8668 16.3692C87.9281 16.3692 88.693 16.4072 89.3621 16.4072C89.4962 16.4072 89.5569 16.3692 89.5569 16.3074C89.5569 16.2706 89.5326 16.2319 89.4598 16.2319C89.3506 16.2319 89.0831 16.2069 88.912 16.1832C88.5475 16.1326 88.4747 15.8587 88.4383 15.4974C88.377 14.9738 88.377 13.9884 88.377 12.7915V10.5974" fill="#858585"/>
<path d="M88.3776 10.5974C88.3776 8.65347 88.3776 8.30402 88.4025 7.90526C88.4267 7.46905 88.5244 7.25688 88.8526 7.1951C88.9982 7.17013 89.071 7.15765 89.1565 7.15765C89.205 7.15765 89.2536 7.1333 89.2536 7.08338C89.2536 7.0085 89.1923 6.98351 89.0588 6.98351C88.6943 6.98351 87.9293 7.0216 87.8681 7.0216C87.8068 7.0216 87.0419 6.98351 86.6397 6.98351C86.5062 6.98351 86.4456 7.0085 86.4456 7.08338C86.4456 7.1333 86.4941 7.15765 86.542 7.15765C86.6269 7.15765 86.7847 7.17011 86.9187 7.20755C87.1874 7.26995 87.3082 7.48214 87.3324 7.90587C87.3561 8.30463 87.3561 8.65408 87.3561 10.598V12.7915C87.3561 13.9878 87.3561 14.9732 87.2954 15.4974C87.2475 15.8587 87.1868 16.1326 86.943 16.1832C86.8332 16.2069 86.687 16.2319 86.5784 16.2319C86.5056 16.2319 86.4807 16.27 86.4807 16.3074C86.4807 16.3823 86.5414 16.4072 86.6748 16.4072C87.0412 16.4072 87.8062 16.3692 87.8668 16.3692C87.9281 16.3692 88.693 16.4072 89.3621 16.4072C89.4962 16.4072 89.5569 16.3692 89.5569 16.3074C89.5569 16.2706 89.5326 16.2319 89.4598 16.2319C89.3506 16.2319 89.0831 16.2069 88.912 16.1832C88.5475 16.1326 88.4747 15.8587 88.4383 15.4974C88.377 14.9738 88.377 13.9884 88.377 12.7915V10.5974" stroke="#858585" stroke-width="0.550189"/>
<path d="M97.2849 15.0357C97.0665 15.6591 96.8233 16.1322 96.264 16.2064C96.1663 16.2189 95.9965 16.232 95.911 16.232C95.8509 16.232 95.8018 16.2569 95.8018 16.3069C95.8018 16.3818 95.8745 16.4067 96.0329 16.4067C96.6043 16.4067 97.2728 16.3686 97.4068 16.3686C97.5409 16.3686 98.0638 16.4067 98.3556 16.4067C98.4642 16.4067 98.5376 16.3818 98.5376 16.3069C98.5376 16.2569 98.5018 16.232 98.4169 16.232H98.2949C98.0875 16.232 97.8333 16.1197 97.8333 15.8707C97.8333 15.646 97.894 15.3471 98.0031 15.0351L98.7329 12.8291C98.7566 12.7667 98.7936 12.7286 98.8548 12.7286H101.468C101.529 12.7286 101.553 12.7542 101.577 12.8041L102.709 15.8707C102.782 16.0697 102.709 16.1827 102.636 16.2064C102.587 16.2189 102.55 16.2445 102.55 16.2944C102.55 16.3687 102.684 16.3686 102.915 16.3818C103.754 16.4067 104.642 16.4067 104.824 16.4067C104.957 16.4067 105.068 16.3818 105.068 16.3069C105.068 16.2451 105.019 16.232 104.946 16.232C104.824 16.232 104.642 16.2195 104.459 16.1571C104.205 16.0822 103.851 15.8838 103.414 14.7736C102.671 12.879 100.763 7.73126 100.581 7.25761C100.436 6.87132 100.387 6.80892 100.314 6.80892C100.24 6.80892 100.192 6.8838 100.046 7.29505L97.2849 15.0357ZM98.9877 12.2806C98.9513 12.2806 98.9264 12.2556 98.9513 12.1932L100.021 8.8277C100.081 8.64049 100.143 8.64049 100.204 8.8277L101.358 12.1932C101.37 12.2431 101.37 12.2806 101.31 12.2806H98.9877Z" fill="#858585" stroke="#858585" stroke-width="0.550189"/>
</svg>
