<svg width="97" height="18" viewBox="0 0 97 18" fill="none" xmlns="http://www.w3.org/2000/svg">
<path fill-rule="evenodd" clip-rule="evenodd" d="M24.0992 17.3015L18.8196 0.571143L5.77219 0.558061L0.494141 17.3015L8.9465 17.3277L9.68273 15.1388H14.9111L15.6474 17.3277L24.0992 17.3015ZM12.2969 4.402C12.1136 5.23057 11.9606 6.09472 11.7128 6.90392C11.3405 8.1198 10.9176 9.31895 10.5162 10.5265H14.0735C13.6757 9.31842 13.2523 8.1198 12.8806 6.90392C12.6328 6.0942 12.4802 5.23057 12.2969 4.402ZM29.4781 4.31093H31.416C32.636 4.31093 33.0108 4.78043 33.0216 5.51007C33.0313 6.18161 32.5065 6.81284 31.3812 6.81284H29.4781V4.31093ZM33.8116 0.558061H23.2073V13.0666H29.4525V10.3569H32.7666C35.8303 10.3569 39.1756 9.15407 39.1905 5.09238C39.2017 2.05764 37.2081 0.558061 33.8116 0.558061ZM45.6824 4.31093H47.6208C48.8409 4.31093 49.2162 4.78043 49.2259 5.51007C49.2351 6.18161 48.7108 6.81284 47.5855 6.81284H45.6824V4.31093ZM50.0159 0.558061H39.4116V13.0666H45.6573V10.3569H48.9709C52.0346 10.3569 55.3799 9.15407 55.3948 5.09238C55.4055 2.05764 53.4124 0.558061 50.0159 0.558061ZM55.8755 0.558061H62.1202V8.61548H67.364V13.0671H55.8755V0.558061ZM74.0428 0.558061H67.7592V13.0671H74.0428V0.558061ZM74.2988 13.0671L78.4838 7.05571L74.1621 0.558061H81.2956L82.8735 3.97647L84.4515 0.558061H91.5855L87.2638 7.05571L91.4482 13.0671H84.6578L82.8735 10.0397L81.0898 13.0671H74.2988ZM93.1946 2.37273V0.843843H92.6304V0.511475H94.1454V0.844366H93.5853V2.37325L93.1946 2.37273ZM94.3701 2.37273V0.511475H94.9482L95.326 1.92835L95.6993 0.511475H96.2804V2.37325H95.9133V0.872108L95.5272 2.37325H95.1274L94.7362 0.872108V2.37325L94.3701 2.37273ZM24.9665 17.2696V14.5745H26.2931V15.5188H26.9356V14.5745H28.2642V17.2696H26.9356V16.4363H26.2931V17.2696H24.9665ZM28.6963 17.2696V14.5745H30.0321V17.2696H28.6963ZM33.5151 17.1C33.2822 17.1837 33.0415 17.2466 32.7922 17.2895C32.537 17.3325 32.2788 17.3538 32.0201 17.3533C31.4544 17.3533 31.0294 17.2335 30.7448 16.9932C30.4606 16.754 30.3183 16.396 30.3183 15.9202C30.3183 15.4492 30.4647 15.0948 30.7581 14.8577C31.0514 14.6206 31.4923 14.5018 32.079 14.5018C32.55 14.5021 33.0198 14.5494 33.4818 14.6431V15.5873C33.2637 15.5638 33.0671 15.5455 32.8936 15.5329C32.7195 15.5209 32.5751 15.5146 32.4604 15.5146C32.1696 15.5146 31.9525 15.5622 31.8087 15.6575C31.6643 15.7538 31.5921 15.8977 31.5921 16.0893C31.5921 16.2641 31.6494 16.3976 31.7631 16.4897C31.8773 16.5823 32.0426 16.6284 32.2607 16.6284C32.2709 16.6283 32.281 16.6274 32.291 16.6258C32.3048 16.6242 32.3145 16.6226 32.3217 16.6226V15.8946H33.5146L33.5151 17.1ZM33.9544 17.2696V14.5745H35.2809V15.5188H35.9235V14.5745H37.2521V17.2696H35.9235V16.4363H35.2809V17.2696H33.9544ZM40.5785 15.9239H40.836C41.0182 15.9239 41.1457 15.9014 41.22 15.8574C41.2942 15.8129 41.3316 15.7386 41.3316 15.6334C41.3316 15.5428 41.2983 15.479 41.2328 15.4429C41.1667 15.4062 41.0433 15.3879 40.8636 15.3879H40.5779L40.5785 15.9239ZM39.2181 17.2696V14.5751H41.499C41.884 14.5751 42.1743 14.6572 42.3704 14.8221C42.5665 14.987 42.6643 15.2309 42.6643 15.5538C42.6643 15.9071 42.545 16.183 42.3069 16.3829C42.0688 16.5823 41.7376 16.6818 41.3132 16.6818H40.5785V17.2696H39.2181ZM47.5839 15.8616H47.8451C48.0253 15.8616 48.1522 15.8391 48.2275 15.7946C48.3028 15.7491 48.3407 15.6737 48.3407 15.5669C48.3407 15.4774 48.3084 15.4151 48.2434 15.379C48.1784 15.3434 48.0545 15.3246 47.8727 15.3246H47.5834L47.5839 15.8616ZM46.2308 17.2696V14.5751H48.7805C49.0733 14.5751 49.2935 14.6389 49.4435 14.7677C49.5935 14.8964 49.6677 15.0859 49.6677 15.3366C49.6677 15.5748 49.5986 15.7622 49.4609 15.8993C49.3232 16.0364 49.1168 16.1207 48.8419 16.1521L49.7727 17.2696H48.2014L47.7227 16.6431C47.6678 16.5665 47.6158 16.488 47.5665 16.4075C47.5785 16.5412 47.5843 16.6753 47.5839 16.8095V17.2701L46.2308 17.2696ZM49.9457 17.2696V14.5745H52.8758V15.5256H51.3056V15.7679H52.8758V16.5839H51.3056V17.2696H49.9457ZM54.9104 16.5473C55.0456 16.5473 55.1506 16.4976 55.2253 16.3986C55.3001 16.2997 55.3385 16.1605 55.3385 15.9825C55.3385 15.7957 55.3037 15.6554 55.2315 15.5617C55.1603 15.4675 55.0533 15.4204 54.9104 15.4204C54.7686 15.4204 54.6606 15.4675 54.5894 15.5617C54.5183 15.6554 54.4824 15.7951 54.4824 15.9825C54.4824 16.162 54.5203 16.3008 54.5946 16.3997C54.6693 16.4976 54.7748 16.5473 54.9104 16.5473ZM54.9104 17.3533C54.2986 17.3533 53.8445 17.2356 53.5486 17.0011C53.2526 16.7676 53.1057 16.4065 53.1057 15.9208C53.1057 15.4366 53.2526 15.077 53.5486 14.843C53.8435 14.6086 54.2976 14.4908 54.9104 14.4908C55.5243 14.4908 55.9785 14.6086 56.2754 14.843C56.5713 15.0765 56.7193 15.4366 56.7193 15.9208C56.7193 16.407 56.5713 16.7676 56.2754 17.0011C55.9785 17.2356 55.5243 17.3533 54.9104 17.3533ZM58.3413 15.8616H58.6034C58.7836 15.8616 58.9106 15.8391 58.9853 15.7946C59.0601 15.7491 59.0985 15.6737 59.0985 15.5669C59.0985 15.4774 59.0667 15.4151 59.0017 15.379C58.9367 15.3434 58.8128 15.3246 58.6316 15.3246H58.3418L58.3413 15.8616ZM56.9886 17.2696V14.5751H59.5393C59.8311 14.5751 60.0513 14.6389 60.2013 14.7677C60.3513 14.8964 60.4261 15.0859 60.4261 15.3366C60.4261 15.5748 60.3569 15.7622 60.2182 15.8993C60.081 16.0364 59.8741 16.1207 59.6002 16.1521L60.53 17.2696H58.9592L58.48 16.6431L58.4088 16.5405C58.3796 16.4968 58.3512 16.4525 58.3239 16.4075C58.3346 16.5412 58.3402 16.6753 58.3407 16.8095V17.2701L56.9886 17.2696ZM61.9252 15.7648C61.9292 15.8428 61.9333 15.9181 61.9354 15.9919C61.9385 16.0663 61.9395 16.149 61.9395 16.2395V17.2701H60.6954V14.5756H62.3844L62.6563 15.491C62.7057 15.6516 62.748 15.8144 62.7832 15.9789C62.8012 15.892 62.838 15.7522 62.8943 15.5617L62.9112 15.501L63.179 14.5751H64.8701V17.2696H63.628V16.2552C63.628 16.2029 63.628 16.1359 63.6301 16.0527L63.6383 15.7669L63.5743 15.9888C63.5522 16.0626 63.5241 16.149 63.4923 16.2463L63.1534 17.2696H62.4126L62.0644 16.2285C62.0377 16.1484 62.0124 16.0678 61.9886 15.9867C61.9663 15.9131 61.9451 15.8391 61.9252 15.7648ZM66.6011 16.1751H67.151L66.9831 15.6528C66.9369 15.4991 66.9011 15.3424 66.876 15.1838C66.8612 15.2759 66.8448 15.3607 66.8269 15.4392C66.809 15.5177 66.7911 15.5884 66.7701 15.6522L66.6011 16.1751ZM64.973 17.2696L65.829 14.5751H67.92L68.7791 17.2696H67.4003L67.2974 16.9205H66.4552L66.3451 17.2696H64.973ZM68.9112 17.2696V14.5751H70.2679L70.7779 15.322C70.8327 15.4073 70.8787 15.4795 70.9151 15.5387C70.9509 15.5968 70.9842 15.6559 71.016 15.714L71.0129 15.5277C71.0119 15.4643 71.0119 15.3806 71.0119 15.277V14.5756H72.3026V17.2701H71.1194L70.4164 16.3745C70.3292 16.2592 70.251 16.137 70.1824 16.0092C70.1876 16.0998 70.1927 16.1835 70.1952 16.2604C70.1983 16.3369 70.1993 16.3934 70.1993 16.4279V17.2691L68.9112 17.2696ZM75.6279 17.2047C75.3909 17.2544 75.1671 17.291 74.9562 17.3156C74.7453 17.3403 74.5461 17.3533 74.3592 17.3533C73.7602 17.3533 73.3122 17.2345 73.0163 16.9969C72.7193 16.7598 72.5714 16.4007 72.5714 15.9202C72.5714 15.4424 72.7204 15.0859 73.0193 14.8525C73.3173 14.6185 73.7694 14.5018 74.3771 14.5018C74.5399 14.5018 74.7243 14.5117 74.928 14.5306C75.1308 14.5489 75.3653 14.5787 75.6279 14.6185V15.6774C75.4588 15.6471 75.2887 15.6227 75.118 15.6041C74.9835 15.5889 74.8483 15.5806 74.713 15.5795C74.4678 15.5795 74.286 15.614 74.1672 15.6831C74.1114 15.7133 74.065 15.759 74.0335 15.8149C74.002 15.8708 73.9866 15.9348 73.9891 15.9993C73.9891 16.1306 74.0403 16.2285 74.1432 16.2934C74.2461 16.3578 74.4002 16.3908 74.605 16.3908C74.9497 16.3914 75.2932 16.349 75.6279 16.2646V17.2047ZM81.3606 17.2696V15.6444H80.564V14.5745H83.5248V15.6444H82.7266V17.2696H81.3606ZM84.9179 16.1751H85.4678L85.2998 15.6528C85.2536 15.4992 85.2178 15.3425 85.1928 15.1838C85.1769 15.2759 85.1611 15.3607 85.1437 15.4392C85.1257 15.5177 85.1068 15.5884 85.0858 15.6522L84.9179 16.1751ZM83.2898 17.2696L84.1448 14.5751H86.2367L87.0959 17.2696H85.7161L85.6142 16.9205H84.772L84.6619 17.2696H83.2898ZM88.5473 15.9239H88.8054C88.9871 15.9239 89.1146 15.9014 89.1894 15.8574C89.2636 15.8129 89.3005 15.7386 89.3005 15.6334C89.3005 15.5428 89.2677 15.479 89.2017 15.4429C89.1356 15.4062 89.0127 15.3879 88.8325 15.3879H88.5473V15.9239ZM87.1865 17.2696V14.5751H89.4674C89.8534 14.5751 90.1432 14.6572 90.3393 14.8221C90.5354 14.987 90.6332 15.2309 90.6332 15.5538C90.6332 15.9071 90.5134 16.183 90.2753 16.3829C90.0372 16.5823 89.7065 16.6818 89.2815 16.6818H88.5473V17.2696H87.1865ZM93.7665 14.6185V15.4272C93.5136 15.3952 93.3057 15.3727 93.1404 15.3597C92.9765 15.3455 92.8306 15.3387 92.7016 15.3387C92.4896 15.3387 92.3493 15.3481 92.2838 15.3665C92.2183 15.3848 92.185 15.4183 92.185 15.4664C92.185 15.546 92.3161 15.5863 92.5761 15.5863C92.6739 15.5863 92.7533 15.5879 92.8132 15.59C93.1921 15.5968 93.4639 15.6606 93.6313 15.7794C93.7983 15.8993 93.8822 16.0882 93.8822 16.3479C93.8822 16.6849 93.7471 16.9377 93.4783 17.1073C93.2095 17.2774 92.8091 17.3628 92.2782 17.3628C92.0493 17.3628 91.8194 17.3518 91.586 17.3303C91.354 17.3088 91.1201 17.2774 90.884 17.2361V16.4787C91.139 16.5195 91.3781 16.5515 91.5988 16.5724C91.821 16.5933 92.0206 16.6049 92.1988 16.6049C92.3089 16.6049 92.3847 16.597 92.4236 16.5808C92.4635 16.5651 92.4835 16.5368 92.4835 16.4965C92.4835 16.4604 92.4707 16.4332 92.4446 16.4164C92.4021 16.3954 92.3556 16.3843 92.3084 16.384C92.2771 16.3829 92.1886 16.3798 92.0386 16.3761C91.9137 16.3735 91.789 16.3653 91.6648 16.3515C91.3556 16.3133 91.1308 16.228 90.991 16.0966C90.8513 15.9658 90.7822 15.7768 90.7822 15.5287C90.7822 15.1717 90.9183 14.909 91.1912 14.7405C91.4641 14.5719 91.8911 14.4876 92.4712 14.4876C92.675 14.4876 92.8864 14.4986 93.103 14.5201C93.3195 14.5421 93.5412 14.5751 93.7665 14.6185ZM42.9249 17.2696V14.5745H45.8816V15.4528H44.2576V15.7208H45.8816V16.3374H44.2576V16.5593H45.8816V17.2696H42.9249ZM75.9418 17.2696V14.5745H78.899V15.4528H77.275V15.7208H78.899V16.3374H77.275V16.5593H78.899V17.2696H75.9418Z" fill="#858585"/>
</svg>
