<svg width="61" height="31" viewBox="0 0 61 31" fill="none" xmlns="http://www.w3.org/2000/svg">
<path d="M58.3619 17.2405C58.5039 17.2147 58.7234 17.2018 58.9428 17.2018C59.2527 17.2018 59.4593 17.2534 59.6013 17.3696C59.7175 17.4729 59.782 17.6149 59.782 17.7957C59.782 18.0668 59.6013 18.2604 59.3947 18.325V18.3379C59.5496 18.3895 59.64 18.5445 59.6916 18.751C59.7562 19.0221 59.8207 19.2674 59.8595 19.3449H59.4592C59.4334 19.2803 59.3818 19.1125 59.3172 18.8414C59.2527 18.5574 59.1623 18.4799 58.9428 18.467H58.7492V19.3449H58.3619V17.2405ZM58.7492 18.183H58.9816C59.2398 18.183 59.4076 18.0409 59.4076 17.8344C59.4076 17.602 59.2398 17.4987 58.9945 17.4987C58.8783 17.4987 58.7879 17.5116 58.7492 17.5245V18.183ZM57.1354 18.2604C57.1354 19.3062 57.9875 20.1453 59.0203 20.1453C60.0531 20.1453 60.9052 19.2933 60.9052 18.2604C60.9052 17.2276 60.066 16.3755 59.0203 16.3755C57.9875 16.3755 57.1354 17.2276 57.1354 18.2604ZM57.4969 18.2604C57.4969 17.4212 58.1811 16.737 59.0203 16.737C59.8595 16.737 60.5437 17.4212 60.5437 18.2604C60.5437 19.0996 59.8595 19.7838 59.0203 19.7838C58.1811 19.7968 57.4969 19.1125 57.4969 18.2604ZM57.0579 0.0309588C55.8831 0.0438692 54.9148 0.947596 54.8761 2.05789C54.8502 3.16818 55.7669 4.04609 56.9417 4.03318C58.1166 4.02027 59.0849 3.10363 59.1107 2.00625C59.1494 0.895953 58.2328 0.00513801 57.0579 0.0309588ZM14.7377 2.13535C15.3703 2.12244 16.4289 2.14826 16.4289 2.14826C16.4289 2.14826 16.9453 0.0696888 16.9453 0.043868C16.5709 0.043868 14.7764 0.0180484 14.4149 0.0309588C11.239 0.0309588 8.65688 1.96752 7.9339 4.92399C7.9339 4.92399 7.4433 6.74436 7.45621 6.73145C7.45621 6.74436 4.68048 6.73145 4.68048 6.73145L4.16406 8.83584H6.92688C6.92688 8.83584 5.04197 16.7112 4.26735 20.1582H7.74024L10.4902 8.83584H14.7377L15.2412 6.73145H11.0066L11.6521 4.3043C12.0523 2.80669 13.6532 2.14826 14.7377 2.13535ZM19.3983 16.7241L23.478 0.0309588H20.0051L15.8996 16.7499C15.8996 16.7499 15.6543 17.7182 15.6414 18.4153C15.6156 19.2933 15.693 19.7838 15.8738 20.1582H19.9535C19.6049 19.8097 19.2176 19.4482 19.1659 18.6994C19.1014 17.7698 19.3983 16.7241 19.3983 16.7241ZM55.1214 16.7241L57.5614 6.73145H54.0756L51.6227 16.7499C51.6227 16.7499 51.3774 17.7182 51.3644 18.4153C51.3386 19.2933 51.4161 19.7838 51.5968 20.1582H55.6765C55.3279 19.8097 54.9406 19.4482 54.889 18.6994C54.8244 17.7698 55.1214 16.7241 55.1214 16.7241ZM47.6979 6.73145L44.2121 11.121L41.5784 6.73145H37.6278L41.5138 13.1996L35.9753 20.1582H38.7639L42.7016 15.1748L45.6839 20.1453H49.6344L45.4128 13.1092L50.4478 6.73145H47.6979ZM31.3662 6.08593C28.6163 6.09884 24.5625 8.00958 23.2198 12.4637C22.1353 16.0786 23.7879 20.5972 29.6363 20.8038C31.405 20.8296 33.1995 20.5326 34.865 19.913C34.8391 19.9517 34.4518 17.9635 34.4518 17.9635C33.1479 18.4153 31.1855 18.751 29.7654 18.609C27.7642 18.2475 26.073 16.7241 26.4474 14.0904C26.4603 14.1162 29.533 14.581 31.7406 13.9742C36.2722 12.6057 36.6466 9.81703 35.9107 8.33233C34.8521 6.16339 32.2442 6.07302 31.3662 6.08593ZM30.7207 12.0893C29.3135 12.2571 28.5905 12.3475 27.0413 12.2055C27.4157 10.9144 28.0999 9.63629 29.2619 8.75838C30.4496 7.94503 31.7665 7.94502 32.6315 8.65509C33.2253 9.27479 34 11.5341 30.7207 12.0893Z" fill="#858585"/>
<path d="M0.536621 23.8377C9.93538 30.8739 19.644 31.2225 30.5274 29.0148C40.8558 26.9233 51.0162 24.5349 60.9056 29.8927C51.4939 22.8566 41.7982 22.508 30.9148 24.7156C20.5735 26.7942 10.4131 29.1826 0.536621 23.8377Z" fill="#858585"/>
</svg>
