<svg width="58" height="21" viewBox="0 0 58 21" fill="none" xmlns="http://www.w3.org/2000/svg">
<path d="M48.9324 0.4119H43.3686L36.7994 15.8889V8.41521H26.2007V12.7861H31.4963C30.0961 15.3146 26.9083 16.232 24.3833 14.8298C21.8584 13.4275 20.9423 10.2352 22.3426 7.70662C23.7428 5.17808 26.9306 4.26065 29.4555 5.66291C30.1482 6.04331 30.744 6.58034 31.1984 7.22926L34.3862 3.33576C30.5951 -0.796428 24.1748 -1.0724 20.0485 2.72413C19.1175 3.5819 18.3504 4.60376 17.7992 5.74495C17.5683 4.48441 17.0171 3.43272 16.1606 2.59733C14.7753 1.18762 12.6451 0.464112 9.82225 0.456654H0.519531V20.036H6.31418V13.7408L12.3174 20.0286H19.3708L13.5389 13.9347C14.522 13.5767 15.5052 13.0695 16.1606 12.3982C16.4138 12.1521 16.6447 11.8836 16.8458 11.5927C17.5013 16.5901 21.7616 20.4463 26.9157 20.4463C28.882 20.4463 30.8111 19.872 32.4571 18.7979V20.0435H41.2831L42.4972 17.1868H49.8038L51.0179 20.051H57.2817L48.9324 0.4119ZM12.0865 7.43064C12.0865 8.69118 11.1555 9.41469 9.53177 9.41469H6.30673V5.38693H9.50198C10.6788 5.38693 12.079 5.73004 12.079 7.37098V7.43064H12.0865ZM44.2103 12.7786L46.1542 7.86326L48.1429 12.7786H44.2103Z" fill="#858585"/>
</svg>
