<svg width="90" height="34" viewBox="0 0 90 34" fill="none" xmlns="http://www.w3.org/2000/svg">
<path d="M51.7611 14.707H49.47C46.997 14.707 46.403 15.0343 46.403 17.4346V18.6226C46.403 20.6228 46.8273 21.0835 49.3366 21.0835H51.7126C54.4402 21.0835 54.9615 20.8289 54.9615 19.7742V18.9257H50.561V16.7436H57.9557V18.9863C57.9557 22.6352 56.8162 23.4959 52.0763 23.4959H49.0457C44.7301 23.4959 43.4814 22.5382 43.4814 18.9984V17.2528C43.4814 13.3251 44.524 12.2219 49.1184 12.2219H51.7732C56.7071 12.2219 57.9436 13.0826 57.9436 15.7253H54.9372C54.9372 14.8646 54.5008 14.707 51.7611 14.707Z" fill="#858585"/>
<path d="M64.999 23.5077C60.5379 23.5077 59.3257 22.5257 59.3257 18.8041V17.3858C59.3257 13.0096 60.5864 12.2822 65.096 12.2822H67.6781C72.4301 12.2822 73.6181 12.949 73.6181 16.1008H70.6117C70.5996 15.228 70.2966 14.7795 67.5326 14.7795H65.29C62.6594 14.7795 62.2472 14.9855 62.2472 17.3616V18.5859C62.2472 20.768 62.6715 21.071 65.1809 21.071H67.5569C70.1268 21.071 70.636 20.865 70.6117 19.6042H73.6181C73.6424 22.5985 72.818 23.5198 67.6175 23.5198L64.999 23.5077Z" fill="#858585"/>
<path d="M83.2069 14.7675H81.049C78.2972 14.7675 77.9214 15.2039 77.9214 17.4344V18.5982C77.9214 20.5984 78.3094 21.0227 80.9521 21.0227H83.2553C86.1041 21.0227 86.5405 20.6954 86.5405 18.5497V17.386C86.5405 15.119 86.1163 14.7675 83.2069 14.7675ZM83.3038 23.4957H80.746C76.0909 23.4957 74.9878 22.6229 74.9878 18.7437V17.386C74.9878 13.2158 76.0182 12.2339 80.7945 12.2339H83.3644C88.3589 12.2339 89.4742 13.2643 89.4742 17.3375V18.6952C89.4742 22.829 88.3589 23.4957 83.3038 23.4957Z" fill="#858585"/>
<path d="M37.3838 12.2822H32.7772L28.1343 20.5983L29.9042 23.4956H29.9163L31.4074 20.7922H38.7657L40.2325 23.4956H43.639L37.3838 12.2822ZM32.656 18.5496L35.0441 14.3794H35.1775L37.4807 18.5496H32.656Z" fill="#858585"/>
<path d="M4.10741 29.7267L2.49512 26.4536H3.57402L4.6408 28.6357L5.64697 26.4536H6.72588L5.10146 29.7509V31.9209H4.09529L4.10741 29.7267Z" fill="#858585"/>
<path d="M8.04715 27.8235C8.87148 27.8235 9.81703 28.2599 9.81703 29.8964C9.81703 31.5815 8.87148 31.9815 8.04715 31.9815C7.22282 31.9815 6.26514 31.5936 6.26514 29.9086C6.26514 28.2599 7.22282 27.8235 8.04715 27.8235ZM8.04715 31.2905C8.67752 31.2905 8.81087 30.5632 8.81087 29.8964C8.81087 29.2297 8.6654 28.5145 8.04715 28.5145C7.41678 28.5145 7.27131 29.2297 7.27131 29.8964C7.27131 30.5632 7.41678 31.2905 8.04715 31.2905Z" fill="#858585"/>
<path d="M13.7571 31.2542C13.7571 31.4724 13.7692 31.7027 13.7934 31.9209H12.8842C12.8842 31.7148 12.8479 31.5087 12.8479 31.3027H12.8236C12.6418 31.6057 12.3872 31.9815 11.7569 31.9815C10.8355 31.9815 10.5688 31.3027 10.5688 30.4905V27.8962H11.5386V30.3086C11.5386 30.9269 11.7084 31.1814 12.1205 31.1814C12.6418 31.1814 12.7873 30.7087 12.7873 30.1995V27.8962H13.7571V31.2542Z" fill="#858585"/>
<path d="M14.6662 28.5508C14.6662 28.3326 14.6541 28.1023 14.6299 27.8841H15.5027C15.5027 28.1265 15.5391 28.3811 15.5391 28.6236H15.5633C15.6845 28.3084 15.9876 27.8235 16.5937 27.8235C16.6543 27.8235 16.715 27.8356 16.7634 27.8477V28.7569C16.6786 28.7327 16.5816 28.7206 16.4846 28.7206C16.0846 28.7206 15.6482 28.963 15.6482 29.7146V31.9209H14.6784L14.6662 28.5508Z" fill="#858585"/>
<path d="M21.879 30.5995H20L19.6121 31.9087H18.606L20.4365 26.4536H21.5275L23.2974 31.9087H22.267L21.879 30.5995ZM21.673 29.8358L20.982 27.2901H20.9698L20.2304 29.8358H21.673Z" fill="#858585"/>
<path d="M23.8431 32.5388C24.2068 32.7449 24.619 32.8661 25.0311 32.8782C25.9403 32.8782 26.0979 32.2479 26.0979 31.6054V31.2175H26.0858C25.9039 31.6418 25.4797 31.9206 25.019 31.8963C24.4614 31.8963 23.6128 31.5205 23.6128 29.8961C23.6128 28.7808 24.0128 27.811 25.0675 27.811C25.6494 27.811 25.9282 28.1626 26.1343 28.502H26.1706C26.1706 28.2838 26.1949 28.0899 26.1949 27.8716H27.0677C27.0556 28.0899 27.0435 28.2959 27.0435 28.502V31.472C27.0435 32.7328 26.6555 33.6298 25.1766 33.6298C24.7038 33.6298 24.2432 33.545 23.7946 33.3753L23.8431 32.5388ZM25.2493 31.2053C25.8555 31.2053 26.0979 30.7689 26.0979 29.8476C26.0979 28.999 25.7827 28.5505 25.3099 28.5626C24.8008 28.5626 24.6068 29.0354 24.6068 29.8597C24.619 30.8053 24.922 31.2053 25.2493 31.2053Z" fill="#858585"/>
<path d="M27.9646 28.5508C27.9646 28.3326 27.9525 28.1023 27.9282 27.8841H28.801C28.801 28.1265 28.8374 28.3811 28.8374 28.6236H28.8495C28.9708 28.3084 29.2738 27.8235 29.8799 27.8235C29.9406 27.8235 30.0012 27.8356 30.0497 27.8477V28.7569C29.9648 28.7327 29.8678 28.7206 29.7708 28.7206C29.3708 28.7206 28.9344 28.963 28.9344 29.7146V31.9209H27.9646V28.5508Z" fill="#858585"/>
<path d="M30.7529 26.1748H31.7591V27.1325H30.7529V26.1748ZM30.7772 27.8841H31.747V31.9088H30.7772V27.8841Z" fill="#858585"/>
<path d="M35.4562 31.8118C35.1531 31.9209 34.8258 31.9815 34.4985 31.9815C33.1651 31.9815 32.6074 31.0481 32.6074 29.9086C32.6074 28.769 33.2014 27.8235 34.5591 27.8235C34.8501 27.8356 35.141 27.8962 35.4077 27.9932L35.3592 28.7569C35.1532 28.6357 34.9107 28.5751 34.6682 28.563C33.9288 28.563 33.6136 29.06 33.6136 29.9207C33.6136 30.6723 33.9773 31.2542 34.7167 31.2542C34.9592 31.242 35.1895 31.1814 35.4077 31.0602L35.4562 31.8118Z" fill="#858585"/>
<path d="M39.2384 31.2542C39.2384 31.4724 39.2505 31.7027 39.2627 31.9209H38.3535C38.3535 31.7148 38.3171 31.5087 38.3171 31.3027H38.2929C38.111 31.6057 37.8565 31.9815 37.2261 31.9815C36.3048 31.9815 36.0381 31.3027 36.0381 30.4905V27.8962H37.0079V30.3086C37.0079 30.9269 37.1776 31.1814 37.5898 31.1814C38.111 31.1814 38.2565 30.7087 38.2565 30.1995V27.8962H39.2263L39.2384 31.2542Z" fill="#858585"/>
<path d="M40.2085 26.0537H41.1783V31.921H40.2085V26.0537Z" fill="#858585"/>
<path d="M42.4993 27.0721L43.4691 26.769V27.8964H44.2692V28.6117H43.4691V30.6846C43.4691 31.1089 43.6267 31.2423 43.9056 31.2423C44.0268 31.2423 44.1601 31.218 44.2692 31.1574V31.8484C44.0631 31.9454 43.8449 31.9817 43.6146 31.9817C42.8994 31.9817 42.4872 31.6544 42.4872 30.8058V28.5995H41.8447V27.8843H42.4872L42.4993 27.0721Z" fill="#858585"/>
<path d="M48.0877 31.2542C48.0877 31.4724 48.0998 31.7027 48.1241 31.9209H47.2149C47.2149 31.7148 47.1907 31.5087 47.1907 31.3027H47.1785C46.9846 31.6057 46.7421 31.9815 46.0996 31.9815C45.1904 31.9815 44.9116 31.3027 44.9116 30.4905V27.8962H45.8814V30.3086C45.8814 30.9269 46.0511 31.1814 46.4633 31.1814C46.9846 31.1814 47.13 30.7087 47.13 30.1995V27.8962H48.0998L48.0877 31.2542Z" fill="#858585"/>
<path d="M48.9851 28.5508C48.9851 28.3326 48.973 28.1023 48.9487 27.8841H49.8215C49.8215 28.1265 49.8579 28.3811 49.8579 28.6236H49.87C49.9913 28.3084 50.2943 27.8235 50.9005 27.8235C50.9611 27.8235 51.0217 27.8356 51.0702 27.8477V28.7569C50.9853 28.7327 50.8883 28.7206 50.8035 28.7206C50.4034 28.7206 49.967 28.963 49.967 29.7146V31.9209H48.9972L48.9851 28.5508Z" fill="#858585"/>
<path d="M54.5977 31.7148C54.2219 31.8845 53.7976 31.9694 53.3854 31.9694C52.0883 31.9694 51.5186 31.036 51.5186 29.957C51.5186 28.7448 52.1489 27.8235 53.1793 27.8235C54.04 27.8235 54.7916 28.3448 54.7916 29.9813V30.1753H52.4641C52.4641 30.8662 52.7429 31.2784 53.4945 31.2784C53.8703 31.3026 54.2461 31.1935 54.5492 30.9632L54.5977 31.7148ZM53.8582 29.557C53.8582 28.8418 53.6279 28.4902 53.1915 28.4902C52.6702 28.4902 52.4641 29.0357 52.4641 29.557H53.8582Z" fill="#858585"/>
<path d="M61.2047 31.7998C60.8289 31.9453 60.4289 32.0059 60.0167 31.9937C58.3559 31.9937 57.5073 30.7815 57.5073 29.1813C57.5073 27.5811 58.3559 26.3689 59.9924 26.3689C60.4046 26.3689 60.8168 26.4416 61.2047 26.5871L61.1441 27.4842C60.8289 27.3023 60.4773 27.1932 60.1137 27.1932C59.2893 27.1932 58.5741 27.7509 58.5741 29.1692C58.5741 30.5875 59.2893 31.1452 60.1137 31.1452C60.4773 31.1694 60.841 31.0724 61.1441 30.8664L61.2047 31.7998Z" fill="#858585"/>
<path d="M63.6048 27.8235C64.4291 27.8235 65.3746 28.2599 65.3746 29.8964C65.3746 31.5815 64.4291 31.9815 63.6048 31.9815C62.7804 31.9815 61.8228 31.5936 61.8228 29.8964C61.8228 28.2599 62.7804 27.8235 63.6048 27.8235ZM63.6048 31.2905C64.2351 31.2905 64.3685 30.5632 64.3685 29.8964C64.3685 29.2297 64.223 28.5145 63.6048 28.5145C62.9865 28.5145 62.8289 29.2297 62.8289 29.8964C62.8289 30.5632 62.9865 31.2905 63.6048 31.2905Z" fill="#858585"/>
<path d="M66.114 28.5506C66.114 28.3324 66.1019 28.1141 66.0776 27.8959H67.0474C67.0474 28.1141 67.0717 28.3202 67.0717 28.5263H67.0838C67.2535 28.1142 67.6536 27.8475 68.1021 27.8353C68.5385 27.8111 68.9507 28.0657 69.1204 28.4778C69.3143 28.199 69.6053 27.8353 70.1993 27.8353C71.0721 27.8353 71.3631 28.4657 71.3631 29.4355V31.9206H70.3932V29.3628C70.3932 28.8657 70.2357 28.6112 69.872 28.6112C69.4477 28.6112 69.2174 29.0233 69.2174 29.4597V31.9085H68.2476V29.3628C68.2476 28.8657 68.09 28.6112 67.7263 28.6112C67.302 28.6112 67.0717 29.0233 67.0717 29.4597V31.9085H66.1019L66.114 28.5506Z" fill="#858585"/>
<path d="M72.2362 28.5751C72.2362 28.3448 72.2362 28.1144 72.2119 27.8841H73.1211C73.1453 28.0902 73.1575 28.2963 73.1575 28.5145H73.1817C73.3514 28.0781 73.7878 27.7992 74.2485 27.8235C75.2547 27.8235 75.6668 28.7812 75.6668 29.8964C75.6668 31.2057 75.1456 31.9815 74.2727 31.9815C73.8242 31.9936 73.4242 31.7512 73.2423 31.339H73.2302V33.6059H72.2604L72.2362 28.5751ZM73.9576 31.2663C74.4909 31.2663 74.6849 30.745 74.6849 29.9328C74.6849 28.9994 74.5394 28.5387 73.9697 28.5387C73.3999 28.5387 73.206 29.157 73.206 29.9207C73.206 30.6844 73.4242 31.2663 73.9576 31.2663Z" fill="#858585"/>
<path d="M76.6246 28.1265C77.0246 27.9326 77.461 27.8235 77.8974 27.8235C79.1461 27.8235 79.437 28.4296 79.437 29.4479V31.2057C79.437 31.4481 79.4612 31.6784 79.4855 31.9209H78.6127C78.5642 31.7391 78.5521 31.5572 78.5521 31.3754H78.5399C78.2975 31.7633 77.8732 31.9936 77.4125 31.9815C76.7822 32.0058 76.2366 31.5209 76.2124 30.8784C76.2124 30.8541 76.2124 30.8299 76.2124 30.7935C76.2124 29.7025 77.0973 29.4237 78.3338 29.4237H78.5157V29.2782C78.5157 28.8781 78.3217 28.5145 77.7641 28.5145C77.364 28.5266 76.9761 28.6599 76.6609 28.9024L76.6246 28.1265ZM78.5278 29.9449H78.4429C77.6186 29.9449 77.1216 30.1146 77.1216 30.7086C77.0973 31.036 77.3398 31.3026 77.6671 31.3269C77.6913 31.3269 77.7156 31.3269 77.7398 31.3269C78.3217 31.3269 78.5278 30.8905 78.5278 30.1753V29.9449Z" fill="#858585"/>
<path d="M80.3338 28.5508C80.3338 28.3326 80.3217 28.1023 80.3096 27.8841H81.2188C81.2188 28.0902 81.2551 28.2963 81.2551 28.5023H81.2672C81.4612 28.0902 81.8734 27.8235 82.334 27.8235C83.2553 27.8235 83.522 28.5023 83.522 29.3146V31.9088H82.5522V29.4964C82.5522 28.8781 82.3946 28.6236 81.9946 28.6236C81.4854 28.6236 81.3036 29.0479 81.3036 29.5691V31.9088H80.3338V28.5508Z" fill="#858585"/>
<path d="M85.8131 30.927H85.8252L86.601 27.8843H87.5466L86.0677 32.6848C85.8979 33.2424 85.5706 33.6546 84.916 33.6546C84.7099 33.6546 84.4917 33.6182 84.2978 33.5576L84.3584 32.8181C84.4675 32.8666 84.6008 32.8909 84.7221 32.8909C85.013 32.8909 85.1342 32.7212 85.2676 32.309L85.3403 31.9574L84.0068 27.8843H85.013L85.8131 30.927Z" fill="#858585"/>
<path d="M21.5275 12.1007L14.6904 0.838867L0.89502 23.4958L21.5275 12.1007Z" fill="#858585"/>
<path d="M5.92605 23.4956L21.8065 12.549L21.6247 12.2581L3.51367 23.4956H5.92605Z" fill="#858585"/>
<path d="M10.9565 23.4957L22.279 13.337L22.0123 12.9006L8.43506 23.4957H10.9565Z" fill="#858585"/>
<path d="M15.8784 23.4958L22.9337 14.416L22.5943 13.8584L13.3569 23.4958H15.8784Z" fill="#858585"/>
<path d="M28.4253 23.4954C28.4253 23.4954 25.0067 17.9797 23.4187 15.24L18.2666 23.4954H28.4253Z" fill="#858585"/>
</svg>
