<svg width="93" height="42" viewBox="0 0 93 42" fill="none" xmlns="http://www.w3.org/2000/svg">
<path d="M16.3013 36.3877L16.6988 34.4061H16.3808L16.4205 34.0953H16.7386V33.9787C16.7784 33.6679 16.8976 33.357 17.1362 33.2016C17.2952 33.085 17.494 33.0073 17.6928 33.0073C17.8518 33.0073 17.9711 33.0462 18.0109 33.085L17.9313 33.3959C17.8518 33.357 17.7723 33.357 17.6928 33.357C17.3747 33.357 17.2157 33.6679 17.1362 34.0176V34.1341H17.6928L17.6133 34.445H17.0964L16.6988 36.4266H16.3013V36.3877Z" fill="#858585"/>
<path d="M18.5673 36.4654C17.9709 36.4654 17.6528 36.038 17.6528 35.5329C17.6528 34.7946 18.1697 34.0952 18.9251 34.0952C19.5612 34.0952 19.8395 34.5615 19.8395 35.0277C19.8793 35.7271 19.3624 36.4654 18.5673 36.4654ZM18.607 36.1545C19.0841 36.1545 19.4419 35.5717 19.4419 35.0277C19.4419 34.7558 19.3227 34.4061 18.8853 34.4061C18.3685 34.4061 18.0504 34.9889 18.0504 35.5329C18.0504 35.8825 18.289 36.1545 18.607 36.1545Z" fill="#858585"/>
<path d="M20.1577 36.3877L20.436 34.9112C20.4758 34.6004 20.5155 34.3284 20.5553 34.0953H20.8734C20.8734 34.2507 20.8336 34.4061 20.7938 34.6004C20.9529 34.2895 21.1914 34.0564 21.5095 34.0564C21.5492 34.0564 21.589 34.0564 21.6288 34.0564L21.5492 34.4449C21.5095 34.4449 21.4697 34.4449 21.43 34.4449C21.0721 34.4449 20.7938 34.8724 20.6746 35.3775L20.4758 36.3877H20.1577Z" fill="#858585"/>
<path d="M24.0144 36.3877C24.0144 36.2323 24.0542 36.038 24.0542 35.8049C23.8156 36.2711 23.4578 36.4266 23.1398 36.4266C22.7422 36.4266 22.4639 36.1157 22.4639 35.6883C22.4639 34.9112 23.0602 34.0564 24.0939 34.0564C24.3325 34.0564 24.571 34.0953 24.7301 34.1341L24.4518 35.3386C24.3723 35.7272 24.3325 36.1546 24.3723 36.3877H24.0144ZM24.253 34.4061C24.2132 34.4061 24.0939 34.3672 23.9747 34.3672C23.3783 34.3672 22.8614 34.9889 22.8614 35.6106C22.8614 35.8826 22.941 36.1157 23.259 36.1157C23.5771 36.1157 23.9747 35.6883 24.0939 35.0666L24.253 34.4061Z" fill="#858585"/>
<path d="M27.5527 36.31C27.4334 36.3877 27.1949 36.4654 26.8768 36.4654C26.2805 36.4654 25.9624 36.0769 25.9624 35.5717C25.9624 34.7946 26.5588 34.0564 27.3937 34.0564C27.5925 34.0564 27.7913 34.1341 27.8708 34.173L27.7515 34.4838C27.672 34.4449 27.513 34.4061 27.3539 34.4061C26.7576 34.4061 26.36 34.9889 26.36 35.5329C26.36 35.9214 26.5588 36.1546 26.9564 36.1546C27.1949 36.1546 27.3937 36.0769 27.513 36.038L27.5527 36.31Z" fill="#858585"/>
<path d="M27.9902 36.3877L28.6264 33.0461H29.0239L28.3878 36.3877H27.9902Z" fill="#858585"/>
<path d="M30.7731 36.2711C30.6141 36.3488 30.296 36.4654 30.0177 36.4654C29.3816 36.4654 29.1431 36.038 29.1431 35.5329C29.1431 34.8335 29.6599 34.0564 30.4153 34.0564C30.8527 34.0564 31.0912 34.3284 31.0912 34.6392C31.0912 35.222 30.4153 35.3775 29.5406 35.3775C29.5406 35.494 29.5406 35.6883 29.5804 35.8049C29.6599 35.9992 29.8587 36.1157 30.0973 36.1157C30.3756 36.1157 30.5744 36.038 30.7334 35.9603L30.7731 36.2711ZM30.6936 34.6781C30.6936 34.4838 30.5346 34.4061 30.3358 34.4061C29.9382 34.4061 29.6599 34.7558 29.5804 35.1443C30.1768 35.1055 30.6936 35.0278 30.6936 34.6781Z" fill="#858585"/>
<path d="M32.8406 36.3877C32.8406 36.2323 32.8804 36.038 32.8804 35.8049C32.6418 36.2711 32.284 36.4266 31.9659 36.4266C31.5683 36.4266 31.29 36.1157 31.29 35.6883C31.29 34.9112 31.8864 34.0564 32.9201 34.0564C33.1587 34.0564 33.3972 34.0953 33.5562 34.1341L33.3177 35.3386C33.2382 35.7272 33.1984 36.1546 33.2382 36.3877H32.8406ZM33.0791 34.4061C33.0394 34.4061 32.9201 34.3672 32.8008 34.3672C32.2045 34.3672 31.6876 34.9889 31.6876 35.6106C31.6876 35.8826 31.7671 36.1157 32.0852 36.1157C32.4033 36.1157 32.8008 35.6883 32.9201 35.0666L33.0791 34.4061Z" fill="#858585"/>
<path d="M33.7949 36.3877L34.113 34.7558C34.1527 34.4838 34.1925 34.2895 34.2323 34.0953H34.5901L34.5106 34.5615C34.7094 34.2507 35.0274 34.0564 35.3852 34.0564C35.6635 34.0564 35.9816 34.2118 35.9816 34.6781C35.9816 34.7946 35.9816 34.9112 35.9419 35.0278L35.6635 36.3488H35.266L35.5045 35.0278C35.5045 34.9501 35.5443 34.8335 35.5443 34.7169C35.5443 34.4838 35.4648 34.3284 35.1865 34.3284C34.9081 34.3284 34.5106 34.6781 34.3913 35.222L34.1925 36.31H33.7949V36.3877Z" fill="#858585"/>
<path d="M38.049 36.2711C37.89 36.3488 37.5719 36.4654 37.2936 36.4654C36.6575 36.4654 36.4189 36.038 36.4189 35.5329C36.4189 34.8335 36.9358 34.0564 37.6912 34.0564C38.1285 34.0564 38.3671 34.3284 38.3671 34.6392C38.3671 35.222 37.6912 35.3775 36.8165 35.3775C36.8165 35.494 36.8165 35.6883 36.8563 35.8049C36.9358 35.9992 37.1346 36.1157 37.3731 36.1157C37.6514 36.1157 37.8502 36.038 38.0093 35.9603L38.049 36.2711ZM37.9695 34.6781C37.9695 34.4838 37.8105 34.4061 37.6117 34.4061C37.2141 34.4061 36.9358 34.7558 36.8563 35.1443C37.4527 35.1055 37.9695 35.0278 37.9695 34.6781Z" fill="#858585"/>
<path d="M38.5259 36.3877L38.8042 34.9112C38.8439 34.6004 38.8837 34.3284 38.9235 34.0953H39.2813C39.2813 34.2507 39.2415 34.4061 39.2018 34.6004C39.3608 34.2895 39.5993 34.0564 39.9174 34.0564C39.9572 34.0564 39.9969 34.0564 40.0367 34.0564L39.9572 34.4449C39.9174 34.4449 39.8776 34.4449 39.8379 34.4449C39.4801 34.4449 39.2018 34.8724 39.0825 35.3775L38.8837 36.3877H38.5259Z" fill="#858585"/>
<path d="M39.5596 36.9706C39.7186 36.6986 39.9174 36.1935 40.0367 35.8438L40.5138 35.8049C40.3547 36.1935 40.0367 36.7375 39.8776 36.9317L39.5596 36.9706Z" fill="#858585"/>
<path d="M41.5078 36.3877L42.1439 33.0461H42.5415L42.2632 34.5226C42.462 34.2506 42.7403 34.0564 43.0981 34.0564C43.3764 34.0564 43.6945 34.2118 43.6945 34.6781C43.6945 34.7946 43.6945 34.95 43.6547 35.0666L43.3764 36.3877H42.9789L43.2572 35.0666C43.2572 34.9889 43.2969 34.8723 43.2969 34.7558C43.2969 34.5615 43.1776 34.3672 42.9391 34.3672C42.621 34.3672 42.2235 34.7169 42.1439 35.222L41.9452 36.3488H41.5078V36.3877Z" fill="#858585"/>
<path d="M45.7619 36.2711C45.6029 36.3488 45.2848 36.4654 45.0065 36.4654C44.3704 36.4654 44.1318 36.038 44.1318 35.5329C44.1318 34.8335 44.6487 34.0564 45.4041 34.0564C45.8414 34.0564 46.08 34.3284 46.08 34.6392C46.08 35.222 45.4041 35.3775 44.5294 35.3775C44.5294 35.494 44.5294 35.6883 44.5692 35.8049C44.6487 35.9992 44.8475 36.1157 45.086 36.1157C45.3643 36.1157 45.5631 36.038 45.7222 35.9603L45.7619 36.2711ZM45.6824 34.6781C45.6824 34.4838 45.5234 34.4061 45.3246 34.4061C44.927 34.4061 44.6487 34.7558 44.5692 35.1443C45.2053 35.1055 45.6824 35.0278 45.6824 34.6781Z" fill="#858585"/>
<path d="M47.8294 36.3877C47.8294 36.2323 47.8691 36.038 47.8691 35.8049C47.6306 36.2711 47.2728 36.4266 46.9547 36.4266C46.5571 36.4266 46.2788 36.1157 46.2788 35.6883C46.2788 34.9112 46.8752 34.0564 47.9089 34.0564C48.1474 34.0564 48.386 34.0953 48.545 34.1341L48.3065 35.3386C48.227 35.7272 48.1872 36.1546 48.227 36.3877H47.8294ZM48.0679 34.4061C48.0282 34.4061 47.9089 34.3672 47.7896 34.3672C47.1932 34.3672 46.6764 34.9889 46.6764 35.6106C46.6764 35.8826 46.7559 36.1157 47.074 36.1157C47.392 36.1157 47.7896 35.6883 47.9089 35.0666L48.0679 34.4061Z" fill="#858585"/>
<path d="M48.7837 36.3877L49.4596 33.0461H49.8572L49.1813 36.3877H48.7837Z" fill="#858585"/>
<path d="M50.9306 33.5901L50.8113 34.1341H51.368L51.2884 34.4449H50.7318L50.533 35.5717C50.4933 35.6883 50.4933 35.8048 50.4933 35.9214C50.4933 36.0768 50.5728 36.1545 50.7318 36.1545C50.8113 36.1545 50.8511 36.1545 50.9306 36.1545V36.4654C50.8511 36.5042 50.7318 36.5042 50.6126 36.5042C50.2547 36.5042 50.1355 36.3099 50.1355 36.0768C50.1355 35.9602 50.1355 35.8048 50.1752 35.6494L50.4138 34.4838H50.0957L50.1355 34.1729H50.4535L50.533 33.7455L50.9306 33.5901Z" fill="#858585"/>
<path d="M51.4077 36.3877L52.0438 33.0461H52.4414L52.1631 34.5226C52.3619 34.2506 52.6402 34.0564 52.998 34.0564C53.2763 34.0564 53.5944 34.2118 53.5944 34.6781C53.5944 34.7946 53.5944 34.95 53.5546 35.0666L53.2763 36.3877H52.8788L53.1571 35.0666C53.1571 34.9889 53.1968 34.8723 53.1968 34.7558C53.1968 34.5615 53.0775 34.3672 52.839 34.3672C52.5209 34.3672 52.1234 34.7169 52.0438 35.222L51.845 36.3488H51.4077V36.3877Z" fill="#858585"/>
<path d="M53.9917 36.3878L54.429 34.0954H54.8266L54.3893 36.3878H53.9917ZM54.7073 33.7068C54.5483 33.7068 54.4688 33.5902 54.4688 33.4348C54.4688 33.2794 54.5881 33.1628 54.7471 33.1628C54.9061 33.1628 54.9856 33.2794 54.9856 33.4348C55.0254 33.5902 54.8664 33.7068 54.7073 33.7068Z" fill="#858585"/>
<path d="M56.7746 36.2711C56.6156 36.3488 56.2975 36.4654 56.0192 36.4654C55.3831 36.4654 55.1445 36.038 55.1445 35.5329C55.1445 34.8335 55.6614 34.0564 56.4168 34.0564C56.8541 34.0564 57.0927 34.3284 57.0927 34.6392C57.0927 35.222 56.4168 35.3775 55.5421 35.3775C55.5421 35.494 55.5421 35.6883 55.5819 35.8049C55.6614 35.9992 55.8602 36.1157 56.0987 36.1157C56.377 36.1157 56.5758 36.038 56.7349 35.9603L56.7746 36.2711ZM56.6553 34.6781C56.6553 34.4838 56.4963 34.4061 56.2975 34.4061C55.8999 34.4061 55.6216 34.7558 55.5421 35.1443C56.1782 35.1055 56.6553 35.0278 56.6553 34.6781Z" fill="#858585"/>
<path d="M57.252 36.3877L57.5303 34.9112C57.57 34.6004 57.6098 34.3284 57.6495 34.0953H58.0074C58.0074 34.2507 57.9676 34.4061 57.9278 34.6004C58.0869 34.2895 58.3254 34.0564 58.6435 34.0564C58.6832 34.0564 58.723 34.0564 58.7628 34.0564L58.6832 34.4449C58.6435 34.4449 58.6037 34.4449 58.564 34.4449C58.2061 34.4449 57.9278 34.8724 57.8086 35.3775L57.6098 36.3877H57.252Z" fill="#858585"/>
<path d="M59.7168 36.3877L60.1144 34.4061H59.7963L59.8361 34.0953H60.1541V33.9787C60.1939 33.6679 60.3132 33.357 60.5517 33.2016C60.7107 33.085 60.9095 33.0073 61.1083 33.0073C61.2674 33.0073 61.3866 33.0462 61.4264 33.085L61.3469 33.3959C61.2674 33.357 61.1878 33.357 61.1083 33.357C60.7903 33.357 60.6312 33.6679 60.5517 34.0176V34.1341H61.0686L60.9891 34.445H60.4722L60.0746 36.4266H59.7168V36.3877Z" fill="#858585"/>
<path d="M63.3351 34.134L63.0171 35.7659C62.9773 36.0379 62.9375 36.2322 62.8978 36.4265H62.54L62.6195 35.9991C62.4207 36.3099 62.1026 36.4653 61.7846 36.4653C61.4665 36.4653 61.1484 36.3099 61.1484 35.8048C61.1484 35.6882 61.1484 35.5717 61.1882 35.4163L61.4267 34.134H61.8243L61.5858 35.4163C61.546 35.5328 61.546 35.6494 61.546 35.7659C61.546 35.9991 61.6255 36.1545 61.9038 36.1545C62.1821 36.1545 62.5797 35.8048 62.6592 35.3385L62.8978 34.1729H63.3351V34.134Z" fill="#858585"/>
<path d="M64.6074 33.5901L64.4881 34.1341H65.0447L64.9652 34.4449H64.4086L64.2098 35.5717C64.17 35.6883 64.17 35.8048 64.17 35.9214C64.17 36.0768 64.2496 36.1545 64.4086 36.1545C64.4881 36.1545 64.5279 36.1545 64.6074 36.1545V36.4654C64.5279 36.5042 64.4086 36.5042 64.2893 36.5042C63.9315 36.5042 63.8122 36.3099 63.8122 36.0768C63.8122 35.9602 63.8122 35.8048 63.852 35.6494L64.0905 34.4838H63.7725L63.8122 34.1729H64.1303L64.2098 33.7455L64.6074 33.5901Z" fill="#858585"/>
<path d="M67.3505 34.134L67.0325 35.7659C66.9927 36.0379 66.953 36.2322 66.9132 36.4265H66.5951L66.6747 35.9991C66.4759 36.3099 66.1578 36.4653 65.8397 36.4653C65.5217 36.4653 65.2036 36.3099 65.2036 35.8048C65.2036 35.6882 65.2036 35.5717 65.2434 35.4163L65.4819 34.134H65.8795L65.641 35.4163C65.6012 35.5328 65.6012 35.6494 65.6012 35.7659C65.6012 35.9991 65.6807 36.1545 65.959 36.1545C66.2373 36.1545 66.6349 35.8048 66.7144 35.3385L66.953 34.1729H67.3505V34.134Z" fill="#858585"/>
<path d="M67.6289 36.3877L67.9072 34.9112C67.947 34.6004 67.9867 34.3284 68.0265 34.0953H68.3843C68.3843 34.2507 68.3445 34.4061 68.3048 34.6004C68.4638 34.2895 68.7024 34.0564 69.0204 34.0564C69.0602 34.0564 69.0999 34.0564 69.1397 34.0564L69.0602 34.4449C69.0204 34.4449 68.9807 34.4449 68.9409 34.4449C68.5831 34.4449 68.3048 34.8724 68.1855 35.3775L67.9867 36.3877H67.6289Z" fill="#858585"/>
<path d="M70.8493 36.2711C70.6903 36.3488 70.3722 36.4654 70.0939 36.4654C69.4578 36.4654 69.2192 36.038 69.2192 35.5329C69.2192 34.8335 69.7361 34.0564 70.4915 34.0564C70.9288 34.0564 71.1674 34.3284 71.1674 34.6392C71.1674 35.222 70.4915 35.3775 69.6168 35.3775C69.6168 35.494 69.6168 35.6883 69.6566 35.8049C69.7361 35.9992 69.9349 36.1157 70.1734 36.1157C70.4517 36.1157 70.6505 36.038 70.8096 35.9603L70.8493 36.2711ZM70.73 34.6781C70.73 34.4838 70.571 34.4061 70.3722 34.4061C69.9746 34.4061 69.6963 34.7558 69.6168 35.1443C70.2529 35.1055 70.73 35.0278 70.73 34.6781Z" fill="#858585"/>
<path d="M12.3651 27.3733C12.6434 27.451 13.1205 27.451 13.5181 27.451C16.5397 27.451 18.4879 25.858 18.4879 22.4387C18.4879 19.3692 16.6988 17.9315 13.8759 17.9315C13.1603 17.9315 12.6832 18.0093 12.3651 18.0481V27.3733ZM9.10498 15.7557C10.2977 15.5614 11.888 15.4448 13.5181 15.4448C16.3012 15.4448 18.13 15.8722 19.5216 16.9213C21.0324 18.0093 21.9866 19.7966 21.9866 22.3222C21.9866 25.042 20.9529 26.9071 19.6011 28.0727C18.0505 29.3161 15.7048 29.8989 12.8422 29.8989C11.1326 29.8989 9.90014 29.7823 9.10498 29.7046V15.7557Z" fill="#858585"/>
<path d="M26.5192 19.4856H23.2192V29.821H26.5192V19.4856Z" fill="#858585"/>
<path d="M30.6935 19.4856L32.1247 24.2648C32.3633 25.1196 32.5621 25.9355 32.7211 26.7903H32.8006C32.9597 25.9355 33.1585 25.1584 33.397 24.2648L34.7488 19.4856H38.2077L34.2717 29.821H30.9718L27.1152 19.4856H30.6935Z" fill="#858585"/>
<path d="M44.8472 23.4488C44.8472 22.6717 44.4894 21.3507 43.0184 21.3507C41.6268 21.3507 41.0702 22.594 40.9509 23.4488H44.8472ZM40.9509 25.6247C41.0702 26.9846 42.3822 27.6063 43.9328 27.6063C45.046 27.6063 45.9605 27.4509 46.8351 27.1789L47.2725 29.3548C46.199 29.7822 44.887 30.0153 43.4557 30.0153C39.8775 30.0153 37.8101 27.9949 37.8101 24.731C37.8101 22.1278 39.4799 19.2136 43.1376 19.2136C46.5568 19.2136 47.8291 21.8169 47.8291 24.3813C47.8291 24.9253 47.7496 25.4304 47.7098 25.6636L40.9509 25.6247Z" fill="#858585"/>
<path d="M48.9823 22.866C48.9823 21.3506 48.9426 20.3404 48.9028 19.4856H51.7257L51.8449 21.3895H51.9244C52.4811 19.8741 53.7533 19.2524 54.787 19.2524C55.1051 19.2524 55.2244 19.2913 55.4629 19.3302V22.3608C55.1846 22.322 54.9063 22.2831 54.5485 22.2831C53.3557 22.2831 52.5208 22.9048 52.322 23.9151C52.2823 24.1093 52.2425 24.3425 52.2425 24.6144V29.821H48.9426L48.9823 22.866Z" fill="#858585"/>
<path d="M56.2975 27.0234C56.8938 27.3731 58.1661 27.8005 59.1203 27.8005C60.1142 27.8005 60.5118 27.4897 60.5118 26.9457C60.5118 26.4017 60.1938 26.1298 58.9613 25.7412C56.7746 25.0418 55.8999 23.8762 55.9396 22.6717C55.9396 20.7289 57.6095 19.2913 60.2335 19.2913C61.466 19.2913 62.5395 19.6021 63.1756 19.9129L62.619 22.1277C62.1419 21.8945 61.2275 21.5449 60.313 21.5449C59.5179 21.5449 59.0408 21.8557 59.0408 22.3608C59.0408 22.8659 59.4384 23.1379 60.7504 23.5653C62.778 24.2259 63.5732 25.2361 63.6129 26.7514C63.6129 28.6942 62.0624 30.093 59.0408 30.093C57.6492 30.093 56.4167 29.7821 55.6216 29.3547L56.2975 27.0234Z" fill="#858585"/>
<path d="M71.2466 23.4488C71.2466 22.6717 70.8888 21.3507 69.4178 21.3507C68.0262 21.3507 67.4696 22.594 67.3504 23.4488H71.2466ZM67.3504 25.6247C67.4696 26.9846 68.7816 27.6063 70.3322 27.6063C71.4454 27.6063 72.3599 27.4509 73.2345 27.1789L73.6719 29.3548C72.5984 29.7822 71.2864 30.0153 69.8551 30.0153C66.2769 30.0153 64.2095 27.9949 64.2095 24.731C64.2095 22.1278 65.8793 19.2136 69.537 19.2136C72.9562 19.2136 74.2285 21.8169 74.2285 24.3813C74.2285 24.9253 74.149 25.4304 74.1092 25.6636L67.3504 25.6247Z" fill="#858585"/>
<path d="M77.568 19.4856L79.1583 24.5368C79.3173 25.1585 79.5559 25.8967 79.6751 26.4407H79.7547C79.9137 25.8967 80.0727 25.1196 80.2318 24.5368L81.5438 19.4856H85.0822L82.6172 26.2853C81.1064 30.3651 80.0727 31.997 78.9197 33.0461C77.8065 34.0174 76.574 34.3671 75.7391 34.4448L75.0632 31.725C75.4608 31.6473 75.9776 31.453 76.4945 31.181C76.9716 30.909 77.568 30.4039 77.8463 29.8988C77.9655 29.7434 78.0053 29.588 78.0053 29.4325C78.0053 29.316 77.9655 29.1605 77.886 28.8886L73.9897 19.4468H77.568V19.4856Z" fill="#858585"/>
<path d="M71.4058 34.0174H71.525V33.2403H71.8033V33.1238H71.1274V33.2403H71.4058V34.0174ZM72.7178 34.0174H72.837L72.7973 33.1238H72.6382L72.4792 33.5512C72.4395 33.6677 72.3997 33.7455 72.3997 33.862C72.3599 33.7843 72.3599 33.6677 72.3202 33.5512L72.1612 33.1238H72.0021L71.9226 34.0174H72.0419L72.0816 33.6289C72.0816 33.5123 72.0816 33.3569 72.0816 33.2403C72.1214 33.3569 72.1612 33.4735 72.2009 33.59L72.3599 34.0174H72.4395L72.5985 33.59C72.6383 33.4735 72.678 33.3569 72.7178 33.2403C72.7178 33.3569 72.7178 33.5123 72.7178 33.6289V34.0174Z" fill="#858585"/>
<path d="M61.3072 13.9682C59.6771 13.9294 58.0868 14.3179 56.6157 15.095C58.7627 17.6206 62.8975 18.2811 66.1974 17.0766C64.13 16.7658 62.2614 15.6779 61.3072 13.9682Z" fill="#858585"/>
<g opacity="0.85">
<path d="M75.5404 12.686C76.1766 11.5592 76.6139 10.3547 76.8127 9.15015C75.62 9.34442 74.4272 9.73297 73.314 10.3158C73.1947 11.3649 72.9562 12.3751 72.5586 13.3465C73.5525 12.9968 74.5465 12.8025 75.5404 12.686Z" fill="#858585"/>
</g>
<g opacity="0.7">
<path d="M71.9621 5.80859C70.8489 6.74112 69.9742 7.86791 69.2983 9.11128C69.855 10.2769 70.1333 11.5591 70.2128 12.8025C70.8887 11.7923 71.7236 10.8986 72.7175 10.1604C72.797 8.72272 72.5585 7.24623 71.9621 5.80859Z" fill="#858585"/>
</g>
<g opacity="0.4">
<path d="M65.8395 14.8229C65.0841 13.463 64.6467 11.9865 64.5672 10.4712C63.2552 9.69406 61.7444 9.15009 60.1938 8.95581C60.2734 10.6266 60.7902 12.2585 61.6251 13.6573C63.0962 13.7738 64.5275 14.1624 65.8395 14.8229Z" fill="#858585"/>
</g>
<g opacity="0.55">
<path d="M67.7877 13.2688C67.8274 11.8312 68.1455 10.4324 68.7418 9.11135C68.0262 7.75142 67.0323 6.62462 65.8793 5.73096C65.2829 7.1686 65.0046 8.7228 65.0841 10.277C66.1178 11.093 67.072 12.1032 67.7877 13.2688Z" fill="#858585"/>
</g>
<path d="M68.5034 16.1829C70.7299 15.8721 73.7117 16.1052 75.7791 17.776C77.0911 17.504 79.1983 16.5715 80.5501 15.095C78.0056 13.5408 72.837 13.2299 68.5034 16.1829Z" fill="#858585"/>
<path d="M85.6391 20.3404H85.7584V19.5633H86.0367V19.4468H85.3608V19.5633H85.6391V20.3404ZM86.9512 20.3404H87.0704L87.0307 19.4468H86.8716L86.7126 19.8742C86.6729 19.9907 86.6331 20.0685 86.6331 20.185C86.5933 20.1073 86.5933 19.9907 86.5536 19.8742L86.3946 19.4468H86.2355L86.156 20.3404H86.2753L86.315 19.9519C86.315 19.8353 86.315 19.6799 86.315 19.5633C86.3548 19.6799 86.3945 19.7965 86.4343 19.913L86.5933 20.3404H86.6729L86.8319 19.913C86.8716 19.7965 86.9114 19.6799 86.9512 19.5633C86.9512 19.6799 86.9512 19.8353 86.9512 19.9519V20.3404Z" fill="#858585"/>
</svg>
