<svg width="111" height="19" viewBox="0 0 111 19" fill="none" xmlns="http://www.w3.org/2000/svg">
<path d="M78.0058 5.50981V8.75579H83.9974V18.8415H87.1055V8.75579H93.0952V5.50981H78.0058ZM65.5657 5.50981V15.4796C65.6137 17.4369 66.994 18.8241 68.9061 18.8415H80.6551V15.4796H68.7909V5.50981H65.5657ZM48.9789 15.4796V13.8566H61.6494V10.4947H48.9789V8.75579H61.6494V5.50981H49.2112C47.2569 5.48082 45.8785 6.87003 45.8708 8.75579V15.4796C45.8785 17.4369 47.2588 18.8241 49.2112 18.8415H61.6494V15.4796H48.9789ZM25.7113 5.50981H39.0729C41.0177 5.48082 42.396 6.87003 42.4133 8.75579V15.4796C42.396 17.4369 41.0157 18.8241 39.0729 18.8415H25.7113V5.50981ZM12.6953 18.8415C11.8602 18.8241 11.8314 18.0706 12.1194 17.4504L16.1509 10.9584C16.3294 10.6744 16.5694 10.2802 16.9572 10.2629C17.2298 10.2802 17.4698 10.6725 17.6483 10.9584L21.6817 17.4504C21.9697 18.0706 21.9409 18.8241 21.1039 18.8415H12.6953ZM0.715962 18.8415C-0.050025 18.8164 -0.0807412 18.0841 0.255218 17.5663L4.05444 11.1903C4.28289 10.9082 4.5171 10.5295 4.86074 10.4947C5.15639 10.5295 5.38868 10.9101 5.55186 11.1903L9.46819 17.5663C9.75231 18.0841 9.72543 18.8164 9.00744 18.8415H0.715962ZM6.82082 8.87172C6.06828 8.84467 6.03948 8.11239 6.36008 7.59651L10.2764 1.22047C10.405 0.938379 10.6392 0.557749 10.9694 0.524902C11.2785 0.557749 11.5108 0.938379 11.6586 1.22047L15.575 7.59651C15.8745 8.11432 15.8476 8.84467 15.1142 8.87172H6.82082ZM90.5611 18.8415L97.8178 6.78502C98.58 5.60255 99.4189 5.2992 100.237 5.27795C101.099 5.2992 101.819 5.48082 102.656 6.66909L110.028 18.8415H106.342L104.499 15.8274H96.09L94.2471 18.8415H90.5611Z" fill="#858585"/>
<path d="M28.8208 8.75586H38.4964C38.7075 8.76443 38.9077 8.85267 39.0571 9.00304C39.2065 9.15341 39.2942 9.35487 39.3027 9.56735V14.6682C39.2759 15.1416 38.7959 15.5048 38.3812 15.4797H28.8227V8.75586H28.8208ZM97.9324 12.9293H102.655L100.697 9.79921C100.468 9.40506 100.019 9.40506 99.7754 9.79921L97.9324 12.9293Z" fill="#ECECEC"/>
</svg>
