<svg width="43" height="33" viewBox="0 0 43 33" fill="none" xmlns="http://www.w3.org/2000/svg">
<g clip-path="url(#clip0_891_2399)">
<path d="M15.8118 24.8792C13.7605 24.8792 12.2148 26.537 12.2148 28.7188C12.2148 30.9388 13.8082 32.5489 15.9931 32.5489C17.1666 32.5489 18.1398 32.1297 18.884 31.3103C18.9222 31.2722 18.9413 31.2246 18.9317 31.1674C18.9317 31.1103 18.9031 31.0626 18.8649 31.0245L18.1303 30.3766C18.054 30.3099 17.9395 30.3099 17.8631 30.3766C17.2811 30.9102 16.7277 31.1293 16.0217 31.1293C14.9531 31.1293 13.999 30.3004 13.9418 29.3191H19.1035C19.2084 29.3191 19.2943 29.2428 19.3038 29.138C19.3134 29.0523 19.3134 28.9475 19.3134 28.8427C19.3134 27.747 19.0081 26.7656 18.4451 26.0606C17.825 25.2888 16.909 24.8792 15.8118 24.8792ZM17.6341 28.0805H13.9227C13.9322 27.061 14.7337 26.2988 15.7927 26.2988C16.9281 26.2988 17.6151 27.223 17.6341 28.0805Z" fill="#858585"/>
<path d="M23.7691 28.0804L23.6259 28.0328C22.8245 27.7755 22.1375 27.5564 22.1375 27.08V27.0514C22.1375 26.6227 22.5287 26.3368 23.1394 26.3368C23.6832 26.3368 24.3606 26.5464 25.038 26.9371C25.0857 26.9657 25.143 26.9752 25.1907 26.9561C25.2479 26.9466 25.2861 26.9085 25.3147 26.8609L25.8108 25.9748C25.8681 25.8795 25.8299 25.7652 25.7441 25.708C24.9712 25.2316 24.0362 24.9648 23.1871 24.9648C21.6414 24.9648 20.5537 25.889 20.5537 27.2134V27.242C20.5537 28.6425 21.7368 29.0903 22.8531 29.4047L23.0249 29.4619C23.7977 29.7001 24.4751 29.9002 24.4751 30.4147V30.4433C24.4751 30.9196 24.0553 31.2055 23.3683 31.2055C22.6528 31.2055 21.8609 30.9292 21.1357 30.4147C21.088 30.3861 21.0308 30.367 20.9831 30.3766C20.9258 30.3861 20.8877 30.4147 20.8591 30.4623L20.3057 31.3008C20.2484 31.3865 20.2675 31.5104 20.3534 31.5771C21.2121 32.2059 22.3093 32.5679 23.3397 32.5679C25.0285 32.5679 26.078 31.6819 26.078 30.2432V30.2146C26.0589 28.9569 24.9617 28.4424 23.7691 28.0804Z" fill="#858585"/>
<path d="M33.0334 30.3194C32.957 30.2432 32.833 30.2432 32.7471 30.3194C32.1938 30.853 31.6308 31.1007 30.9916 31.1007C29.7608 31.1007 28.8258 30.0908 28.8258 28.7569C28.8258 27.4611 29.7417 26.4417 30.9057 26.4417C31.5831 26.4417 32.1079 26.6703 32.6613 27.2134C32.6994 27.2515 32.7471 27.2706 32.8044 27.2706C32.8616 27.2706 32.9093 27.2515 32.9475 27.2134L33.749 26.3559C33.8253 26.2797 33.8157 26.1558 33.749 26.0796C32.9952 25.2983 32.0888 24.9363 30.9248 24.9363C28.7781 24.9363 27.1084 26.6322 27.1084 28.795C27.1084 30.9387 28.7781 32.6061 30.9153 32.6061C32.1079 32.6061 32.9761 32.2345 33.8062 31.3579C33.8825 31.2817 33.873 31.1579 33.7967 31.0816L33.0334 30.3194Z" fill="#858585"/>
<path d="M38.4145 24.8792C36.2106 24.8792 34.4836 26.5751 34.4836 28.7379C34.4836 30.8816 36.201 32.5489 38.3859 32.5489C40.5994 32.5489 42.3264 30.8625 42.3264 28.7093C42.3264 27.6708 41.9352 26.718 41.2196 26.0034C40.4945 25.2793 39.5022 24.8792 38.4145 24.8792ZM40.609 28.7379C40.609 30.0813 39.6835 31.0531 38.4145 31.0531C37.1551 31.0531 36.201 30.0432 36.201 28.7093C36.201 27.3659 37.117 26.3941 38.3764 26.3941C39.6549 26.3941 40.609 27.404 40.609 28.7379Z" fill="#858585"/>
<path d="M11.3943 25.0793H10.0968C10.0109 25.0793 9.93456 25.1365 9.90594 25.2223L8.46524 30.0528L6.28035 25.3842C6.25172 25.3271 6.18494 25.2794 6.11815 25.2794C6.05136 25.2794 5.98458 25.3175 5.95595 25.3842L3.79968 30.0528L2.38761 25.2223C2.35899 25.1365 2.28266 25.0793 2.19679 25.0793H0.841963C0.775176 25.0793 0.71793 25.1079 0.679766 25.1651C0.641602 25.2223 0.632061 25.289 0.651143 25.3461L2.91237 32.349C2.94099 32.4347 3.01732 32.4919 3.10319 32.4919H4.35306C4.42939 32.4919 4.50572 32.4442 4.53434 32.368L6.11815 28.7094L7.68288 32.368C7.7115 32.4442 7.78783 32.4919 7.86416 32.4919H9.11403C9.1999 32.4919 9.27623 32.4347 9.30485 32.349L11.5852 25.3461C11.6042 25.289 11.5947 25.2223 11.5565 25.1651C11.5184 25.1079 11.4611 25.0793 11.3943 25.0793Z" fill="#858585"/>
<path d="M32.4608 19.9153L42.2499 1.53638C42.4312 1.19339 42.1831 0.77417 41.7919 0.77417H32.2795C32.0029 0.77417 31.7548 0.926613 31.6308 1.1648L26.5549 10.6925L31.4686 19.9153C31.564 20.0963 31.7548 20.2202 31.9647 20.2202C32.1746 20.2106 32.3654 20.0963 32.4608 19.9153Z" fill="#858585"/>
<path d="M0.727179 1.53679L10.0774 19.0963L15.1818 9.51145L10.7453 1.17473C10.6212 0.936542 10.3636 0.784099 10.0965 0.784099H1.18515C0.793966 0.774571 0.545899 1.18426 0.727179 1.53679Z" fill="#858585"/>
<path d="M10.6692 20.2106H21.0403C21.317 20.2106 21.565 20.0582 21.6891 19.82L26.5455 10.6925L21.6318 1.4792C21.5364 1.29818 21.3456 1.17432 21.1357 1.17432C20.9258 1.17432 20.735 1.28865 20.6396 1.4792L10.6692 20.2106Z" fill="#858585"/>
</g>
<defs>
<clipPath id="clip0_891_2399">
<rect width="41.6847" height="31.832" fill="white" transform="translate(0.641602 0.77417)"/>
</clipPath>
</defs>
</svg>
