<svg width="57" height="33" viewBox="0 0 57 33" fill="none" xmlns="http://www.w3.org/2000/svg">
<g clip-path="url(#clip0_891_2412)">
<mask id="mask0_891_2412" style="mask-type:luminance" maskUnits="userSpaceOnUse" x="1" y="0" width="56" height="33">
<path d="M1.21655 32.4895H56.5389V0.890537H1.21655V32.4895Z" fill="white"/>
</mask>
<g mask="url(#mask0_891_2412)">
<path d="M1.21655 29.7461L1.95213 21.0015H4.67932L5.82367 23.687C6.22425 24.5563 6.62534 25.7241 6.92346 26.7497H6.96239C6.93114 25.5944 6.98237 24.3742 7.0925 23.0646L7.26564 21.0015H9.37865L8.64358 29.7461H6.21093L4.99486 26.8401C4.58712 25.9058 4.12149 24.738 3.80185 23.6745H3.76343C3.71477 24.8548 3.62922 26.1783 3.51038 27.5926L3.32905 29.7461H1.21655Z" fill="#858585"/>
<path d="M12.3445 29.7461L10.3391 21.0015H12.8747L13.4945 24.439C13.6948 25.4127 13.8444 26.3724 13.9545 27.5018H13.9801C14.288 26.4254 14.6163 25.4127 14.9514 24.4785L16.1792 21.0015H18.6375L15.0712 29.7461H12.3445Z" fill="#858585"/>
<path d="M20.8193 21.8658L20.5811 24.6966H24.4209L24.3564 25.4585H20.5171L20.2231 28.9563H24.298L24.2309 29.7524H19.217L19.947 21.0686H24.9613L24.8937 21.8658H20.8193Z" fill="#858585"/>
<path d="M26.0644 23.5666H26.8855L26.8046 24.6737H26.8281C27.095 24.2922 27.4218 23.9928 27.8076 23.7758C28.1943 23.5563 28.5944 23.4478 29.0088 23.4478C29.6982 23.4478 30.191 23.6642 30.4871 24.0966C30.7832 24.5284 30.8928 25.2125 30.8139 26.1483L30.5107 29.7529H29.6655L29.9626 26.2199C30.0271 25.4507 29.962 24.9171 29.7684 24.6197C29.5738 24.3223 29.2101 24.1734 28.6784 24.1734C28.2168 24.1734 27.7804 24.3992 27.3701 24.8512C26.9608 25.3038 26.7308 25.8358 26.6791 26.4452L26.4009 29.7529H25.5439L26.0644 23.5666Z" fill="#858585"/>
<path d="M32.7719 26.3027H36.5282C36.5789 25.6134 36.4591 25.0809 36.1686 24.7092C35.8802 24.3355 35.4525 24.1497 34.8896 24.1497C34.3025 24.1497 33.8205 24.3386 33.445 24.7144C33.069 25.0918 32.8437 25.6206 32.7719 26.3027ZM32.7141 26.993C32.6721 27.6672 32.8288 28.1987 33.1833 28.5874C33.5388 28.9751 34.0326 29.1698 34.6672 29.1698C35.2932 29.1698 35.9059 29.0125 36.5036 28.6954L36.6809 29.3727C35.996 29.7054 35.2773 29.873 34.5254 29.873C33.6489 29.873 32.9645 29.5829 32.4738 29.0042C31.9821 28.425 31.7782 27.6433 31.8601 26.6597C31.9452 25.6611 32.2638 24.8753 32.816 24.3044C33.3692 23.7329 34.0797 23.448 34.9485 23.448C35.7937 23.448 36.4273 23.7189 36.8468 24.2624C37.2664 24.8063 37.4344 25.5854 37.3483 26.6001C37.3401 26.7039 37.3212 26.8341 37.292 26.993H32.7141Z" fill="#858585"/>
<path d="M38.7997 23.5666H39.6337L39.5461 24.887H39.5691C40.3313 23.9279 41.342 23.4478 42.6026 23.4478L42.5386 24.1967C41.6704 24.1967 40.9476 24.4386 40.3703 24.9234C39.794 25.4061 39.4728 26.0331 39.4083 26.8023L39.1598 29.7529H38.2793L38.7997 23.5666Z" fill="#858585"/>
<path d="M43.8354 25.8036C43.7913 26.3268 43.8989 26.7374 44.1601 27.0353C44.4209 27.3327 44.7974 27.4806 45.2912 27.4806C45.7998 27.4806 46.2076 27.3353 46.5139 27.0467C46.8197 26.7571 46.9954 26.3424 47.0415 25.8036C47.0804 25.3277 46.9626 24.9343 46.6881 24.6254C46.412 24.3161 46.0401 24.1609 45.5698 24.1609C45.0852 24.1609 44.6847 24.313 44.3691 24.6135C44.0551 24.9156 43.8769 25.3121 43.8354 25.8036ZM44.9229 31.8596C45.5565 31.8596 46.0554 31.7543 46.4166 31.5441C46.7787 31.3334 46.9754 31.0453 47.0062 30.6815C47.0697 29.9195 46.4406 29.5391 45.118 29.5391C44.4921 29.5391 44.01 29.6444 43.6709 29.8546C43.3323 30.0638 43.149 30.3389 43.1193 30.6815C43.0895 31.0375 43.2325 31.324 43.547 31.5378C43.861 31.7517 44.3194 31.8596 44.9229 31.8596ZM45.4187 23.4478C46.2327 23.4478 46.8171 23.7607 47.1716 24.3882H47.1952L47.2874 23.5666H48.11L47.9277 25.7315C47.795 27.3021 46.8986 28.0884 45.2399 28.0884C44.7856 28.0884 44.3896 28.0079 44.051 27.8496C43.8794 28.0245 43.7882 28.1709 43.779 28.2898C43.7642 28.4642 43.881 28.6157 44.1284 28.7418C44.3758 28.869 44.7231 28.9328 45.1687 28.9328C47.0712 28.9328 47.9743 29.5033 47.878 30.6456C47.8314 31.2005 47.5435 31.6474 47.0138 31.9837C46.4847 32.3216 45.7701 32.4897 44.8696 32.4897C44.0167 32.4897 43.3662 32.3309 42.9195 32.0143C42.4728 31.6967 42.2725 31.268 42.3181 30.7287C42.3447 30.4116 42.4897 30.1199 42.7551 29.8546C43.0204 29.5889 43.3733 29.3927 43.8144 29.2655L43.8164 29.2417C43.2299 29.0517 42.9538 28.7465 42.9886 28.3256C43.0137 28.0323 43.1792 27.7422 43.4845 27.4572C43.0972 27.0529 42.9313 26.5017 42.9902 25.8036C43.0491 25.0972 43.3026 24.5284 43.7498 24.0965C44.1965 23.6642 44.7538 23.4478 45.4187 23.4478Z" fill="#858585"/>
<path d="M50.1742 23.5666L51.7038 28.6951H51.7268L53.9899 23.5666H54.9288L52.0372 29.7529C51.5409 30.8169 51.044 31.5378 50.5466 31.9188C50.0487 32.2993 49.3807 32.4897 48.5432 32.4897L48.5576 31.7636C49.1912 31.7636 49.6937 31.625 50.0656 31.3479C50.4375 31.0692 50.8053 30.5382 51.169 29.7529L49.2117 23.5666H50.1742Z" fill="#858585"/>
<path d="M47.4782 17.2778L18.4453 5.57426L16.8071 7.75678L47.4782 17.2778Z" fill="#858585"/>
<path d="M47.366 17.7043L15.4568 9.55612L13.3525 12.3599L47.366 17.7043Z" fill="#858585"/>
<path d="M47.334 18.1304L11.8775 14.3254L9.02173 18.1304H47.334Z" fill="#858585"/>
<path d="M33.697 10.1252L28.0833 0.890693L26.4124 3.11784L33.697 10.1252Z" fill="#858585"/>
<path d="M25.7037 4.06183L24.2095 6.0523L33.4975 10.3416L25.7037 4.06183Z" fill="#858585"/>
<path d="M36.1877 8.92683L34.6499 10.9754L47.6491 16.9084L36.1877 8.92683Z" fill="#858585"/>
<path d="M47.888 16.5662L38.3495 6.0465L36.8337 8.06604L47.888 16.5662Z" fill="#858585"/>
<path d="M56.2783 29.2424L56.2968 28.4992C56.3004 28.4021 56.3111 28.2817 56.3178 28.1473H56.3045C56.2625 28.2584 56.2133 28.4068 56.1667 28.5231L55.8814 29.2237H55.6247L55.4623 28.5044C55.4475 28.4068 55.4234 28.2584 55.406 28.1473H55.3922C55.3819 28.263 55.3671 28.384 55.3522 28.4992L55.2426 29.2424H55.0039L55.2047 27.9796H55.5761L55.7384 28.5973C55.7574 28.6943 55.7722 28.7878 55.7938 28.918H55.7973C55.8399 28.8018 55.8767 28.6943 55.9126 28.602L56.1815 27.9796H56.5386L56.5263 29.2424H56.2783ZM55.0397 27.9796L55.0223 28.1883H54.6223L54.5321 29.2424H54.2847L54.3754 28.1883H53.9763L53.9948 27.9796H55.0397Z" fill="#858585"/>
</g>
</g>
<defs>
<clipPath id="clip0_891_2412">
<rect width="55.8753" height="32.1474" fill="white" transform="translate(0.939941 0.616455)"/>
</clipPath>
</defs>
</svg>
