<svg width="71" height="23" viewBox="0 0 71 23" fill="none" xmlns="http://www.w3.org/2000/svg">
<path d="M8.62977 14.991L14.1099 9.55383C14.1482 9.47725 14.2249 9.43896 14.2249 9.32409C14.2249 9.2475 14.2249 9.17093 14.1866 9.09435C14.1482 9.01777 14.1099 8.94118 14.0333 8.90289C13.9566 8.8646 13.88 8.82632 13.8033 8.82632H9.89442C9.8561 8.82632 9.77945 8.82631 9.74113 8.8646C9.70281 8.90289 9.62616 8.90289 9.58784 8.94118L4.60589 13.9955V0.938565C4.60589 0.900275 4.60589 0.823695 4.56756 0.785405C4.52924 0.747115 4.52924 0.670534 4.49092 0.670534C4.4526 0.632244 4.41427 0.593955 4.33763 0.593955C4.29931 0.555665 4.22266 0.555664 4.18434 0.555664H0.85026C0.811938 0.555664 0.735293 0.555665 0.69697 0.593955C0.582002 0.632245 0.505357 0.708825 0.467034 0.823695C0.428711 0.861985 0.428711 0.938565 0.428711 0.976855V22.0747C0.428711 22.113 0.428711 22.1895 0.467034 22.2278C0.505357 22.3427 0.582002 22.4193 0.69697 22.4576C0.735293 22.4959 0.811938 22.4959 0.85026 22.4959H4.22266C4.26098 22.4959 4.33763 22.4959 4.37595 22.4576C4.41427 22.4193 4.49092 22.4193 4.52924 22.381C4.56756 22.3427 4.60589 22.3044 4.60589 22.2661C4.64421 22.2278 4.64421 22.1513 4.64421 22.113V18.9349C4.64421 18.5137 4.91247 18.0925 5.33402 17.9393C5.52563 17.8628 5.75557 17.8628 5.94718 17.9011C6.1388 17.9393 6.33041 18.0542 6.4837 18.2457L10.1244 22.381C10.201 22.4576 10.316 22.5342 10.4309 22.5342H14.6464C14.7231 22.5342 14.7997 22.4959 14.8764 22.4576C14.953 22.4193 14.9913 22.3427 15.0297 22.2661C15.068 22.1895 15.068 22.113 15.068 22.0364C15.068 21.9598 15.0297 21.8832 14.953 21.8066L8.62977 14.991Z" fill="#858585"/>
<path d="M49.9797 0.51709H53.3137C53.5437 0.51709 53.7353 0.708539 53.7353 0.93828V22.0361C53.7353 22.2658 53.5437 22.4573 53.3137 22.4573H49.9797C49.7497 22.4573 49.5581 22.2658 49.5581 22.0361V0.93828C49.5581 0.82341 49.5964 0.70854 49.6731 0.63196C49.7497 0.55538 49.8647 0.51709 49.9797 0.51709Z" fill="#858585"/>
<path d="M22.6556 8.48145C18.8234 8.48145 15.6809 11.7361 15.6809 15.6034C15.6809 19.509 18.8234 22.8019 22.6556 22.8019C26.4879 22.8019 29.6304 19.5473 29.6304 15.6034C29.6304 11.7361 26.5262 8.48145 22.6556 8.48145ZM22.6556 19.0878C20.8162 19.0878 19.3982 17.5179 19.3982 15.5651C19.2832 13.7655 20.6629 12.1956 22.464 12.119C24.2652 12.0041 25.8364 13.3826 25.9131 15.1822C25.9131 15.2971 25.9131 15.4502 25.9131 15.5651C25.9131 17.5179 24.4568 19.0878 22.6556 19.0878Z" fill="#858585"/>
<path d="M32.4663 5.68634C33.1561 5.03541 33.6543 4.19303 33.9609 3.31236C34.2292 2.43169 34.3441 1.55101 34.2292 0.632053C32.3514 0.402313 30.5119 1.05324 29.1706 2.39339C27.8293 3.73355 27.1778 5.60976 27.4077 7.44768C28.3275 7.56255 29.2089 7.44768 30.0903 7.17965C31.0101 6.87333 31.8148 6.33727 32.4663 5.68634Z" fill="#858585"/>
<path d="M45.3045 8.82606H42.3154C42.2004 8.82606 42.0854 8.86434 42.0088 8.94092C41.9321 9.0175 41.8938 9.13238 41.8938 9.24725V10.0896C40.8208 9.05579 39.4411 8.51974 37.9849 8.48145C34.5358 8.48145 31.7383 11.7361 31.7383 15.6034C31.7383 19.509 34.5358 22.8019 37.9849 22.8019C39.1729 22.8019 40.2842 22.419 41.2423 21.7298C41.319 21.6915 41.3956 21.6532 41.4723 21.6532C41.5489 21.6532 41.6255 21.6532 41.7022 21.6915C41.8555 21.7681 41.9321 21.9213 41.9321 22.0744V22.3042C41.9321 22.3424 41.9321 22.3807 41.9704 22.419C42.0088 22.4573 42.0471 22.4573 42.0854 22.4573H45.3045C45.5345 22.4573 45.7261 22.2659 45.7261 22.0361V9.24725C45.7261 9.13238 45.6877 9.0175 45.6111 8.94092C45.5345 8.86434 45.4195 8.82606 45.3045 8.82606ZM38.9046 19.0878C37.0651 19.0878 35.6472 17.5179 35.6472 15.5651C35.5322 13.7655 36.9118 12.1956 38.713 12.119C40.5142 12.0041 42.0854 13.3826 42.1621 15.1822C42.1621 15.2971 42.1621 15.4502 42.1621 15.5651C42.2004 17.5179 40.7058 19.0878 38.9046 19.0878Z" fill="#858585"/>
<path d="M70.138 8.82606H67.1488C67.0339 8.82606 66.9189 8.86434 66.8423 8.94092C66.7656 9.0175 66.7273 9.13238 66.7273 9.24725V10.0896C65.6543 9.05579 64.2746 8.51974 62.8184 8.48145C59.3693 8.48145 56.5718 11.7361 56.5718 15.6034C56.5718 19.509 59.3693 22.8019 62.8184 22.8019C64.0064 22.8019 65.1177 22.419 66.0758 21.7298C66.1525 21.6915 66.2291 21.6532 66.3057 21.6532C66.3824 21.6532 66.459 21.6532 66.5357 21.6915C66.689 21.7681 66.7656 21.9213 66.7656 22.0744V22.3042C66.7656 22.3424 66.7656 22.3807 66.8039 22.419C66.8423 22.4573 66.8806 22.4573 66.9189 22.4573H70.138C70.368 22.4573 70.5596 22.2659 70.5596 22.0361V9.24725C70.5596 9.13238 70.5212 9.0175 70.4446 8.94092C70.368 8.86434 70.253 8.82606 70.138 8.82606ZM63.7381 19.0878C61.8986 19.0878 60.4807 17.5179 60.4807 15.5651C60.3657 13.7655 61.7453 12.1956 63.5465 12.119C65.3477 12.0041 66.9189 13.3826 66.9956 15.1822C66.9956 15.2971 66.9956 15.4502 66.9956 15.5651C66.9956 17.5179 65.5393 19.0878 63.7381 19.0878Z" fill="#858585"/>
</svg>
