<svg width="88" height="27" viewBox="0 0 88 27" fill="none" xmlns="http://www.w3.org/2000/svg">
<path fill-rule="evenodd" clip-rule="evenodd" d="M16.5255 12.4635C18.9389 10.4065 22.1037 9.69422 25.1495 9.02161C26.7713 8.62608 28.512 8.58642 30.1338 8.30935C34.9997 7.91382 39.7862 7.87417 44.6917 7.91382C45.3643 7.00429 45.8788 5.8965 46.6694 5.14459C48.5687 2.85019 51.4564 1.46582 54.4239 0.872028C55.0559 0.753566 55.6497 0.634608 56.2826 0.555303C52.0824 0.265033 47.8735 0.119885 43.6632 0.120117C19.611 0.120117 0.10791 4.43233 0.10791 9.77303C0.10791 12.7004 6.12072 15.3506 15.5759 17.0914C15.4177 16.9338 15.3384 16.735 15.22 16.5377C14.6663 15.0344 15.2993 13.4131 16.5255 12.4635ZM62.7713 1.10945C63.5227 1.30722 64.235 1.66359 64.6706 2.37535C65.0657 3.08761 65.263 4.03679 64.8679 4.7094C62.7311 8.62608 57.6289 7.87417 53.5541 7.99312C53.3955 7.91382 52.5251 8.11159 52.8017 7.75571C54.7793 5.02612 56.8764 1.46582 60.7138 0.911681H61.1485C61.6635 0.911681 62.2176 0.951334 62.7713 1.10945Z" fill="#858585"/>
<path fill-rule="evenodd" clip-rule="evenodd" d="M43.664 19.386C67.7162 19.386 87.2193 15.0743 87.2193 9.77326C87.2193 6.76661 81.0876 4.11634 71.4346 2.33594C71.8307 2.77112 72.0676 3.32477 72.1072 3.99738C72.1469 5.97554 70.4458 7.43922 68.7442 8.11133C63.6018 9.45654 57.6683 9.06101 52.0902 9.06101C51.5752 9.49619 51.2594 9.97103 50.8634 10.5247C48.6087 13.7683 46.5913 18.6743 42.2786 19.3464L43.664 19.386ZM43.664 9.45654C43.7829 9.21912 43.545 8.94204 43.2685 8.94204C37.1763 8.9817 31.0446 8.82359 25.8228 10.9202C24.1614 11.8297 22.6184 13.0168 22.1044 14.9152C21.9067 15.7866 21.9067 16.7749 22.6184 17.4079C23.4491 18.2386 24.5569 18.4755 25.7044 18.4755C27.168 18.5152 28.6317 18.1201 29.344 16.9335C29.4624 16.4978 29.8976 16.1415 29.6607 15.6275C29.1462 15.3504 28.4736 15.4302 27.9596 15.2711C27.6825 15.0337 27.9596 14.7967 28.0389 14.5995L28.5138 14.3224L36.3863 14.3621C36.7025 14.5197 36.6237 14.994 36.5444 15.3107C35.7925 17.4074 33.8545 18.5548 31.7578 19.0292C32.826 19.0688 33.9338 19.1481 35.0416 19.1878C39.1937 17.566 41.5277 13.1754 43.664 9.45654Z" fill="#858585"/>
<path fill-rule="evenodd" clip-rule="evenodd" d="M13.2424 25.241C13.2424 24.727 13.2028 24.6477 12.8469 24.5684H12.5698C12.5301 24.5684 12.4905 24.5297 12.4905 24.5297C12.4905 24.4901 12.5301 24.4504 12.6095 24.4504C13.005 24.4504 13.5586 24.4901 13.6379 24.4901C13.6776 24.4901 14.2317 24.4504 14.4687 24.4504C14.5871 24.4504 14.6268 24.4901 14.6268 24.5297C14.6268 24.5297 14.5871 24.5684 14.5475 24.5684H14.3497C14.1123 24.6081 14.033 24.727 13.9933 24.9248V26.3101C13.9933 26.5872 13.9933 26.5872 13.8749 26.6259C13.3212 26.8638 12.5301 26.9029 12.0157 26.9029C11.3431 26.9029 10.0771 26.8643 9.12747 26.2313C8.57382 25.9146 8.05933 25.242 8.05933 24.4509C8.05933 23.4219 8.77158 22.7102 9.523 22.394C10.3141 22.0376 11.1844 21.9583 11.8967 21.9583C12.4503 21.9583 13.0436 22.0376 13.2018 22.0772C13.3995 22.1169 13.7163 22.1169 13.914 22.1565C14.0325 22.1565 14.0325 22.1565 14.0325 22.1962C14.0325 22.2745 13.9532 22.4733 13.9532 23.1052C13.9532 23.1845 13.9532 23.2242 13.8739 23.2242C13.8342 23.2242 13.8342 23.1845 13.8342 23.1449C13.8342 23.0666 13.7946 22.8678 13.6365 22.7102C13.4387 22.4728 12.7269 22.1962 11.5795 22.1962C11.0253 22.1962 10.3924 22.2358 9.72027 22.6309C9.20578 22.908 8.8499 23.5013 8.8499 24.2135C8.8499 25.1235 9.4432 25.7555 9.75943 25.9939C10.4717 26.4683 11.2628 26.6655 12.0538 26.6655C12.3705 26.6655 12.8449 26.6259 13.0823 26.5079C13.2008 26.4683 13.2404 26.3889 13.2404 26.3106V25.241H13.2424ZM16.6446 23.8963V22.5119C16.6049 22.3137 16.5261 22.1952 16.2491 22.1555H15.972C15.9323 22.1555 15.8927 22.1159 15.8927 22.1159C15.8927 22.0762 15.9323 22.0762 16.0116 22.0762H18.1083C19.2161 22.0762 19.6116 22.3137 19.7697 22.4326C19.9675 22.5506 20.2049 22.8277 20.2049 23.184C20.2049 24.0544 19.2949 24.6874 18.029 24.6874C17.9893 24.6874 17.9105 24.6874 17.8708 24.6477C17.7915 24.6477 17.7524 24.6477 17.7524 24.6081C17.7524 24.5684 17.792 24.5684 17.9898 24.5684C18.8602 24.5684 19.5323 24.1337 19.5323 23.5404C19.5323 23.3431 19.4926 22.9075 19.0183 22.5511C18.5435 22.2353 18.029 22.2353 17.8312 22.2353C17.6731 22.2353 17.5145 22.274 17.4357 22.274C17.396 22.3137 17.3564 22.3533 17.3564 22.393V25.0041C17.3564 25.5974 17.3564 26.1114 17.396 26.3885C17.4357 26.5471 17.4753 26.7052 17.7519 26.7052C17.8704 26.7448 18.0681 26.7448 18.1474 26.7448C18.1871 26.7448 18.2267 26.7845 18.2267 26.7845C18.2267 26.8241 18.1871 26.8241 18.0686 26.8241H16.1698C16.0513 26.8241 16.0116 26.8241 16.0116 26.7845C16.0116 26.7845 16.0513 26.7448 16.0909 26.7448C16.1698 26.7448 16.2887 26.7448 16.368 26.7052C16.5261 26.7052 16.5658 26.5476 16.6054 26.3885C16.6451 26.1114 16.6451 25.5974 16.6451 25.0041L16.6446 23.8963ZM24.3981 26.7443C24.2797 26.7047 24.2797 26.665 24.2797 26.5069C24.2797 26.1902 24.3193 25.9533 24.3193 25.8343C24.3193 25.755 24.359 25.755 24.3986 25.755C24.4383 25.755 24.4775 25.755 24.4775 25.7947V26.0321C24.6361 26.5074 25.1897 26.665 25.783 26.665C26.6529 26.665 27.0489 26.2303 27.0489 25.8343C27.0489 25.3996 26.8115 25.1617 26.0199 24.727L25.6244 24.4896C24.7149 23.9359 24.477 23.5399 24.477 23.1042C24.477 22.4326 25.1892 21.9573 26.3362 21.9573C26.6524 21.9573 26.9295 21.9969 27.1272 22.0366C27.2853 22.0762 27.3647 22.0762 27.444 22.0762C27.5233 22.0762 27.5233 22.0762 27.5233 22.1159C27.5233 22.1555 27.4836 22.3533 27.4836 22.7875C27.4836 22.8668 27.4836 22.9065 27.444 22.9065C27.3647 22.9065 27.3647 22.9065 27.3647 22.8272C27.3647 22.7875 27.2853 22.5897 27.2462 22.5114C27.2065 22.4718 26.9691 22.1947 26.1384 22.1947C25.5451 22.1947 25.0703 22.4718 25.0703 22.9065C25.0703 23.3025 25.3077 23.4998 26.1384 23.9741L26.3758 24.1327C27.444 24.726 27.6814 25.0824 27.6814 25.5964C27.6814 25.8735 27.5233 26.3478 26.9295 26.664C26.5339 26.8623 26.0591 26.9015 25.5848 26.9015C25.1892 26.9024 24.7937 26.8633 24.3981 26.7443ZM31.8751 25.0036C31.8751 25.5969 31.8751 26.1109 31.9148 26.388C31.9544 26.5466 31.9941 26.7047 32.2712 26.7047C32.3896 26.7443 32.5482 26.7443 32.627 26.7443C32.7063 26.7443 32.7063 26.784 32.7063 26.784C32.7063 26.8236 32.6667 26.8236 32.5879 26.8236H30.6494C30.5304 26.8236 30.4913 26.8236 30.4913 26.784C30.4913 26.784 30.5309 26.7443 30.5706 26.7443C30.6499 26.7443 30.7287 26.7443 30.808 26.7047C31.0057 26.7047 31.0454 26.5471 31.0851 26.388C31.1247 26.1109 31.1247 25.5969 31.1247 25.0036V22.3132L29.8191 22.3528C29.2655 22.3528 29.0677 22.3925 28.9096 22.5501C28.8303 22.669 28.7912 22.7087 28.7912 22.7484C28.7515 22.787 28.7119 22.787 28.6722 22.787C28.6722 22.787 28.6325 22.787 28.6325 22.7484C28.6325 22.669 28.8303 22.155 28.8303 22.0757C28.87 22.0361 28.87 21.9568 28.9096 21.9568C28.9884 21.9568 29.0677 22.0361 29.3051 22.0361C29.5822 22.0757 29.8985 22.0757 30.0174 22.0757H33.3011C33.5782 22.0757 33.776 22.0757 33.9341 22.0361C34.0525 22.0361 34.1319 21.9964 34.1715 21.9964C34.2112 21.9964 34.2112 22.0361 34.2112 22.0757V22.7875C34.2112 22.8272 34.1715 22.8668 34.1319 22.8668C34.0922 22.8668 34.0525 22.8272 34.0525 22.7488V22.6695C34.0129 22.5119 33.8151 22.3528 32.9844 22.3528L31.8766 22.3132V25.0036H31.8751ZM50.1515 25.0036C50.1515 25.5969 50.1515 26.1109 50.1911 26.388C50.2308 26.5466 50.2704 26.7047 50.5475 26.7047C50.6665 26.7443 50.8642 26.7443 50.9435 26.7443C50.9822 26.7443 50.9822 26.784 50.9822 26.784C50.9822 26.8236 50.9435 26.8236 50.8642 26.8236H48.9262C48.8073 26.8236 48.7676 26.8236 48.7676 26.784C48.7676 26.784 48.8073 26.7443 48.8469 26.7443C48.9262 26.7443 49.0442 26.7443 49.0843 26.7047C49.2816 26.7047 49.3217 26.5471 49.3614 26.388C49.4011 26.1109 49.4011 25.5969 49.4011 25.0036V22.3132L48.095 22.3528C47.5413 22.3528 47.3436 22.3925 47.185 22.5501C47.1067 22.669 47.067 22.7087 47.067 22.7484C47.0274 22.787 46.9877 22.787 46.948 22.787C46.948 22.787 46.9084 22.787 46.9084 22.7484C46.9084 22.669 47.1067 22.155 47.1067 22.0757C47.1463 22.0361 47.1463 21.9568 47.185 21.9568C47.2643 21.9568 47.3436 22.0361 47.581 22.0361C47.8581 22.0757 48.1743 22.0757 48.2938 22.0757H51.5765C51.8536 22.0757 52.0518 22.0757 52.2094 22.0361C52.3284 22.0361 52.4077 21.9964 52.4469 21.9964C52.4865 21.9964 52.4865 22.0361 52.4865 22.0757V22.7875C52.4865 22.8272 52.4469 22.8668 52.4082 22.8668C52.3685 22.8668 52.3289 22.8272 52.3289 22.7488V22.6695C52.2892 22.5119 52.0915 22.3528 51.2612 22.3528L50.153 22.3132V25.0036H50.1515ZM54.1871 23.8963C54.1871 22.907 54.1871 22.7092 54.1475 22.5119C54.1475 22.3137 54.0681 22.1952 53.7911 22.1555H53.4744C53.4347 22.1555 53.3951 22.1159 53.3951 22.1159C53.3951 22.0762 53.4347 22.0762 53.5537 22.0762H56.5593C56.7179 22.0762 56.876 22.0366 56.9157 22.0366C56.9553 22.0366 56.995 21.9969 57.0347 21.9969C57.0743 21.9969 57.0743 22.0366 57.0743 22.0762C57.0743 22.1159 57.0347 22.1952 57.0347 22.3533C56.995 22.4326 56.995 22.7097 56.9553 22.788C56.9553 22.8277 56.9553 22.8673 56.9157 22.8673C56.876 22.8673 56.8364 22.8277 56.8364 22.7493C56.8364 22.7097 56.8364 22.6304 56.7977 22.5511C56.7184 22.4331 56.6391 22.3538 56.1648 22.3137H54.9777C54.938 22.3137 54.8984 22.3137 54.8984 22.3533V24.0941C54.8984 24.1337 54.938 24.1734 54.9777 24.1734H56.362C56.5593 24.1337 56.7184 24.1337 56.7977 24.0544C56.8364 24.0148 56.876 23.9751 56.9157 23.9751C56.9157 23.9751 56.9553 24.0148 56.9553 24.0544C56.9553 24.0941 56.9157 24.1734 56.876 24.4108C56.876 24.5297 56.8364 24.7672 56.8364 24.8068C56.8364 24.8465 56.8364 24.9248 56.7977 24.9248C56.7581 24.9248 56.7184 24.8851 56.7184 24.8465C56.7184 24.8068 56.7184 24.7275 56.6788 24.6482C56.6391 24.5689 56.5598 24.4509 56.2431 24.4509C56.0057 24.4113 55.1358 24.4113 54.9777 24.4113C54.938 24.4113 54.8984 24.4113 54.8984 24.4509V26.0722C54.938 26.5079 55.056 26.5872 55.9264 26.5872C56.1643 26.5872 56.5593 26.5872 56.7977 26.5476C56.995 26.4683 57.1135 26.3493 57.1531 26.0722C57.1928 25.9939 57.1928 25.9939 57.2324 25.9939C57.3117 25.9939 57.3117 26.0326 57.3117 26.0722C57.3117 26.1119 57.2324 26.5476 57.1928 26.7052C57.1135 26.8638 57.0352 26.8638 56.7184 26.8638C55.3727 26.8638 54.7794 26.8241 54.542 26.8241H53.6716C53.5923 26.8241 53.5537 26.8241 53.5537 26.7845C53.5537 26.7845 53.5537 26.7448 53.5923 26.7448C53.6716 26.7448 53.7906 26.7448 53.8704 26.7052C54.0677 26.7052 54.1078 26.5476 54.1475 26.3885C54.1871 26.1114 54.1871 25.5974 54.1871 25.0041V23.8963ZM63.7211 25.241C63.7211 24.727 63.6814 24.6477 63.325 24.5684H63.0083C62.9687 24.5684 62.929 24.5297 62.929 24.5297C62.929 24.4901 62.9687 24.4504 63.0876 24.4504C63.4836 24.4504 64.0373 24.4901 64.076 24.4901C64.1156 24.4901 64.6702 24.4504 64.9463 24.4504C65.0256 24.4504 65.0653 24.4901 65.0653 24.5297L65.0256 24.5684H64.7882C64.5508 24.6081 64.4715 24.727 64.4715 24.9248C64.4318 25.123 64.4318 25.3208 64.4318 25.5974V26.3101C64.4318 26.5872 64.4318 26.5872 64.3139 26.6259C63.7602 26.8638 62.9682 26.9029 62.4542 26.9029C61.7816 26.9029 60.5558 26.8643 59.5665 26.2313C59.0525 25.9146 58.5375 25.242 58.5375 24.4509C58.5375 23.4219 59.2101 22.7102 60.0012 22.394C60.7932 22.0376 61.6636 21.9583 62.3352 21.9583C62.8898 21.9583 63.5223 22.0376 63.6809 22.0772C63.8782 22.1169 64.1553 22.1169 64.3927 22.1565C64.472 22.1565 64.472 22.1565 64.472 22.1962C64.5116 22.2745 64.4323 22.4733 64.4323 23.1052C64.4323 23.1845 64.4323 23.2242 64.354 23.2242C64.3144 23.2242 64.3144 23.1845 64.2747 23.1449C64.2747 23.0666 64.2351 22.8678 64.1161 22.7102C63.8787 22.4728 63.1674 22.1962 62.0591 22.1962C61.5055 22.1962 60.8334 22.2358 60.1608 22.6309C59.6468 22.908 59.2904 23.5013 59.2904 24.2135C59.2904 25.1235 59.9233 25.7555 60.2401 25.9939C60.9117 26.4683 61.7037 26.6655 62.5345 26.6655C62.8512 26.6655 63.2859 26.6259 63.5228 26.5079C63.6418 26.4683 63.7211 26.3889 63.7211 26.3106V25.241ZM67.8355 25.0036C67.8355 25.5969 67.8355 26.1109 67.8742 26.388C67.9138 26.5466 67.9535 26.7047 68.2305 26.7047C68.3495 26.7443 68.5473 26.7443 68.6266 26.7443C68.6662 26.7443 68.7059 26.784 68.7059 26.784C68.7059 26.8236 68.6662 26.8236 68.5473 26.8236H66.6093C66.5299 26.8236 66.4903 26.8236 66.4903 26.784C66.4903 26.784 66.4903 26.7443 66.5299 26.7443C66.6093 26.7443 66.7272 26.7443 66.807 26.7047C67.0053 26.7047 67.0444 26.5471 67.0841 26.388C67.1237 26.1109 67.1237 25.5969 67.1237 25.0036V23.8963C67.1237 22.907 67.1237 22.7092 67.0841 22.5119C67.0841 22.3137 67.0058 22.1952 66.807 22.1555H66.5299C66.4903 22.1555 66.4506 22.1159 66.4506 22.1159C66.4506 22.0762 66.4903 22.0762 66.6093 22.0762H68.35C68.4293 22.0762 68.468 22.0762 68.468 22.1159L68.4293 22.1555H68.1914C67.954 22.1952 67.8747 22.3132 67.8747 22.5119C67.836 22.7092 67.836 22.907 67.836 23.8963L67.8355 25.0036ZM70.9601 23.8963V22.5119C70.9205 22.3137 70.8808 22.1952 70.5641 22.1555H70.287C70.2474 22.1555 70.2077 22.1159 70.2077 22.1159C70.2077 22.0762 70.2474 22.0762 70.3663 22.0762H73.373C73.5306 22.0762 73.6501 22.0366 73.7284 22.0366C73.768 22.0366 73.8077 21.9969 73.8473 21.9969C73.887 21.9969 73.887 22.0366 73.887 22.0762C73.887 22.1159 73.8473 22.1952 73.8077 22.3533C73.8077 22.4326 73.8077 22.7097 73.768 22.788C73.768 22.8277 73.768 22.8673 73.7284 22.8673C73.6501 22.8673 73.6501 22.8277 73.6501 22.7493C73.6501 22.7097 73.6501 22.6304 73.6104 22.5511C73.5311 22.4331 73.4518 22.3538 72.9774 22.3137H71.7507C71.7507 22.3137 71.711 22.3137 71.711 22.3533V24.0941C71.711 24.1337 71.711 24.1734 71.7507 24.1734H73.1747C73.373 24.1337 73.4914 24.1337 73.5707 24.0544C73.6501 24.0148 73.6897 23.9751 73.6897 23.9751C73.7284 23.9751 73.768 24.0148 73.768 24.0544C73.768 24.0941 73.6897 24.1734 73.6897 24.4108C73.65 24.5297 73.6501 24.7672 73.6501 24.8068C73.6501 24.8465 73.6501 24.9248 73.5707 24.9248C73.5311 24.9248 73.5311 24.8851 73.5311 24.8465C73.5311 24.8068 73.5311 24.7275 73.4914 24.6482C73.4518 24.5689 73.3735 24.4509 73.0171 24.4509C72.7797 24.4113 71.9098 24.4113 71.7903 24.4113C71.7507 24.4113 71.711 24.4113 71.711 24.4509V26.0722C71.7507 26.5079 71.8697 26.5872 72.74 26.5872C72.9774 26.5872 73.3333 26.5872 73.5707 26.5476C73.8082 26.4683 73.8875 26.3493 73.9668 26.0722C73.9668 25.9939 74.0054 25.9939 74.0451 25.9939C74.0847 25.9939 74.0847 26.0326 74.0847 26.0722C74.0847 26.1119 74.0451 26.5476 73.9668 26.7052C73.9271 26.8638 73.8478 26.8638 73.5311 26.8638C72.1864 26.8638 71.5931 26.8241 71.3557 26.8241H70.4843C70.406 26.8241 70.3267 26.8241 70.3267 26.7845C70.3267 26.7845 70.3663 26.7448 70.406 26.7448C70.4843 26.7448 70.6033 26.7448 70.6831 26.7052C70.8407 26.7052 70.8803 26.5476 70.9205 26.3885C70.9601 26.1114 70.9601 25.5974 70.9601 25.0041V23.8963ZM75.7863 26.7443C75.6287 26.7047 75.6287 26.665 75.6287 26.5069C75.6287 26.1902 75.6684 25.9533 75.6684 25.8343C75.708 25.755 75.708 25.755 75.7467 25.755C75.7863 25.755 75.826 25.755 75.826 25.7947V26.0321C75.9846 26.5074 76.5387 26.665 77.132 26.665C78.0024 26.665 78.3975 26.2303 78.3975 25.8343C78.3975 25.3996 78.16 25.1617 77.3695 24.727L76.9734 24.4896C76.0634 23.9359 75.8661 23.5399 75.8661 23.1042C75.8661 22.4326 76.5387 21.9573 77.6862 21.9573C78.0029 21.9573 78.2795 21.9969 78.4773 22.0366C78.6359 22.0762 78.7147 22.0762 78.794 22.0762C78.8733 22.0762 78.8733 22.0762 78.8733 22.1159C78.8733 22.1555 78.8336 22.3533 78.8336 22.7875C78.8336 22.8668 78.8336 22.9065 78.794 22.9065C78.7147 22.9065 78.7147 22.9065 78.7147 22.8272C78.7147 22.7875 78.6364 22.5897 78.5967 22.5114C78.5571 22.4718 78.3196 22.1947 77.4894 22.1947C76.8951 22.1947 76.4208 22.4718 76.4208 22.9065C76.4208 23.3025 76.6582 23.4998 77.4894 23.9741L77.7268 24.1327C78.7945 24.726 79.0319 25.0824 79.0319 25.5964C79.0319 25.8735 78.8743 26.3478 78.2805 26.664C77.8845 26.8623 77.4101 26.9015 76.9348 26.9015C76.5382 26.9024 76.1422 26.8633 75.7863 26.7443ZM47.5404 26.7443C47.462 26.7443 47.3029 26.7443 47.184 26.7047C46.9867 26.665 46.7493 26.5867 46.4326 25.9929C45.8789 25.0432 44.4945 22.4321 44.3756 22.1952C44.2566 21.9969 44.2566 21.9573 44.1783 21.9573C44.1387 21.9573 44.099 21.9969 43.9801 22.2353L42.0024 26.151C41.8443 26.4678 41.6068 26.7047 41.3694 26.7047C41.1722 26.7047 40.9342 26.6254 40.4599 26.27C39.9454 25.874 39.3521 25.3203 38.6403 24.6477C39.4319 24.1337 39.6688 23.6594 39.6688 23.184C39.6688 22.7493 39.313 22.4326 39.0755 22.3137C38.6007 22.0762 38.0074 22.0762 37.4537 22.0762H35.4364C35.3571 22.0762 35.318 22.0762 35.318 22.1159C35.318 22.1159 35.318 22.1555 35.3576 22.1555H35.6738C35.9509 22.1952 36.0302 22.3132 36.0302 22.5119C36.0699 22.7092 36.0699 22.907 36.0699 23.8963V25.0036C36.0699 25.5969 36.0699 26.1109 36.0302 26.388C35.9906 26.5466 35.9509 26.7047 35.7531 26.7047C35.6738 26.7443 35.595 26.7443 35.5157 26.7443C35.4364 26.7443 35.4364 26.784 35.4364 26.784C35.4364 26.8236 35.4761 26.8236 35.5549 26.8236H37.4934C37.5722 26.8236 37.6119 26.8236 37.6119 26.784C37.6119 26.784 37.6119 26.7443 37.533 26.7443C37.4537 26.7443 37.2956 26.7443 37.1375 26.7047C36.9001 26.7047 36.8208 26.5471 36.8208 26.388C36.7811 26.1109 36.7811 25.5969 36.7811 25.0036V24.846C36.7811 24.8063 36.7811 24.8063 36.8208 24.8063H37.9286C37.9682 24.8063 38.0079 24.846 38.0079 24.846C38.2057 25.0036 38.6012 25.4383 38.9972 25.7947C39.4716 26.27 39.7883 26.5867 40.1838 26.7047C40.3816 26.8236 40.619 26.8236 41.0933 26.8236H42.7553C42.8341 26.8236 42.9134 26.8236 42.9134 26.784C42.9134 26.7443 42.8737 26.7443 42.8341 26.7443H42.7156C42.5972 26.7443 42.3989 26.7047 42.3989 26.5471C42.3989 26.4678 42.4386 26.3096 42.5179 26.151L43.0324 25.0041C43.072 25.0041 43.072 24.9644 43.1508 24.9644H45.01C45.0497 24.9644 45.0893 25.0041 45.0893 25.0041L45.9201 26.5471C45.9597 26.665 45.9201 26.7047 45.8804 26.7443C45.8407 26.7443 45.8011 26.7443 45.8011 26.784C45.8011 26.8236 45.9201 26.8236 46.0782 26.8236H47.4635C47.5418 26.8236 47.6211 26.8236 47.6211 26.784C47.6211 26.7443 47.58 26.7443 47.5404 26.7443ZM37.7695 24.6081C37.3739 24.6081 36.9784 24.5684 36.8198 24.5297C36.7801 24.4901 36.7801 24.4901 36.7801 24.4504V22.3538C36.7801 22.3142 36.7801 22.3142 36.8198 22.3142C36.9383 22.2745 37.1757 22.2745 37.4131 22.2745C38.3628 22.2745 38.9561 22.7498 38.9561 23.5409C38.9561 24.0152 38.7187 24.332 38.4019 24.4906C38.2047 24.6081 37.9672 24.6081 37.7695 24.6081ZM44.8901 24.727H43.2286C43.189 24.727 43.189 24.727 43.189 24.6874L43.9796 22.9863C44.0192 22.907 44.0589 22.907 44.0985 22.9863L44.9292 24.6874C44.9694 24.727 44.9694 24.727 44.8901 24.727Z" fill="#858585"/>
</svg>
