<svg width="22" height="21" viewBox="0 0 22 21" fill="none" xmlns="http://www.w3.org/2000/svg">
<path d="M22 11.55V19.95C22 20.2285 21.8841 20.4956 21.6778 20.6925C21.4715 20.8893 21.1917 21 20.9 21H12.1C11.8082 21 11.5284 20.8893 11.3222 20.6925C11.1159 20.4956 11 20.2285 11 19.95V11.55C11 11.2715 11.1159 11.0044 11.3222 10.8075C11.5284 10.6107 11.8083 10.5 12.1 10.5H20.9C21.1918 10.5 21.4716 10.6107 21.6778 10.8075C21.8841 11.0044 22 11.2715 22 11.55ZM5.5 4.2C5.20823 4.2 4.92844 4.31066 4.72219 4.50755C4.51594 4.70443 4.4 4.97152 4.4 5.25V14.7C4.4 14.9785 4.51592 15.2456 4.72219 15.4425C4.92845 15.6393 5.20825 15.75 5.5 15.75H8.8V8.925C8.8 8.7858 8.85792 8.65226 8.96113 8.55381C9.06425 8.45529 9.20416 8.4 9.35 8.4H16.5V5.25C16.5 4.9715 16.3841 4.70442 16.1778 4.50754C15.9716 4.31067 15.6917 4.2 15.4 4.2L5.5 4.2ZM1.1 11.55H2.2V2.625C2.2 2.4858 2.25792 2.35226 2.36113 2.25381C2.46425 2.15529 2.60416 2.1 2.75 2.1H12.1V1.05C12.1 0.771498 11.9841 0.50442 11.7778 0.307545C11.5716 0.11067 11.2917 0 11 0H1.1C0.808236 0 0.52844 0.110659 0.32219 0.307545C0.11594 0.50443 0 0.771519 0 1.05V10.5C0 10.7785 0.115929 11.0456 0.32219 11.2425C0.528451 11.4393 0.808254 11.55 1.1 11.55Z" fill="white"/>
</svg>
