<svg width="22" height="22" viewBox="0 0 22 22" fill="none" xmlns="http://www.w3.org/2000/svg">
<path fill-rule="evenodd" clip-rule="evenodd" d="M21.4292 4.47423H0.570783C0.255987 4.47423 0 4.73022 0 5.04501V16.9562C0 17.271 0.255987 17.5269 0.570783 17.5269H2.04928V13.8568C2.04928 12.9201 2.81121 12.1581 3.748 12.1581H18.252C19.1887 12.1581 19.9507 12.92 19.9507 13.8568V17.5267H21.4292C21.744 17.5267 22 17.2707 22 16.9559V5.04479C21.9999 4.73026 21.7439 4.47428 21.4291 4.47428L21.4292 4.47423ZM19.1653 7.66169H15.7013C15.267 7.66169 14.9153 7.31 14.9153 6.87569C14.9153 6.44139 15.2672 6.0897 15.7013 6.0897H19.1651C19.5994 6.0897 19.9511 6.44165 19.9511 6.87569C19.9511 7.30967 19.5991 7.66169 19.1653 7.66169H19.1653ZM18.3793 13.8566V21.8731C18.3793 21.9407 18.32 22 18.2524 22H3.74799C3.68046 22 3.62113 21.9407 3.62113 21.8731V13.8566C3.62113 13.7891 3.68046 13.7297 3.74799 13.7297H18.2522C18.3198 13.7296 18.3791 13.7893 18.3791 13.8566H18.3793ZM18.3798 2.90228H3.62119V0.729133C3.62119 0.327367 3.94803 0 4.35034 0H17.6513C18.0531 0 18.3805 0.327099 18.3805 0.729133V2.90228H18.3798Z" fill="white"/>
</svg>
