<svg width="21" height="20" viewBox="0 0 21 20" fill="none" xmlns="http://www.w3.org/2000/svg">
<path fill-rule="evenodd" clip-rule="evenodd" d="M11.4264 0.597129L13.8981 5.98567C13.923 6.04324 13.9631 6.09314 14.014 6.12995C14.0649 6.16676 14.125 6.18921 14.1876 6.19491L20.0944 6.8721C20.3552 6.90067 20.5948 7.02855 20.7631 7.229C20.9314 7.42951 21.0154 7.68703 20.9977 7.94779C20.9798 8.20862 20.8615 8.45241 20.6675 8.62829L16.2881 12.6353C16.2405 12.6767 16.2051 12.7301 16.1855 12.79C16.1659 12.8498 16.1629 12.9138 16.1769 12.9752L17.3558 18.7823C17.4094 19.038 17.3615 19.3045 17.2223 19.5259C17.0831 19.7473 16.8632 19.9063 16.6089 19.9697C16.3545 20.0332 16.0854 19.9961 15.8579 19.8661L10.6796 16.9543C10.6251 16.9228 10.5632 16.9062 10.5002 16.9062C10.4372 16.9062 10.3752 16.9228 10.3208 16.9543L5.14137 19.8661V19.866C4.91387 19.9956 4.64491 20.0325 4.39078 19.969C4.13664 19.9054 3.91699 19.7465 3.77778 19.5253C3.6385 19.3041 3.59055 19.0379 3.6438 18.7822L4.82268 12.9752C4.83667 12.9137 4.8337 12.8497 4.81407 12.7899C4.7945 12.73 4.75898 12.6766 4.71137 12.6352L0.33314 8.6277C0.138838 8.45196 0.020314 8.2081 0.00237728 7.9472C-0.0155629 7.68631 0.0685588 7.42865 0.23702 7.22813C0.405473 7.02762 0.645261 6.89988 0.906176 6.87159L6.81391 6.19433C6.87663 6.18863 6.9366 6.16618 6.98752 6.12937C7.03852 6.09256 7.07857 6.04274 7.10343 5.9851L9.57407 0.597093C9.68157 0.358655 9.87757 0.170881 10.1209 0.073265C10.3642 -0.0244217 10.636 -0.0244217 10.8793 0.073265C11.1226 0.170881 11.3186 0.358655 11.4261 0.597093L11.4264 0.597129Z" fill="white"/>
</svg>
