<svg width="22" height="22" viewBox="0 0 22 22" fill="none" xmlns="http://www.w3.org/2000/svg">
<path fill-rule="evenodd" clip-rule="evenodd" d="M19.6415 9.79298V20.8403C19.6415 21.4807 19.1224 22 18.4817 22H1.15983C0.519076 22 0 21.4807 0 20.8403V3.51952C0 2.87909 0.519076 2.35977 1.15983 2.35977H12.204L4.77404 9.78895C4.12748 10.4355 3.76145 11.3105 3.755 12.2247L3.73742 14.7576C3.73099 15.6886 4.09785 16.5833 4.75646 17.2418C5.41498 17.9 6.30988 18.2671 7.24085 18.2605L9.77372 18.2429C10.6881 18.2365 11.5632 17.8705 12.2096 17.2239L19.6412 9.79289L19.6415 9.79298ZM16.1273 1.71696L17.5047 0.339597C17.9576 -0.113199 18.6918 -0.113199 19.1447 0.339597L21.6602 2.85487C21.8778 3.07222 22 3.3673 22 3.67479C22 3.98238 21.8778 4.27735 21.6602 4.49497L20.2827 5.87233C19.7942 5.70173 18.8949 5.26722 17.8138 4.18631C16.7327 3.10503 16.298 2.20559 16.1274 1.71719L16.1273 1.71696ZM18.5089 7.64555L10.5696 15.584C10.3541 15.7997 10.0625 15.9216 9.75766 15.9239L7.2248 15.9414C6.91447 15.9437 6.61612 15.8212 6.39649 15.6019C6.17714 15.3823 6.05474 15.0842 6.05689 14.7739L6.07474 12.241C6.07674 11.9362 6.19887 11.6446 6.41434 11.4292L14.3537 3.49043C14.7227 4.15922 15.2939 4.9466 16.1737 5.82619C17.0533 6.70572 17.8404 7.27647 18.509 7.64556L18.5089 7.64555Z" fill="white"/>
</svg>
