<svg width="22" height="22" viewBox="0 0 22 22" fill="none" xmlns="http://www.w3.org/2000/svg">
<path d="M19.7083 3.66667H19.25V2.29167C19.25 1.02854 18.2224 0 16.9583 0H2.29167C1.0276 0 0 1.02854 0 2.29167V5.95833C0 7.22146 1.0276 8.25 2.29167 8.25H16.9583C18.2224 8.25 19.25 7.22146 19.25 5.95833V4.58333H19.7083C20.4665 4.58333 21.0833 5.20021 21.0833 5.95833V8.70833C21.0833 9.46645 20.4665 10.0833 19.7083 10.0833H11.4583C10.351 10.0833 9.42609 10.8717 9.21342 11.9167H8.70832C7.9502 11.9167 7.33332 12.5335 7.33332 13.2917V20.625C7.33332 21.3831 7.9502 22 8.70832 22H10.5417C11.2998 22 11.9167 21.3831 11.9167 20.625V13.2917C11.9167 12.5335 11.2998 11.9167 10.5417 11.9167H10.1677C10.3575 11.3841 10.8616 11 11.4583 11H19.7083C20.9724 11 22 9.97146 22 8.70833V5.95833C22 4.6952 20.9724 3.66667 19.7083 3.66667Z" fill="white"/>
</svg>
